<svg width="747" height="306" viewBox="0 0 747 306" fill="none" xmlns="http://www.w3.org/2000/svg">
<path fill-rule="evenodd" clip-rule="evenodd" d="M128.088 288V18.0249H726.898C737.828 18.0249 746.723 27.1681 746.723 38.4031V267.628C746.723 278.861 737.828 288.002 726.898 288.002H128.088V288Z" fill="#FFFFFE"/>
<path fill-rule="evenodd" clip-rule="evenodd" d="M140.743 305.83C137.489 305.835 134.271 305.144 131.306 303.803C32.3163 259.563 -16.8189 154.212 6.15222 35.4236C6.94053 31.3505 8.82613 27.5693 11.606 24.4873C14.3859 21.4054 17.9546 19.1393 21.928 17.9332C60.2415 6.17531 100.231 0.2092 140.772 0.194824C181.372 0.2092 221.356 6.17531 259.695 17.935C263.663 19.1421 267.226 21.4075 270.001 24.4872C272.776 27.5668 274.658 31.3443 275.444 35.4128C298.4 154.081 249.226 259.431 150.167 303.814C147.205 305.147 143.992 305.834 140.743 305.83Z" fill="#FFFFFE"/>
<path fill-rule="evenodd" clip-rule="evenodd" d="M145.012 292.218V292.2C143.693 292.799 142.261 293.109 140.813 293.109C139.365 293.109 137.933 292.799 136.615 292.2C109.769 280.169 86.2562 263.002 67.1975 241.627C67.0517 241.463 66.9402 241.272 66.8694 241.065C66.7987 240.858 66.7702 240.639 66.7856 240.421C66.8001 240.203 66.8583 239.99 66.9565 239.794C67.0547 239.599 67.1911 239.425 67.3576 239.283C70.0558 236.99 73.7489 233.977 76.9112 231.897C77.26 231.667 77.6798 231.567 78.0952 231.618C78.5106 231.668 78.8944 231.865 79.1777 232.172C95.1874 249.406 114.471 263.608 136.345 274.196C139.162 275.556 142.461 275.572 145.28 274.208C223.986 236.144 268.962 151.155 251.114 46.8132C250.918 45.6627 250.403 44.5902 249.628 43.7168C248.853 42.8435 247.849 42.2042 246.729 41.8714C217.318 32.9564 186.622 27.7774 155.589 26.5231C154.505 26.4842 153.461 26.1064 152.605 25.443C147.691 21.5993 142.529 18.0827 137.152 14.9161C136.951 14.7992 136.793 14.6185 136.705 14.4025C136.617 14.1865 136.604 13.9474 136.667 13.7229C136.727 13.4966 136.861 13.2966 137.046 13.1537C137.232 13.0108 137.46 12.9329 137.694 12.9322C177.556 12.6087 217.492 18.3268 255.883 30.1189C257.64 30.6521 259.22 31.6521 260.452 33.0121C261.685 34.3721 262.525 36.041 262.882 37.8407C285.889 156.888 233.682 252.446 145.012 292.218Z" fill="#0E2855"/>
<path fill-rule="evenodd" clip-rule="evenodd" d="M207.113 154.523C206.956 154.654 206.766 154.742 206.564 154.778C206.362 154.813 206.154 154.794 205.962 154.724C202.869 153.475 199.755 152.277 196.622 151.13C195.314 150.652 194.119 149.91 193.109 148.952C192.1 147.993 191.297 146.838 190.752 145.558C184.35 130.481 174.415 121.961 161.858 111.646C161.235 111.136 160.788 110.443 160.582 109.665C160.375 108.888 160.419 108.065 160.706 107.313C161.984 104.007 163.165 100.664 164.088 97.1638C164.183 96.799 164.369 96.4643 164.629 96.1911C164.889 95.9178 165.214 95.715 165.574 95.6017C165.934 95.4883 166.316 95.4682 166.686 95.543C167.056 95.6179 167.401 95.7855 167.688 96.0299C186.669 111.991 201.555 129.544 207.455 153.43C207.563 153.844 207.419 154.255 207.113 154.525M206.861 166.223C205.076 170.813 202.73 175.165 199.876 179.18C199.757 179.356 199.585 179.49 199.384 179.561C199.183 179.632 198.965 179.637 198.761 179.575C198.562 179.523 198.384 179.41 198.252 179.252C198.12 179.094 198.04 178.9 198.023 178.695C197.43 171.435 196.548 165.72 195.523 160.958C195.482 160.765 195.494 160.565 195.558 160.378C195.621 160.192 195.734 160.026 195.885 159.898C196.036 159.769 196.219 159.682 196.415 159.647C196.611 159.613 196.813 159.631 197 159.7C199.842 160.742 202.65 161.837 205.44 162.971C206.059 163.215 206.556 163.695 206.822 164.304C207.089 164.914 207.103 165.604 206.861 166.223ZM185.014 193.47C179.582 196.864 176.236 196.936 173.768 196.97C160.723 197.132 138.284 191.328 124.14 184.283C123.357 183.898 122.717 183.276 122.31 182.505C121.903 181.734 121.75 180.855 121.873 179.992C123.908 166.241 131.193 154.379 136.933 146.674C137.819 145.49 139.034 144.594 140.427 144.098C141.82 143.602 143.328 143.528 144.763 143.885C156.633 146.804 168.396 150.143 180.03 153.894C181.695 154.426 183.195 155.377 184.386 156.655C185.577 157.933 186.419 159.496 186.831 161.193C188.56 168.382 189.529 176.073 190.087 183.511C190.232 185.475 189.836 187.442 188.942 189.197C188.047 190.953 186.689 192.43 185.014 193.47ZM166.375 209.228C164.72 215.985 160.687 223.626 154.353 224.398C147.356 225.171 140.335 221.068 134.165 216.993C127.221 210.791 123.546 203.422 122.089 195.68C122.03 195.354 122.063 195.019 122.184 194.71C122.305 194.402 122.509 194.134 122.774 193.935C123.314 193.54 124.052 193.468 124.663 193.755C136.575 199.614 151.944 204.538 164.574 206.532C164.875 206.579 165.164 206.688 165.421 206.852C165.678 207.016 165.898 207.231 166.067 207.485C166.236 207.738 166.351 208.024 166.404 208.324C166.457 208.624 166.447 208.932 166.375 209.228ZM113.956 207.646C113.615 208.168 113.057 208.509 112.445 208.581C109.423 208.904 106.29 209.893 103.016 211.618C102.117 212.107 100.985 211.834 100.39 211.007C92.3668 199.953 77.4491 167.86 74.803 129.798C74.7148 128.54 75.2527 127.316 76.26 126.545C76.7544 126.165 77.3333 125.909 77.9477 125.799C78.562 125.69 79.1938 125.73 79.7893 125.916C94.1279 130.481 112.913 136.087 128.264 139.915C128.926 140.093 129.452 140.562 129.682 141.209C129.901 141.838 129.792 142.539 129.378 143.078C115.126 161.873 107.063 184.158 114.174 205.92C114.269 206.206 114.299 206.509 114.261 206.808C114.224 207.107 114.12 207.394 113.958 207.648M73.5384 210.874C71.1723 212.085 68.4416 212.379 65.8717 211.699C63.3017 211.02 61.074 209.415 59.6172 207.194C40.3516 177.866 28.5243 142.147 26.8154 101.73C26.7978 101.383 26.8843 101.039 27.0637 100.741C27.2432 100.443 27.5074 100.206 27.8227 100.059C28.1351 99.9009 28.4865 99.8369 28.8345 99.8745C29.1826 99.9122 29.5122 100.05 29.7834 100.271C39.695 108.325 50.1697 114.633 60.6965 119.193C61.3937 119.497 61.9896 119.993 62.4138 120.623C62.8381 121.254 63.0729 121.992 63.0907 122.752C63.4865 152.061 70.2897 178.409 82.9553 203.246C83.1287 203.588 83.2303 203.962 83.2537 204.344C83.2771 204.727 83.2219 205.111 83.0915 205.471C82.9611 205.832 82.7583 206.162 82.4954 206.442C82.2325 206.721 81.9152 206.944 81.563 207.097C78.847 208.265 76.1694 209.525 73.5384 210.874ZM28.8481 57.6131C30.0857 48.1572 36.7468 38.7947 51.571 38.7768C59.3276 38.7588 67.694 41.9934 75.5405 44.9765C76.7097 45.4257 77.6271 46.3242 78.0948 47.4725C78.5446 48.6047 78.4924 49.9021 77.9509 51.0127C70.0181 67.371 65.4454 84.8506 63.7941 103.216C63.7005 104.151 63.1429 104.981 62.301 105.412C61.8855 105.617 61.4253 105.714 60.9625 105.695C60.4996 105.676 60.0489 105.542 59.6514 105.304C52.4515 100.979 45.8098 95.7871 39.8749 89.8463C31.3862 81.368 27.3011 69.4537 28.8481 57.6131ZM147.753 132.779C150.428 128.79 152.88 124.493 155.056 120.185C155.326 119.661 155.812 119.264 156.405 119.138C156.999 119.03 157.611 119.174 158.06 119.551C167.254 127.174 174.523 133.64 179.868 142.984C180.138 143.416 180.084 143.976 179.76 144.368C179.6 144.56 179.385 144.699 179.144 144.767C178.903 144.835 178.648 144.829 178.411 144.749C168.654 141.522 158.814 138.549 148.903 135.834C148.594 135.747 148.31 135.59 148.073 135.375C147.835 135.16 147.651 134.892 147.535 134.594C147.424 134.296 147.385 133.976 147.423 133.66C147.462 133.344 147.573 133.042 147.753 132.779ZM139.043 76.2267C139.237 76.077 139.473 75.9912 139.719 75.9813C139.964 75.9713 140.206 76.0376 140.412 76.171C144.692 78.8683 148.892 81.6908 153.006 84.6349C154.54 85.7296 155.712 87.2566 156.372 89.0205C157.032 90.7845 157.15 92.7051 156.711 94.5365C156.012 97.3938 155.074 100.269 154.049 103.108C153.994 103.251 153.904 103.379 153.788 103.479C153.672 103.579 153.533 103.649 153.383 103.683C153.231 103.714 153.074 103.705 152.926 103.658C152.778 103.61 152.645 103.527 152.538 103.414C144.546 94.9319 140.846 85.7132 138.597 77.5008C138.525 77.2684 138.529 77.019 138.609 76.7893C138.69 76.5596 138.842 76.3636 139.043 76.2267ZM146.508 109.344C147.551 110.456 148.222 111.865 148.429 113.374C148.635 114.884 148.367 116.421 147.661 117.772C145.64 121.64 143.342 125.357 140.786 128.896C139.909 130.115 138.684 131.042 137.271 131.555C135.859 132.068 134.324 132.143 132.868 131.771C114.408 127.135 96.1624 121.923 78.6903 114.573C77.4411 114.053 76.3844 113.158 75.6662 112.012C74.948 110.866 74.6036 109.526 74.6806 108.176C75.7599 89.7565 79.9333 71.9839 87.8679 55.4136C88.5065 54.0949 89.6297 53.0731 91.0035 52.561C92.3773 52.0488 93.8959 52.0858 95.2432 52.6641C104.608 56.6402 113.784 61.0476 122.74 65.8722C126.698 68.0287 129.524 71.7844 130.421 76.1548C132.673 86.883 136.435 98.5816 146.508 109.344ZM78.746 31.5114C89.0664 29.7459 99.4575 28.4221 109.891 27.5436C114.842 27.1303 119.77 28.2067 124.089 30.6344C148.795 44.4715 165.637 63.8452 177.258 89.92C177.419 90.283 177.315 90.7107 176.991 90.9443C176.832 91.0575 176.639 91.1154 176.444 91.1089C176.248 91.1024 176.06 91.0319 175.908 90.9083C149.079 67.7088 113.183 47.8517 78.5086 33.6013C78.287 33.5126 78.1005 33.354 77.9774 33.1496C77.8543 32.9453 77.8014 32.7063 77.8268 32.4692C77.8576 32.2331 77.9633 32.0131 78.1284 31.8413C78.2935 31.6696 78.5093 31.5552 78.7442 31.515M221.093 158.5C218.073 140.201 209.887 122.428 199.63 108.016C197.061 104.382 194.988 100.422 193.465 96.2419C185.162 73.6354 173.737 55.5501 159.017 41.156C148.309 30.8088 135.571 22.104 121.206 15.1531C119.05 14.1118 116.658 13.6527 114.269 13.8215C84.2253 15.8328 54.5139 21.302 25.7253 30.1205C23.9654 30.6565 22.3843 31.66 21.1509 33.0238C19.9175 34.3876 19.0781 36.0605 18.7224 37.8639C5.17175 108.073 16.7383 179.394 60.1155 233.294C60.45 233.71 60.9465 233.975 61.4826 234.027C61.7481 234.05 62.0155 234.02 62.2693 233.938C62.5231 233.857 62.7583 233.727 62.9612 233.554C69.0521 228.328 77.5912 222.4 86.6825 217.942C87.6297 217.477 88.7157 217.379 89.7309 217.667C90.7461 217.955 91.6185 218.609 92.1797 219.501C93.7258 221.965 95.3126 224.404 96.9395 226.815C97.2871 227.323 97.7478 227.742 98.2852 228.042C98.8227 228.341 99.4224 228.512 100.037 228.54C100.651 228.568 101.264 228.452 101.825 228.203C102.387 227.953 102.884 227.577 103.275 227.103C105.959 223.884 108.797 221.546 111.987 220.612C123.212 217.234 135.249 237.671 155.465 235.746C168.057 234.469 175.252 223.094 178.339 212.741C178.821 211.144 179.666 209.679 180.807 208.46C181.948 207.242 183.355 206.302 184.919 205.715C196.21 201.38 212.806 188.294 220.628 164.59C221.275 162.627 221.436 160.536 221.095 158.498" fill="#C62534"/>
<path fill-rule="evenodd" clip-rule="evenodd" d="M309.996 243.475C308.409 243.475 307.886 242.771 307.886 241.188V185.868C307.886 184.283 308.407 183.581 309.996 183.581H340.157C341.65 183.581 342.36 184.102 342.36 185.687V191.24C342.36 192.825 341.65 193.441 340.157 193.441H319.789V207.713H338.657C340.243 207.713 340.947 208.236 340.947 209.828V215.108C340.947 216.608 340.243 217.225 338.657 217.225H319.787V233.613H341.031C342.627 233.613 343.237 234.138 343.237 235.721V241.274C343.237 242.857 342.625 243.475 341.033 243.475H309.996ZM394.404 241.272C395.021 242.422 394.842 243.474 393.253 243.474H384.439C382.852 243.474 381.969 242.421 381.266 241.272L370.683 223.126L360.984 241.272C360.367 242.422 359.484 243.474 357.897 243.474H349.612C348.111 243.474 348.111 242.061 348.728 240.922L364.603 212.554L349.259 186.048C348.464 184.72 348.642 183.579 350.229 183.579H359.043C360.633 183.579 361.43 184.461 362.22 185.78L372.005 202.694L381.266 185.78C381.967 184.547 382.939 183.579 384.439 183.579H392.638C394.138 183.579 394.318 184.549 393.608 185.78L377.826 212.736L394.404 241.272ZM436.49 183.581C437.99 183.581 438.694 184.102 438.694 185.687V191.24C438.694 192.825 437.99 193.441 436.49 193.441H423.968V241.188C423.968 242.771 423.351 243.474 421.851 243.474H414.091C412.596 243.474 411.979 242.773 411.979 241.186V193.441H399.459C397.873 193.441 397.254 192.825 397.254 191.24V185.687C397.254 184.102 397.873 183.579 399.459 183.579L436.49 183.581ZM457.943 193.441V210.8H466.671C472.573 210.8 476.192 208.595 476.192 204.193V200.047C476.192 195.644 472.573 193.441 466.671 193.441H457.941H457.943ZM448.148 243.474C446.562 243.474 446.038 242.773 446.038 241.186V185.866C446.038 184.282 446.562 183.579 448.148 183.579H466.671C482.627 183.579 488.009 190.537 488.009 197.937V206.3C488.009 211.501 485.359 216.436 478.396 218.903L487.829 241.186C488.446 242.591 487.392 243.474 485.805 243.474H477.513C476.106 243.474 475.66 242.593 475.043 241.186L466.491 220.659H457.941V241.186C457.941 242.771 457.411 243.474 455.824 243.474H448.148ZM518.451 211.321C516.958 206.394 516.076 197.227 515.896 195.206C515.635 197.579 514.488 207.012 513.166 211.235L510.165 221.104H521.365L518.451 211.321ZM519.951 183.579C521.537 183.579 522.248 184.282 522.687 185.78L539.179 241.272C539.616 242.678 539.085 243.474 537.59 243.474H529.65C528.064 243.474 527.533 242.678 527.096 241.272L523.921 230.528H507.523L504.436 241.274C503.992 242.678 503.466 243.474 501.881 243.474H494.65C493.15 243.474 492.619 242.678 493.064 241.272L509.548 185.78C509.992 184.282 510.699 183.579 512.284 183.579H519.951ZM558.685 233.613H578.343C579.843 233.613 580.546 234.134 580.546 235.721V241.274C580.546 242.859 579.843 243.475 578.343 243.475H548.633C547.306 243.475 546.78 242.679 546.78 241.188V185.868C546.78 184.283 547.306 183.581 548.892 183.581H556.568C558.155 183.581 558.685 184.282 558.685 185.868V233.613ZM599.709 241.186C599.709 242.771 599.177 243.474 597.59 243.474H589.915C588.328 243.474 587.805 242.773 587.805 241.186V185.866C587.805 184.282 588.328 183.579 589.915 183.579H597.59C599.177 183.579 599.708 184.282 599.708 185.866V241.186H599.709ZM650.244 212.031C651.745 212.031 652.448 212.554 652.448 214.139V229.818C652.448 237.222 647.688 244.176 631.729 244.176C615.768 244.176 611.008 237.222 611.008 229.818V197.227C611.008 189.833 615.768 182.876 631.729 182.876C647.688 182.876 652.448 189.833 652.448 197.227V200.757C652.448 202.248 651.917 202.958 650.417 202.958H643.101C641.514 202.958 640.897 202.248 640.897 200.757V199.344C640.897 194.941 637.809 192.738 631.901 192.738C625.992 192.738 622.999 194.94 622.999 199.344V227.71C622.999 232.113 625.992 234.316 631.901 234.316C637.809 234.316 640.897 232.113 640.897 227.796V221.893H632.252C630.666 221.893 629.962 221.363 629.962 219.776V214.139C629.962 212.554 630.666 212.031 632.252 212.031H650.244ZM682.888 211.321C681.395 206.394 680.513 197.227 680.333 195.206C680.074 197.579 678.927 207.012 677.605 211.235L674.604 221.104H685.804L682.89 211.321H682.888ZM684.39 183.579C685.976 183.579 686.687 184.282 687.124 185.78L703.618 241.272C704.055 242.678 703.524 243.474 702.029 243.474H694.089C692.503 243.474 691.972 242.678 691.533 241.272L688.36 230.528H671.962L668.875 241.274C668.431 242.678 667.903 243.474 666.319 243.474H659.087C657.589 243.474 657.058 242.678 657.503 241.272L673.987 185.78C674.431 184.282 675.137 183.579 676.721 183.579H684.39ZM343.339 42.4965L344.951 38.7264C345.762 36.8395 347.649 34.8232 350.48 34.8232H360.991C363.821 34.8232 364.765 36.5771 363.141 38.7264L353.574 51.1114C351.83 53.4026 350.074 55.1547 347.243 55.1547H339.432C336.601 55.1547 334.845 53.4026 333.1 51.1114L323.534 38.7264C321.909 36.5771 322.854 34.8232 325.683 34.8232H336.194C339.025 34.8232 340.912 36.8413 341.724 38.7264L343.339 42.4965ZM377.558 131.068C377.558 142.641 369.746 154.086 344.413 154.086C319.078 154.086 311.268 142.643 311.268 131.066V83.4255C311.268 71.8401 319.078 60.4056 344.413 60.4056C369.746 60.4056 377.558 71.8401 377.558 83.4255V89.618C377.558 92.434 376.614 93.6505 373.795 93.6505H359.915C357.084 93.6505 355.999 92.434 355.999 89.618V87.3268C355.999 81.1343 351.292 78.5699 344.686 78.5699C338.081 78.5699 333.498 81.1343 333.498 87.3268V127.167C333.498 133.361 338.081 135.915 344.686 135.915C351.292 135.915 356.001 133.361 356.001 127.169V122.859C356.001 120.031 357.084 118.825 359.915 118.825H373.795C376.614 118.825 377.558 120.029 377.558 122.859V131.068ZM394.18 153.012C391.348 153.012 390.276 151.795 390.276 148.977V65.5128C390.276 62.6861 391.348 61.4803 394.18 61.4803H440.26C443.092 61.4803 444.31 62.4219 444.31 65.2504V75.7504C444.31 78.5681 443.092 79.6499 440.262 79.6499H412.503V97.1457H438.111C440.94 97.1457 442.147 98.0874 442.147 100.916V110.746C442.147 113.576 440.942 114.649 438.111 114.649H412.504V134.838H441.611C444.443 134.838 445.65 135.782 445.65 138.61V149.11C445.65 151.937 444.445 153.01 441.611 153.01H394.181L394.18 153.012ZM508.472 61.4803C511.304 61.4803 512.52 62.4237 512.52 65.2504V75.7504C512.52 77.0874 512.115 77.8996 511.709 78.7101L480.45 134.84H510.897C513.729 134.84 514.945 135.782 514.945 138.61V149.11C514.945 151.937 513.729 153.01 510.897 153.01H457.805C454.986 153.01 453.768 151.937 453.768 149.11V138.61C453.768 137.394 454.041 136.592 454.437 135.913L485.838 79.6535H460.096C457.268 79.6535 456.061 78.5681 456.061 75.7504V65.2504C456.061 62.4237 457.267 61.4803 460.098 61.4803H508.472Z" fill="#0E2855"/>
</svg>
