<svg width="1000" height="300" viewBox="0 0 1000 300" fill="none" xmlns="http://www.w3.org/2000/svg">
<g clip-path="url(#clip0_216_247)">
<path fill-rule="evenodd" clip-rule="evenodd" d="M124.2 280.975V17.4168H971.317C976.587 17.4278 981.637 19.5279 985.361 23.2566C989.085 26.9854 991.179 32.0386 991.183 37.3085V261.083C991.181 266.354 989.088 271.409 985.364 275.138C981.639 278.867 976.587 280.966 971.317 280.975H124.2Z" fill="white"/>
<path fill-rule="evenodd" clip-rule="evenodd" d="M136.526 298.384C133.343 298.384 130.243 297.717 127.334 296.409C30.9177 253.217 -16.9323 150.367 5.43433 34.3919C6.20024 30.4172 8.03593 26.7267 10.7437 23.7179C13.4515 20.7091 16.9287 18.496 20.801 17.3169C58.3066 5.81219 97.3206 -0.0244563 136.551 0.000199861C176.101 0.0168665 215.051 5.83353 252.384 17.3169C256.252 18.4976 259.724 20.7106 262.427 23.7178C265.131 26.7251 266.962 30.4126 267.726 34.3835C290.084 150.234 242.193 253.084 145.709 296.417C142.823 297.718 139.692 298.388 136.526 298.384Z" fill="white"/>
<path fill-rule="evenodd" clip-rule="evenodd" d="M140.683 285.092V285.075C139.4 285.659 138.006 285.961 136.596 285.961C135.186 285.961 133.792 285.659 132.508 285.075C106.731 273.584 83.6851 256.755 64.8917 235.7C64.7503 235.54 64.6423 235.354 64.5741 235.152C64.5058 234.95 64.4786 234.736 64.4942 234.523C64.5097 234.311 64.5676 234.103 64.6645 233.913C64.7614 233.723 64.8953 233.554 65.0584 233.417C68.0203 230.841 71.1252 228.434 74.3584 226.208C74.6969 225.984 75.1043 225.888 75.5075 225.937C75.9106 225.986 76.2832 226.176 76.5584 226.475C92.406 243.498 111.294 257.412 132.25 267.5C135 268.833 138.208 268.842 140.958 267.508C217.617 230.35 261.425 147.375 244.042 45.5085C243.851 44.3852 243.349 43.3379 242.594 42.4851C241.838 41.6323 240.859 41.0082 239.767 40.6835C210.933 31.9449 181.105 26.91 151 25.7001C149.942 25.6657 148.921 25.2982 148.083 24.6501C143.3 20.8961 138.276 17.4609 133.042 14.3668C132.844 14.2529 132.69 14.0764 132.604 13.865C132.518 13.6537 132.505 13.4197 132.567 13.2001C132.627 12.9806 132.757 12.7869 132.938 12.6484C133.118 12.51 133.339 12.4345 133.567 12.4335C172.572 12.1025 211.396 17.7629 248.683 29.2168C252.183 30.2835 254.8 33.1918 255.5 36.7501C277.908 152.975 227.058 246.267 140.692 285.092" fill="#102D69"/>
<path fill-rule="evenodd" clip-rule="evenodd" d="M201.167 150.667C201.015 150.795 200.831 150.881 200.635 150.917C200.439 150.952 200.237 150.935 200.05 150.867C197.039 149.644 194.008 148.472 190.958 147.35C189.683 146.884 188.517 146.162 187.533 145.227C186.548 144.292 185.765 143.166 185.233 141.917C179 127.2 169.325 118.875 157.092 108.808C156.483 108.311 156.047 107.634 155.845 106.874C155.643 106.114 155.686 105.309 155.967 104.575C157.217 101.35 158.367 98.0835 159.267 94.6668C159.359 94.3116 159.539 93.9855 159.792 93.7192C160.044 93.453 160.36 93.2552 160.71 93.1444C161.06 93.0336 161.432 93.0135 161.792 93.0859C162.152 93.1583 162.487 93.3209 162.767 93.5585C181.267 109.142 195.758 126.283 201.5 149.6C201.55 149.791 201.545 149.993 201.486 150.181C201.427 150.37 201.316 150.538 201.167 150.667ZM200.925 162.083C199.189 166.567 196.905 170.819 194.125 174.742C194.009 174.913 193.842 175.043 193.647 175.112C193.452 175.181 193.24 175.186 193.042 175.125C192.846 175.075 192.672 174.966 192.542 174.812C192.412 174.658 192.333 174.468 192.317 174.267C191.733 167.183 190.883 161.6 189.883 156.95C189.843 156.762 189.855 156.567 189.916 156.385C189.978 156.203 190.087 156.042 190.233 155.917C190.38 155.791 190.558 155.707 190.749 155.673C190.939 155.639 191.135 155.657 191.317 155.725C194.092 156.742 196.825 157.808 199.542 158.917C200.8 159.417 201.417 160.833 200.925 162.083ZM179.65 188.692C174.358 192 171.1 192.075 168.692 192.108C155.992 192.267 134.133 186.6 120.358 179.717C119.597 179.341 118.973 178.734 118.577 177.983C118.18 177.232 118.031 176.374 118.15 175.533C120.133 162.108 127.233 150.533 132.817 143C133.679 141.846 134.862 140.973 136.219 140.49C137.575 140.006 139.044 139.935 140.442 140.283C151.733 143.075 162.967 146.233 174.792 150.05C178.108 151.125 180.617 153.825 181.417 157.175C183.1 164.2 184.042 171.708 184.583 178.967C184.892 182.867 182.975 186.6 179.65 188.692ZM161.492 204.075C159.883 210.667 155.95 218.133 149.783 218.883C142.967 219.633 136.133 215.633 130.117 211.65C123.963 206.243 119.822 198.911 118.367 190.85C118.308 190.532 118.339 190.203 118.457 189.901C118.575 189.599 118.774 189.336 119.033 189.142C119.297 188.954 119.605 188.84 119.927 188.81C120.25 188.781 120.574 188.838 120.867 188.975C132.467 194.683 147.442 199.5 159.742 201.442C160.036 201.487 160.317 201.594 160.567 201.754C160.818 201.914 161.032 202.125 161.197 202.373C161.362 202.621 161.473 202.9 161.524 203.193C161.574 203.486 161.563 203.786 161.492 204.075ZM110.442 202.533C110.108 203.033 109.558 203.367 108.967 203.442C106.025 203.758 102.967 204.725 99.7833 206.408C99.3564 206.634 98.8621 206.698 98.3918 206.588C97.9216 206.477 97.5071 206.201 97.225 205.808C89.4083 195.017 74.875 163.692 72.3083 126.525C72.2647 125.921 72.3713 125.316 72.6185 124.764C72.8657 124.211 73.2458 123.728 73.725 123.358C74.2055 122.987 74.7685 122.737 75.3662 122.63C75.9639 122.522 76.5787 122.561 77.1583 122.742C91.125 127.2 109.425 132.667 124.375 136.408C124.692 136.484 124.984 136.637 125.226 136.855C125.468 137.072 125.651 137.347 125.759 137.654C125.867 137.961 125.896 138.29 125.843 138.611C125.791 138.932 125.658 139.235 125.458 139.492C111.575 157.842 103.725 179.6 110.65 200.842C110.743 201.122 110.773 201.419 110.737 201.711C110.701 202.004 110.6 202.285 110.442 202.533ZM71.075 205.683C68.7679 206.869 66.103 207.158 63.5956 206.493C61.0882 205.828 58.9164 204.257 57.5 202.083C38.7417 173.458 27.2167 138.583 25.5583 99.1251C25.5406 98.7869 25.6239 98.451 25.7975 98.1602C25.9711 97.8694 26.2272 97.6367 26.5333 97.4918C26.8384 97.3361 27.1823 97.2729 27.5228 97.3099C27.8633 97.3469 28.1855 97.4825 28.45 97.7001C37.5972 105.202 47.7271 111.418 58.5583 116.175C59.2379 116.472 59.8186 116.957 60.232 117.572C60.6454 118.188 60.8742 118.909 60.8917 119.65C61.275 148.267 67.8917 173.983 80.2334 198.233C80.4016 198.568 80.4999 198.932 80.5223 199.306C80.5447 199.679 80.4907 200.053 80.3635 200.405C80.2364 200.757 80.0388 201.079 79.7828 201.352C79.5269 201.625 79.218 201.842 78.875 201.992C76.25 203.117 73.6333 204.358 71.0667 205.683M27.5417 56.0585C28.75 46.8251 35.2333 37.6835 49.675 37.6668C57.2333 37.6501 65.375 40.8085 73.025 43.7168C73.5846 43.9312 74.0939 44.2587 74.5212 44.6788C74.9484 45.0989 75.2845 45.6026 75.5083 46.1585C75.7246 46.7135 75.8237 47.3073 75.7993 47.9025C75.7749 48.4976 75.6276 49.0813 75.3667 49.6168C67.6417 65.5835 63.1917 82.6501 61.5833 100.575C61.5402 101.025 61.3848 101.457 61.1315 101.831C60.8781 102.205 60.5349 102.51 60.1334 102.717C59.7287 102.918 59.2803 103.014 58.8289 102.996C58.3776 102.979 57.9379 102.848 57.55 102.617C50.5377 98.3925 44.07 93.3241 38.2917 87.5251C34.2133 83.4514 31.124 78.4962 29.2618 73.0409C27.3995 67.5856 26.8139 61.7757 27.55 56.0585M143.367 129.442C145.967 125.542 148.358 121.358 150.475 117.142C150.605 116.885 150.791 116.661 151.018 116.485C151.246 116.309 151.51 116.186 151.792 116.125C152.375 116.017 152.958 116.158 153.4 116.525C162.358 123.967 169.442 130.275 174.65 139.408C174.775 139.617 174.831 139.859 174.812 140.101C174.792 140.343 174.698 140.573 174.542 140.758C174.385 140.945 174.175 141.08 173.94 141.146C173.705 141.211 173.456 141.204 173.225 141.125C163.719 137.975 154.133 135.074 144.475 132.425C144.172 132.348 143.892 132.198 143.659 131.989C143.427 131.78 143.248 131.518 143.138 131.225C143.029 130.932 142.991 130.617 143.03 130.306C143.068 129.996 143.181 129.699 143.358 129.442M134.875 74.2335C135.064 74.0863 135.293 74.0016 135.532 73.9911C135.771 73.9806 136.008 74.045 136.208 74.1751C140.375 76.8085 144.458 79.5668 148.475 82.4418C151.525 84.6335 152.967 88.4418 152.083 92.1085C151.37 94.941 150.508 97.7338 149.5 100.475C149.445 100.615 149.356 100.739 149.241 100.837C149.126 100.934 148.989 101.002 148.842 101.033C148.695 101.062 148.543 101.054 148.4 101.009C148.258 100.964 148.129 100.883 148.025 100.775C140.242 92.4918 136.633 83.4918 134.442 75.4751C134.37 75.2479 134.373 75.0036 134.451 74.7784C134.529 74.5532 134.678 74.3592 134.875 74.2251M142.15 106.558C144.233 108.792 144.675 112.092 143.275 114.792C141.108 118.892 138.892 122.458 136.575 125.65C135.723 126.84 134.531 127.745 133.155 128.246C131.78 128.747 130.285 128.821 128.867 128.458C110.883 123.933 93.1167 118.842 76.0917 111.667C74.8747 111.157 73.846 110.282 73.1475 109.162C72.4489 108.043 72.115 106.734 72.1917 105.417C73.2417 87.4418 77.3083 70.0835 85.025 53.9168C85.6457 52.6276 86.7402 51.628 88.0802 51.1265C89.4202 50.6249 90.9021 50.6603 92.2167 51.2251C101.339 55.106 110.276 59.4079 119 64.1168C122.85 66.2251 125.608 69.8918 126.483 74.1585C128.675 84.6335 132.333 96.0501 142.15 106.558ZM76.1417 30.5835C86.1929 28.8595 96.3132 27.5667 106.475 26.7085C111.284 26.3027 116.105 27.3538 120.308 29.7251C144.367 43.2335 160.775 62.1418 172.092 87.6085C172.171 87.7785 172.19 87.9708 172.144 88.1529C172.099 88.335 171.992 88.4959 171.842 88.6085C171.686 88.7207 171.498 88.7783 171.307 88.7722C171.115 88.7662 170.931 88.6969 170.783 88.5751C144.65 65.9168 109.683 46.5335 75.9084 32.6168C75.6927 32.531 75.5109 32.3771 75.3906 32.1786C75.2702 31.9801 75.218 31.7477 75.2417 31.5168C75.271 31.285 75.3744 31.0688 75.5366 30.9006C75.6988 30.7324 75.9111 30.6212 76.1417 30.5835ZM214.792 154.558C211.85 136.692 203.875 119.342 193.883 105.275C191.383 101.725 189.365 97.8574 187.883 93.7751C179.792 71.7085 168.667 54.0501 154.325 40.0001C143.9 29.8918 131.492 21.4001 117.492 14.6168C115.395 13.5981 113.067 13.147 110.742 13.3085C81.4776 15.2711 52.5384 20.6093 24.5 29.2168C21 30.2835 18.3833 33.2085 17.6833 36.7751C4.48335 105.317 15.75 174.942 58 227.567C58.325 227.975 58.8083 228.233 59.3333 228.283C59.853 228.327 60.3686 228.162 60.7667 227.825C67.8231 221.824 75.5828 216.703 83.875 212.575C84.7977 212.124 85.8548 212.03 86.8426 212.311C87.8304 212.593 88.6791 213.23 89.225 214.1C90.9083 216.792 92.7167 219.55 93.8667 221.242C94.2059 221.734 94.6544 222.141 95.1771 222.431C95.6998 222.721 96.2825 222.887 96.8797 222.914C97.4769 222.942 98.0723 222.83 98.6194 222.589C99.1665 222.348 99.6504 221.984 100.033 221.525C102.65 218.383 105.417 216.1 108.517 215.192C119.45 211.892 131.183 231.842 150.867 229.967C163.133 228.717 170.142 217.608 173.15 207.5C173.619 205.941 174.441 204.511 175.552 203.322C176.664 202.132 178.035 201.215 179.558 200.642C190.558 196.408 206.725 183.642 214.333 160.492C214.967 158.583 215.125 156.533 214.792 154.55" fill="#D51224"/>
<path fill-rule="evenodd" clip-rule="evenodd" d="M306.425 149.192C303.675 149.192 302.617 148 302.617 145.242V63.6584C302.617 60.9084 303.667 59.7168 306.425 59.7168H351.367C354.125 59.7168 355.308 60.6334 355.308 63.4001V73.6668C355.308 76.4251 354.125 77.4834 351.367 77.4834H324.3V94.5835H349.267C352.017 94.5835 353.208 95.5001 353.208 98.2668V107.875C353.208 110.633 352.025 111.692 349.267 111.692H324.3V131.425H352.683C355.433 131.425 356.625 132.342 356.625 135.108V145.375C356.625 148.133 355.442 149.192 352.683 149.192H306.433H306.425ZM435.2 145.242C436.383 147.342 435.983 149.192 433.225 149.192H416.933C414.175 149.192 412.6 147.342 411.417 145.242L398.008 121.95L386.325 145.242C385.267 147.342 383.558 149.192 380.8 149.192H365.558C362.933 149.192 362.808 146.692 363.983 144.583L387.108 102.75L365.033 64.0584C363.717 61.8251 363.85 59.7251 366.617 59.7251H382.9C385.667 59.7251 387.233 61.3001 388.558 63.6668L400.508 84.7168L411.675 63.6668C412.858 61.4251 414.575 59.7168 417.325 59.7168H432.308C435.067 59.7168 435.458 61.4251 434.142 63.6668L411.025 103L435.2 145.242ZM498.275 59.7168C501.025 59.7168 502.217 60.6334 502.217 63.4001V73.6668C502.217 76.4251 501.033 77.4834 498.275 77.4834H481.458V145.233C481.458 148 480.542 149.192 477.775 149.192H463.583C460.833 149.192 459.775 148 459.775 145.242V77.4834H442.958C440.2 77.4834 439.008 76.4251 439.008 73.6668V63.4001C439.008 60.6418 440.2 59.7168 442.958 59.7168H498.275ZM532.833 77.4834V98.4001H543.333C549.775 98.4001 555.292 95.9001 555.292 89.8501V86.0334C555.292 79.9834 549.775 77.4834 543.333 77.4834H532.833ZM563.058 112.875L575.933 145.242C576.85 147.608 575.142 149.192 572.25 149.192H558.058C555.558 149.192 555.042 147.083 554.25 145.242L542.692 116.158H532.833V145.242C532.833 148 531.917 149.192 529.15 149.192H514.967C512.2 149.192 511.15 148 511.15 145.242V63.6584C511.15 60.9084 512.2 59.7168 514.967 59.7168H543.333C568.042 59.7168 576.708 70.9001 576.708 82.2168V93.6668C576.708 101.167 572.9 108.667 563.042 112.875H563.058ZM623.5 108.4C621.4 100.375 619.558 82.0834 619.425 80.9001C619.158 82.7418 617.058 100.767 614.958 108.4L612.983 115.508H625.342L623.5 108.4ZM631.775 63.6668L655.558 145.242C656.35 147.742 655.425 149.192 652.667 149.192H638.083C635.325 149.192 634.142 147.742 633.483 145.242L630.067 132.608H608.258L604.842 145.242C604.183 147.742 603.008 149.192 600.242 149.192H586.967C584.217 149.192 583.292 147.742 584.075 145.242L607.858 63.6584C608.65 61.0334 609.967 59.7168 612.725 59.7168H626.917C629.667 59.7168 630.983 61.0334 631.775 63.6668ZM686.575 131.417H712.325C715.083 131.417 716.267 132.342 716.267 135.108V145.375C716.267 148.133 715.083 149.192 712.325 149.192H668.167C665.8 149.192 664.883 147.875 664.883 145.242V63.6584C664.883 60.9084 665.933 59.7168 668.692 59.7168H682.883C685.642 59.7168 686.567 60.9001 686.567 63.6668V131.417H686.575ZM748.458 145.242C748.458 148 747.542 149.192 744.783 149.192H730.583C727.825 149.192 726.775 148 726.775 145.242V63.6584C726.775 60.9084 727.825 59.7168 730.583 59.7168H744.775C747.533 59.7168 748.45 60.9001 748.45 63.6668V145.242H748.458ZM823.625 100.5C826.375 100.5 827.567 101.425 827.567 104.192V127.742C827.567 139.058 819.942 150.242 795.233 150.242C770.533 150.242 762.917 139.058 762.917 127.742V81.1584C762.917 69.8501 770.533 58.6584 795.242 58.6584C819.942 58.6584 827.567 69.8501 827.567 81.1584V85.9084C827.567 88.6584 826.65 89.8501 823.883 89.8501H810.35C807.6 89.8501 806.542 88.6668 806.542 85.9001V84.9834C806.542 78.9251 801.942 76.4251 795.5 76.4251C789.067 76.4251 784.6 78.9251 784.6 84.9751V123.925C784.6 129.975 789.067 132.475 795.5 132.475C801.942 132.475 806.542 129.975 806.542 123.925V118.267H795.767C793.008 118.267 791.825 117.217 791.825 114.45V104.192C791.825 101.425 793.008 100.508 795.767 100.508H823.625V100.5ZM874.342 108.4C872.242 100.375 870.4 82.0834 870.267 80.9001C870.008 82.7418 867.9 100.767 865.8 108.4L863.833 115.508H876.183L874.35 108.4H874.342ZM882.625 63.6668L906.4 145.242C907.192 147.742 906.275 149.192 903.517 149.192H888.933C886.167 149.192 884.983 147.742 884.325 145.242L880.908 132.608H859.1L855.683 145.242C855.025 147.742 853.85 149.192 851.083 149.192H837.808C835.058 149.192 834.142 147.742 834.925 145.242L858.708 63.6584C859.492 61.0334 860.808 59.7168 863.567 59.7168H877.758C880.517 59.7168 881.833 61.0334 882.625 63.6668ZM318.508 167.467L320.7 163.433C321.225 162.467 322.192 161.333 323.675 161.333H329.283C330.775 161.333 331.3 162.292 330.425 163.433L324.025 172.117C323.067 173.35 322.108 174.308 320.608 174.308H316.408C314.825 174.308 313.95 173.258 312.992 172.033L306.592 163.433C305.717 162.292 306.242 161.333 307.733 161.333H313.342C314.825 161.333 315.792 162.467 316.317 163.433L318.508 167.467ZM334.192 179.05C335.775 179.05 336.467 179.575 336.467 181.158V186.592C336.466 187.214 336.284 187.822 335.942 188.342L313.517 228.875H335.767C337.258 228.875 337.958 229.4 337.958 230.983V236.508C337.958 238.092 337.258 238.7 335.767 238.7H301.517C299.933 238.7 299.325 238.092 299.325 236.508V230.983C299.325 230.283 299.492 229.842 299.675 229.492L322.192 188.875H303C301.517 188.875 300.808 188.258 300.808 186.683V181.158C300.808 179.575 301.517 179.05 303 179.05H334.192ZM348.2 238.7C346.625 238.7 346.1 238 346.1 236.425V181.333C346.1 179.75 346.625 179.05 348.2 179.05H378.167C379.658 179.05 380.358 179.575 380.358 181.158V186.683C380.358 188.267 379.658 188.875 378.167 188.875H357.933V203.083H376.683C378.25 203.083 378.958 203.617 378.958 205.192V210.458C378.958 211.95 378.25 212.558 376.675 212.558H357.925V228.875H379.042C380.625 228.875 381.233 229.4 381.233 230.983V236.508C381.233 238.092 380.617 238.7 379.042 238.7H348.208H348.2ZM433.533 236.508C433.533 238.008 433.008 238.7 431.425 238.7H424.508C423.367 238.7 422.925 238.442 422.492 237.65L405.575 208.617C404.189 206.362 403.017 203.982 402.075 201.508V236.508C402.075 238.008 401.55 238.7 399.975 238.7H393.058C391.475 238.7 390.95 238 390.95 236.508V181.25C390.95 179.758 391.475 179.058 393.058 179.058H399.975C400.942 179.058 401.467 179.317 401.808 179.933L419.425 210.2C420.917 212.742 422.4 216.342 422.4 216.342V181.258C422.4 179.758 422.925 179.058 424.508 179.058H431.425C433.008 179.058 433.533 179.758 433.533 181.25V236.517V236.508ZM476.975 238.7C475.4 238.7 474.7 238 474.258 236.508L457.883 181.242C457.442 179.842 457.967 179.05 459.55 179.05H467.867C469.358 179.05 469.967 179.842 470.408 181.242L478.908 211.075C480.217 215.808 481.008 223.792 481.008 223.792C481.008 223.792 482.058 215.808 483.375 211.158L491.875 181.242C492.308 179.842 492.925 179.05 494.5 179.05H502.125C503.608 179.05 504.133 179.842 503.7 181.242L487.4 236.508C486.967 238.008 486.175 238.7 484.6 238.7H476.975ZM513.25 238.7C511.667 238.7 511.142 238 511.142 236.425V181.333C511.142 179.75 511.667 179.05 513.242 179.05H543.208C544.692 179.05 545.4 179.575 545.4 181.158V186.683C545.4 188.267 544.692 188.875 543.208 188.875H522.967V203.083H541.717C543.3 203.083 543.992 203.617 543.992 205.192V210.458C543.992 211.95 543.292 212.558 541.717 212.558H522.967V228.875H544.083C545.658 228.875 546.275 229.4 546.275 230.983V236.508C546.275 238.092 545.658 238.7 544.083 238.7H513.25ZM607.15 179.05C608.65 179.05 609.342 179.575 609.342 181.158V186.683C609.342 188.267 608.642 188.875 607.15 188.875H584.817V203.083H605.658C607.242 203.083 607.85 203.617 607.85 205.192V210.808C607.85 212.392 607.242 213 605.658 213H584.817V236.417C584.817 238 584.283 238.7 582.708 238.7H575.083C573.508 238.7 572.983 238 572.983 236.425V181.333C572.983 179.75 573.508 179.05 575.083 179.05H607.15ZM630.192 228.875H649.725C651.217 228.875 651.917 229.4 651.917 230.983V236.508C651.917 238.092 651.217 238.7 649.725 238.7H620.2C618.892 238.7 618.367 237.908 618.367 236.425V181.333C618.367 179.75 618.892 179.05 620.467 179.05H628.092C629.667 179.05 630.192 179.75 630.192 181.333V228.875ZM689.058 194.75C689.058 190.367 685.475 188.167 679.6 188.167C673.725 188.167 670.225 190.367 670.225 194.75V223C670.225 227.383 673.725 229.583 679.6 229.583C685.467 229.583 689.058 227.383 689.058 223V194.75ZM658.308 192.65C658.308 185.275 663.742 178.35 679.6 178.35C695.45 178.35 700.883 185.275 700.883 192.65V225.108C700.883 232.475 695.45 239.408 679.6 239.408C663.742 239.408 658.308 232.475 658.308 225.108V192.65ZM724.1 188.875V206.158H732.767C738.642 206.158 742.233 203.967 742.233 199.575V195.458C742.233 191.067 738.65 188.875 732.775 188.875H724.1ZM724.1 215.983V236.425C724.1 238 723.575 238.7 722 238.7H714.375C712.792 238.7 712.275 238 712.275 236.425V181.333C712.275 179.75 712.8 179.05 714.375 179.05H732.775C748.633 179.05 753.975 185.983 753.975 193.35V201.683C753.975 206.858 751.35 211.767 744.342 214.317L753.8 236.425C754.417 237.825 753.358 238.7 751.783 238.7H744.075C742.85 238.7 742.492 237.825 741.883 236.425L733.3 215.983H724.1ZM776.667 212.733V229.233H785.683C791.55 229.233 795.233 227.125 795.233 222.733V218.792C795.233 215.017 791.55 212.733 785.683 212.733H776.658H776.667ZM776.667 188.525V203.783H783.233C788.833 203.783 792.425 201.683 792.425 197.208V194.142C792.425 189.75 788.842 188.525 782.967 188.525H776.667ZM766.933 238.7C765.35 238.7 764.833 238 764.833 236.425V181.333C764.833 179.75 765.358 179.05 766.933 179.05H782.967C798.825 179.05 804.167 184.925 804.167 192.3V197.467C804.167 201.767 802.158 205.192 797.6 207.3C803.558 209.4 806.883 213.083 806.883 217.908V224.842C806.883 232.208 801.542 238.7 785.683 238.7H766.933ZM836.842 206.683C835.7 203.083 834.392 191.858 834.3 190.717C834.125 191.858 832.633 202.908 831.583 206.592L828.608 216.425H839.733L836.842 206.683ZM838.333 179.05C839.917 179.05 840.692 179.75 841.133 181.242L857.433 236.508C857.867 237.917 857.342 238.7 855.85 238.7H847.967C846.475 238.7 845.867 237.917 845.425 236.508L842.358 225.808H826.067L823 236.508C822.558 237.917 821.95 238.7 820.375 238.7H813.275C811.692 238.7 811.175 237.917 811.608 236.508L827.992 181.242C828.433 179.75 829.133 179.05 830.708 179.05H838.333ZM876.7 228.875H896.233C897.725 228.875 898.425 229.4 898.425 230.983V236.508C898.425 238.092 897.725 238.7 896.233 238.7H866.708C865.4 238.7 864.875 237.908 864.875 236.425V181.333C864.875 179.75 865.4 179.05 866.975 179.05H874.6C876.175 179.05 876.7 179.75 876.7 181.333V228.875ZM908.758 238.7C907.183 238.7 906.658 238 906.658 236.425V181.333C906.658 179.75 907.183 179.05 908.758 179.05H938.725C940.208 179.05 940.917 179.575 940.917 181.158V186.683C940.917 188.267 940.208 188.875 938.725 188.875H918.483V203.083H937.233C938.817 203.083 939.508 203.617 939.508 205.192V210.458C939.508 211.95 938.808 212.558 937.233 212.558H918.483V228.875H939.6C941.183 228.875 941.792 229.4 941.792 230.983V236.508C941.792 238.092 941.175 238.7 939.6 238.7H908.767H908.758Z" fill="#102D69"/>
</g>
<defs>
<clipPath id="clip0_216_247">
<rect width="1000" height="300" fill="white"/>
</clipPath>
</defs>
</svg>
