<svg width="789" height="301" viewBox="0 0 789 301" fill="none" xmlns="http://www.w3.org/2000/svg">
<g clip-path="url(#clip0_216_224)">
<path fill-rule="evenodd" clip-rule="evenodd" d="M762.726 293.07H24.1729C19.9151 293.067 15.8325 291.375 12.8227 288.366C9.81283 285.356 8.12207 281.275 8.12207 277.02V25.6479C8.12207 16.7885 15.3079 9.5979 24.1729 9.5979H762.726C771.591 9.5979 778.777 16.7885 778.777 25.6479V277.02C778.777 285.879 771.591 293.07 762.726 293.07Z" fill="#0E2855"/>
<mask id="mask0_216_224" style="mask-type:alpha" maskUnits="userSpaceOnUse" x="0" y="2" width="787" height="299">
<path d="M0.570312 2.05103H786.328V300.195H0.570312V2.05103Z" fill="#FFFFFE"/>
</mask>
<g mask="url(#mask0_216_224)">
<path fill-rule="evenodd" clip-rule="evenodd" d="M762.726 2.05103H24.1728C17.9144 2.06095 11.9154 4.55053 7.49097 8.97392C3.06653 13.3973 0.577755 19.3935 0.570312 25.6479L0.570313 277.02C0.577755 283.274 3.06653 289.27 7.49097 293.694C11.9154 298.117 17.9144 300.607 24.1728 300.617H762.726C768.984 300.607 774.983 298.117 779.408 293.694C783.832 289.27 786.321 283.274 786.328 277.02V25.6479C786.321 19.3935 783.832 13.3973 779.408 8.97392C774.983 4.55053 768.984 2.06095 762.726 2.05103ZM762.726 9.5979C771.591 9.5979 778.777 16.7885 778.777 25.6479V277.02C778.777 285.879 771.591 293.07 762.726 293.07H24.1728C19.915 293.067 15.8324 291.375 12.8226 288.366C9.81274 285.356 8.12198 281.275 8.12198 277.02V25.6479C8.12198 16.7885 15.3078 9.5979 24.1728 9.5979H762.726Z" fill="#FFFFFE"/>
</g>
<mask id="mask1_216_224" style="mask-type:alpha" maskUnits="userSpaceOnUse" x="8" y="9" width="283" height="285">
<path d="M24.1729 9.5979C15.3079 9.5979 8.12207 16.7885 8.12207 25.6479V277.02C8.12207 285.879 15.3079 293.07 24.1729 293.07H290.986V9.5979H24.1635H24.1729Z" fill="#FFFFFE"/>
</mask>
<g mask="url(#mask1_216_224)">
<path fill-rule="evenodd" clip-rule="evenodd" d="M228.293 297.185C279.457 215.135 300.883 112.282 286.633 1.40405H1.68677V297.185H228.293Z" fill="#FFFFFE"/>
</g>
<mask id="mask2_216_224" style="mask-type:alpha" maskUnits="userSpaceOnUse" x="8" y="9" width="283" height="285">
<path d="M24.1729 9.5979C15.3079 9.5979 8.12207 16.7885 8.12207 25.6479V277.02C8.12207 285.879 15.3079 293.07 24.1729 293.07H290.986V9.5979H24.1635H24.1729Z" fill="#C62534"/>
</mask>
<g mask="url(#mask2_216_224)">
<path fill-rule="evenodd" clip-rule="evenodd" d="M19.8014 297.185C13.9206 296.356 8.15441 294.855 2.61548 292.713C2.29653 292.582 1.99634 292.423 1.68677 292.263V297.185H19.8014Z" fill="#C62534"/>
</g>
<mask id="mask3_216_224" style="mask-type:alpha" maskUnits="userSpaceOnUse" x="8" y="9" width="283" height="285">
<path d="M24.1729 9.5979C15.3079 9.5979 8.12207 16.7885 8.12207 25.6479V277.02C8.12207 285.879 15.3079 293.07 24.1729 293.07H290.986V9.5979" fill="#C62534"/>
</mask>
<g mask="url(#mask3_216_224)">
<path fill-rule="evenodd" clip-rule="evenodd" d="M50.0925 222.439C50.4302 217.01 52.9724 211.939 57.1376 208.395C74.6331 193.564 92.3537 176.267 101.397 166.01C102.442 164.826 103.778 163.934 105.274 163.425C106.77 162.915 108.373 162.804 109.924 163.104C115.628 164.192 123.649 166.207 128.827 167.501C131.388 168.129 133.405 170.032 134.155 172.545C135.806 178.01 137.504 184.929 138.499 191.614C138.977 194.914 138.536 198.289 137.223 201.364C130.186 217.917 120.744 233.343 109.202 247.142C107.591 249.075 105.441 250.487 103.026 251.196C100.611 251.906 98.0385 251.881 95.637 251.126C82.659 247.068 69.6112 243.236 56.4997 239.632C54.7571 239.172 53.2034 238.176 52.0587 236.784C50.9139 235.393 50.2359 233.677 50.1206 231.879C49.9207 228.736 49.9114 225.583 50.0925 222.439ZM52.8599 142.151C51.7174 142.117 50.6325 141.642 49.8331 140.826C49.0337 140.009 48.582 138.915 48.5728 137.773C48.4602 92.801 48.4133 75.3354 48.3851 68.6042C48.3838 67.472 48.8186 66.3827 49.5993 65.5623C50.3801 64.7419 51.4469 64.2533 52.5784 64.1979C63.6121 63.4351 74.6185 62.319 85.5806 60.851C86.0847 60.7873 86.5966 60.8266 87.085 60.9664C87.5735 61.1063 88.0285 61.3439 88.4223 61.6647C88.8162 61.9856 89.1407 62.383 89.3763 62.833C89.6118 63.2829 89.7535 63.776 89.7927 64.2823C91.4062 90.7479 117.692 124.929 125.159 143.445C125.386 144.03 125.455 144.664 125.36 145.285C125.264 145.905 125.007 146.489 124.615 146.979C124.213 147.469 123.69 147.844 123.097 148.066C122.504 148.288 121.862 148.35 121.238 148.245C103.545 145.282 80.3179 143.079 52.8599 142.151ZM107.204 60.3823C108.77 58.0479 111.209 56.4354 113.977 55.8823C123.489 54.0354 135.966 51.6823 143.546 50.7823C143.767 50.7613 143.991 50.7948 144.197 50.8797C144.403 50.9647 144.585 51.0986 144.728 51.2698C145.009 51.6448 145.084 52.1135 144.915 52.5448C138.47 69.0917 122.823 76.7698 112.804 81.701C112.502 81.8539 112.171 81.9421 111.833 81.9601C111.494 81.9781 111.156 81.9254 110.839 81.8055C110.522 81.6855 110.234 81.5009 109.992 81.2634C109.751 81.0259 109.561 80.7407 109.436 80.426C107.837 76.5022 106.572 72.4503 105.656 68.3135C105.374 66.955 105.365 65.554 105.631 64.1922C105.897 62.8305 106.432 61.5353 107.204 60.3823ZM158.471 54.5885C158.802 53.7099 159.384 52.9476 160.144 52.396C160.904 51.8444 161.81 51.5278 162.748 51.4854C165.328 51.3354 167.898 52.8448 168.555 55.3292C173.921 75.7667 165.91 104.332 147.542 145.873C147.401 146.235 147.159 146.55 146.845 146.779C146.531 147.008 146.157 147.143 145.769 147.167C145.379 147.176 144.996 147.068 144.668 146.857C144.341 146.647 144.084 146.343 143.93 145.985C139.221 134.314 128.405 117.485 121.378 105.185C120.115 102.966 119.754 100.346 120.37 97.8674C120.987 95.3892 122.533 93.2429 124.69 91.8729C136.604 84.2323 150.703 75.3729 158.471 54.5885ZM193.086 60.9635C192.927 59.0979 193.377 57.2604 194.803 56.051C195.507 55.4591 196.354 55.0626 197.26 54.9013C198.165 54.7401 199.098 54.8197 199.963 55.1323C205.741 57.2822 211.268 60.0548 216.445 63.401C232.177 73.4042 242.186 86.4448 242.393 110.914C239.754 136.463 234.543 161.681 226.839 186.185C226.667 186.759 226.348 187.277 225.913 187.688C225.477 188.099 224.941 188.388 224.359 188.527C223.776 188.666 223.167 188.649 222.593 188.478C222.019 188.307 221.5 187.989 221.089 187.554C207.411 173.52 187.936 164.539 171.548 159.12C171.057 158.963 170.603 158.709 170.211 158.374C169.82 158.039 169.499 157.63 169.268 157.17C169.022 156.715 168.876 156.213 168.84 155.697C168.805 155.181 168.88 154.663 169.062 154.179C182.458 122.304 195.272 87.1479 193.096 60.9542M206.464 236.895C197.307 255.444 186.467 273.115 174.081 289.685C173.78 290.089 173.378 290.407 172.917 290.608C172.455 290.809 171.949 290.885 171.448 290.83C170.948 290.775 170.47 290.591 170.063 290.294C169.656 289.998 169.333 289.601 169.127 289.142C163.471 276.495 152.992 260.492 138.114 249.448C137.306 248.86 136.761 247.979 136.597 246.993C136.432 246.008 136.66 244.998 137.232 244.179C143.443 235.18 149.098 225.809 154.165 216.12C157.6 209.547 159.644 202.338 160.169 194.942L161.116 182.426C161.183 181.616 161.443 180.834 161.875 180.145C162.307 179.457 162.898 178.881 163.598 178.468C164.298 178.055 165.087 177.816 165.899 177.77C166.711 177.725 167.522 177.875 168.264 178.207C200.882 192.42 217.458 210.429 206.464 236.895ZM44.023 252.682C57.8505 254.614 78.9858 260.117 91.4812 263.492L91.4156 263.51L91.8565 263.623C92.5265 263.796 93.1501 264.114 93.6828 264.555C94.2155 264.996 94.6441 265.55 94.938 266.176C95.2319 266.802 95.3839 267.485 95.3831 268.176C95.3824 268.868 95.2288 269.551 94.9334 270.176C91.2561 278.023 86.1153 286.16 85.0459 287.745C84.0984 289.339 82.832 291.467 79.7738 292.714C74.259 294.85 68.5183 296.35 62.663 297.185H104.033C104.174 296.923 104.352 296.689 104.493 296.435C104.849 295.76 105.234 295.076 105.6 294.401L105.712 294.457C111.585 283.695 116.922 273.514 122.767 265.207C123.086 264.745 123.504 264.36 123.991 264.08C124.478 263.799 125.021 263.63 125.581 263.585C126.136 263.526 126.697 263.59 127.224 263.774C127.751 263.957 128.231 264.254 128.63 264.645C137.11 272.839 143.048 284.679 144.624 297.176H201.116C254.569 218.885 279.307 116.867 263.678 1.39478H240.038C242.515 18.9917 243.997 36.251 244.513 53.1354C244.522 53.5536 244.414 53.966 244.203 54.3268C243.991 54.6875 243.683 54.9825 243.314 55.1788C242.944 55.3751 242.527 55.4651 242.11 55.4387C241.692 55.4122 241.29 55.2705 240.948 55.0292C227.064 45.326 210.826 36.5885 188.846 33.4292C187.965 33.3023 187.123 32.9849 186.378 32.4991C185.632 32.0133 185.002 31.3709 184.531 30.6167C179.728 22.901 170.76 11.8667 159.906 1.40415H129.821C140.309 9.23228 150.225 18.2792 156.557 27.4854C157.056 28.2118 157.356 29.0558 157.428 29.9338C157.501 30.8118 157.343 31.6934 156.97 32.4917C156.589 33.2889 156.009 33.9749 155.286 34.4838C154.563 34.9928 153.722 35.3075 152.842 35.3979C119.643 38.7542 82.5131 47.1635 52.6722 47.7354C52.0875 47.7453 51.5066 47.6399 50.9627 47.4251C50.4188 47.2103 49.9226 46.8904 49.5026 46.4838C49.0826 46.0771 48.747 45.5916 48.515 45.0551C48.283 44.5186 48.1592 43.9417 48.1506 43.3573C48.1225 35.6885 48.0568 23.051 48.0568 14.501C48.0568 10.3198 50.2707 6.4479 53.8542 4.30103C55.4771 3.31665 57.3064 2.35103 59.2483 1.39478H23.3192C25.2611 2.35103 27.0716 3.31665 28.7039 4.30103C32.2968 6.45728 34.5107 10.3198 34.5107 14.501C34.5107 23.051 34.4451 35.6885 34.4169 43.3573C34.3972 44.5351 33.9112 45.6571 33.0656 46.4776C32.2199 47.2982 31.0833 47.7505 29.9047 47.7354C20.4666 47.465 11.0484 46.714 1.68677 45.4854V61.4604C9.99829 62.4917 21.5369 63.7104 29.9891 64.2073C31.1174 64.2649 32.1805 64.7532 32.959 65.5714C33.7375 66.3895 34.1721 67.4751 34.173 68.6042L33.9854 137.773C33.9739 138.914 33.5214 140.007 32.7224 140.823C31.9235 141.639 30.84 142.115 29.6983 142.151C20.3524 142.465 11.0135 142.958 1.68677 143.632V158.014C17.4749 155.698 32.203 156.645 41.2369 156.645H41.3307C50.9931 156.645 67.1846 155.567 84.2016 158.548C84.9615 158.67 85.6088 159.195 85.8808 159.907C86.0236 160.261 86.0702 160.645 86.0158 161.022C85.9614 161.4 85.808 161.756 85.5712 162.054C78.2447 171.523 61.3402 187.076 45.2144 192.504C42.6586 193.367 39.8902 193.367 37.3344 192.504C24.0416 188.014 10.2422 176.67 1.68677 167.52V186.982C9.05082 194.014 17.2591 201.476 25.4206 208.395C29.5857 211.939 32.1373 217.02 32.4751 222.439C32.6627 225.598 32.6345 228.692 32.4375 231.879C32.3223 233.677 31.6443 235.393 30.4995 236.784C29.3547 238.176 27.8011 239.172 26.0585 239.632C19.9233 241.292 10.7488 243.917 1.68677 246.617V260.679C13.6006 257.614 28.1223 254.145 38.507 252.682C40.3269 252.429 42.2031 252.429 44.023 252.682Z" fill="#C62534"/>
</g>
<path fill-rule="evenodd" clip-rule="evenodd" d="M377.872 54.4009C379.711 54.1197 381.831 54.4009 381.831 58.3572V132.654H398.689C401.653 132.654 402.938 133.638 402.938 136.61V147.645C402.938 150.617 401.653 151.751 398.689 151.751H340.911C337.938 151.751 336.671 150.626 336.671 147.645V136.61C336.671 133.638 337.938 132.654 340.911 132.654H358.472V76.4697L340.911 79.3009C338.228 79.7322 336.671 78.7384 336.671 75.7665V64.7322C336.671 61.7603 338.228 60.6259 340.911 60.204L377.872 54.3915V54.4009ZM434.364 147.645C434.364 150.617 433.379 151.751 430.406 151.751H415.396C412.422 151.751 411.287 150.626 411.287 147.645V135.907C411.287 132.935 412.413 131.66 415.396 131.66H430.406C433.379 131.66 434.364 132.935 434.364 135.907V147.645ZM497.948 132.654H525.697C528.671 132.654 529.947 133.638 529.947 136.61V147.654C529.947 150.617 528.671 151.751 525.697 151.751H478.117C475.575 151.751 474.581 150.345 474.581 147.504V59.7728C474.581 56.8009 475.706 55.5259 478.689 55.5259H493.98C496.954 55.5259 497.939 56.8009 497.939 59.7728V132.654H497.948ZM563.08 147.504C563.08 150.476 562.086 151.751 559.112 151.751H543.821C540.848 151.751 539.712 150.476 539.712 147.504V59.7728C539.712 56.8009 540.848 55.5259 543.821 55.5259H559.112C562.086 55.5259 563.08 56.8009 563.08 59.7728V147.504ZM644.066 99.3915C647.04 99.3915 648.316 100.385 648.316 103.357V128.688C648.316 140.857 640.107 152.876 613.484 152.876C586.861 152.876 578.653 140.857 578.653 128.688V78.5978C578.653 66.429 586.861 54.4009 613.484 54.4009C640.107 54.4009 648.316 66.429 648.316 78.5884V83.6884C648.316 86.6603 647.321 87.9353 644.348 87.9353H629.77C626.796 87.9353 625.661 86.6603 625.661 83.6884V82.6947C625.661 76.1884 620.708 73.5072 613.766 73.5072C606.824 73.5072 602.011 76.1884 602.011 82.6947V124.582C602.011 131.088 606.824 133.779 613.766 133.779C620.708 133.779 625.661 131.088 625.661 124.592V118.498H614.057C611.073 118.498 609.807 117.373 609.807 114.392V103.357C609.807 100.385 611.073 99.3915 614.057 99.3915H644.076H644.066ZM697.031 107.885C694.62 98.829 693.344 86.379 692.641 78.1665C691.928 85.3853 690.089 99.9634 687.819 107.885L685.699 115.526H699.01L697.031 107.885ZM700.708 55.5259C703.682 55.5259 705.099 56.9415 705.943 59.7728L731.572 147.504C732.416 150.195 731.431 151.751 728.457 151.751H712.744C709.77 151.751 708.495 150.195 707.791 147.504L704.104 133.92H680.605L676.918 147.513C676.215 150.195 674.939 151.751 671.965 151.751H657.659C654.695 151.751 653.7 150.195 654.545 147.504L680.173 59.7728C681.018 56.9415 682.444 55.5259 685.417 55.5259H700.708ZM395.058 245.163C395.058 246.757 394.495 247.517 392.788 247.517H384.955C383.257 247.517 382.694 246.767 382.694 245.163V209.21C381.94 212.152 381.026 215.05 379.955 217.892L372.778 235.442C372.122 236.942 371.268 237.804 369.664 237.804H362.957C361.362 237.804 360.508 236.857 359.936 235.442L351.915 216.476C351.064 214.157 350.337 211.794 349.739 209.398V245.163C349.739 246.757 349.176 247.517 347.478 247.517H340.02C338.322 247.517 337.75 246.767 337.75 245.163V185.726C337.75 184.113 338.313 183.363 340.02 183.363H347.478C348.698 183.363 349.176 183.832 349.551 184.676L363.998 217.61C364.748 219.307 365.602 221.857 366.362 224.21C367.112 221.951 368.05 219.401 368.81 217.704L382.788 184.498C383.163 183.645 383.82 183.363 384.955 183.363H392.788C394.495 183.363 395.058 184.113 395.058 185.726V245.163ZM420.64 230.632C420.64 235.348 424.505 237.71 430.734 237.71C437.16 237.71 441.025 235.348 441.025 230.632V185.82C441.025 184.113 441.682 183.363 443.295 183.363H451.503C453.201 183.363 453.774 184.113 453.774 185.82V232.892C453.774 240.823 447.826 248.267 430.734 248.267C413.745 248.267 407.891 240.823 407.891 232.892V185.82C407.891 184.113 408.548 183.363 410.152 183.363H418.37C420.068 183.363 420.64 184.113 420.64 185.82V230.632ZM483.314 170.913L485.678 166.573C486.241 165.532 487.273 164.304 488.886 164.304H494.928C496.532 164.304 497.104 165.335 496.157 166.573L489.262 175.91C488.23 177.223 487.189 178.263 485.584 178.263H481.053C479.346 178.263 478.408 177.138 477.367 175.817L470.481 166.573C469.534 165.345 470.106 164.304 471.701 164.304H477.751C479.346 164.304 480.387 165.523 480.96 166.573L483.314 170.913ZM500.406 183.363C502.095 183.363 502.864 183.926 502.864 185.632V191.379C502.864 192.326 502.583 192.795 502.301 193.357L478.127 236.951H502.104C503.708 236.951 504.459 237.513 504.459 239.21V245.163C504.459 246.851 503.708 247.517 502.104 247.517H465.19C463.492 247.517 462.826 246.86 462.826 245.163V239.21C462.826 238.46 463.014 237.992 463.201 237.617L487.47 193.929H466.804C465.2 193.929 464.449 193.273 464.449 191.567V185.632C464.449 183.926 465.2 183.363 466.804 183.363H500.416H500.406ZM539.769 170.82C539.769 168.832 538.352 167.988 535.988 167.988C533.634 167.988 532.217 168.832 532.217 170.81V171.945C532.217 173.932 533.624 174.87 535.988 174.87C538.352 174.87 539.769 173.932 539.769 171.945V170.82ZM546.57 172.788C546.57 176.66 543.352 180.157 535.988 180.157C528.634 180.157 525.416 176.66 525.416 172.798V170.06C525.416 166.188 528.634 162.701 535.988 162.701C543.352 162.701 546.57 166.188 546.57 170.06V172.798V172.788ZM525.894 230.632C525.894 235.348 529.759 237.701 535.988 237.701C542.414 237.701 546.279 235.348 546.279 230.632V185.82C546.279 184.113 546.936 183.363 548.549 183.363H556.758C558.456 183.363 559.028 184.113 559.028 185.81V232.892C559.028 240.823 553.08 248.267 535.988 248.267C518.999 248.267 513.146 240.823 513.146 232.892V185.82C513.146 184.132 513.802 183.373 515.416 183.373H523.624C525.322 183.373 525.894 184.123 525.894 185.82V230.632Z" fill="#FFFFFE"/>
</g>
<defs>
<clipPath id="clip0_216_224">
<rect width="788" height="300" fill="white" transform="translate(0.570312 0.194824)"/>
</clipPath>
</defs>
</svg>
