<svg width="1157" height="328" viewBox="0 0 1157 328" fill="none" xmlns="http://www.w3.org/2000/svg">
<g clip-path="url(#clip0_516_470)">
<path fill-rule="evenodd" clip-rule="evenodd" d="M1087.48 21.5712H267.756L267.478 21.4722C227.784 9.31681 186.497 3.15648 144.983 3.195C103.499 3.16239 62.2426 9.32269 22.5774 21.4722C18.4826 22.7152 14.8046 25.0521 11.9398 28.231C9.07492 31.4099 7.13187 35.3102 6.31996 39.5118C-17.3434 161.987 33.2804 270.601 135.231 316.225C138.3 317.611 141.568 318.314 144.954 318.314C148.32 318.314 151.587 317.621 154.657 316.235C165.105 311.551 175.192 306.101 184.835 299.928H1087.46C1099.05 299.928 1108.48 290.502 1108.48 278.918V42.5811C1108.48 30.997 1099.06 21.5712 1087.47 21.5712" fill="white"/>
<path fill-rule="evenodd" clip-rule="evenodd" d="M134.191 282.383C133.521 282.631 132.804 282.73 132.091 282.673C131.378 282.617 130.686 282.406 130.063 282.056C118.897 275.812 108.359 268.504 98.5974 260.235C95.0775 257.248 92.4418 253.356 90.9758 248.979C89.5098 244.602 89.2694 239.907 90.2806 235.403C91.9836 227.848 95.1321 221.551 98.5974 216.73C98.8783 216.339 99.247 216.019 99.6738 215.796C100.101 215.573 100.574 215.454 101.055 215.447C101.537 215.44 102.013 215.547 102.446 215.757C102.879 215.968 103.256 216.277 103.548 216.66C110.498 225.799 113.805 229.106 120.132 235.71C128.449 244.373 137.587 254.126 138.984 265.472C139.587 270.225 138.786 274.938 137.112 279.462C136.866 280.131 136.477 280.739 135.972 281.243C135.468 281.748 134.861 282.136 134.191 282.383M76.4588 238.165C66.2916 226.24 57.5832 213.144 50.5182 199.155C47.9765 194.141 47.1817 188.422 48.2596 182.905C49.3376 177.388 52.2267 172.389 56.4687 168.7C61.0275 164.762 66.088 161.446 71.5182 158.839C72.0355 158.583 72.6044 158.449 73.1814 158.448C73.7583 158.447 74.3279 158.578 74.8462 158.832C75.3645 159.085 75.8178 159.454 76.1711 159.91C76.5245 160.366 76.7686 160.897 76.8845 161.462C79.8647 175.888 85.6766 189.343 93.34 201.858C93.7473 202.533 93.9196 203.323 93.8301 204.106C93.7405 204.889 93.3941 205.62 92.8449 206.185C85.1222 214.037 79.0232 225.136 76.4588 238.165M38.637 170.383C33.601 154.966 30.2514 139.047 28.6469 122.908C28.2414 118.872 28.8113 114.797 30.3086 111.027C31.8059 107.258 34.1867 103.902 37.2509 101.244C50.6469 89.6405 68.3895 83.9177 87.4885 81.8385C87.8545 81.7962 88.225 81.858 88.5575 82.0167C88.8901 82.1753 89.1711 82.4245 89.3685 82.7356C89.5659 83.0467 89.6717 83.4071 89.6736 83.7756C89.6756 84.144 89.5737 84.5055 89.3796 84.8187C78.5578 102.522 73.9043 122.739 74.6568 143.037C74.6956 144.149 74.3902 145.245 73.7824 146.178C73.1746 147.11 72.294 147.831 71.2608 148.244C57.6271 153.68 47.3004 161.037 38.6271 170.383M31.3895 51.492C31.5908 50.2981 32.1208 49.184 32.9201 48.2745C33.7193 47.3651 34.7561 46.6964 35.9142 46.3434C53.142 41.0959 82.6865 39.7395 118.29 49.3137C118.68 49.4193 119.032 49.6336 119.304 49.9315C119.577 50.2294 119.759 50.5987 119.83 50.9962C119.9 51.3938 119.856 51.8032 119.703 52.1768C119.55 52.5503 119.293 52.8725 118.964 53.1058C113.342 57.0561 108.081 61.4958 103.241 66.3731C100.519 69.1363 96.8489 70.761 92.9736 70.9177C69.2707 71.8781 46.4588 77.5712 27.4687 91.2642C27.8276 77.9304 29.1379 64.6392 31.3895 51.492M99.3103 32.9177C117.924 30.6405 136.617 29.7494 155.201 30.2543C155.425 30.2628 155.639 30.3438 155.812 30.4849C155.986 30.626 156.108 30.8196 156.162 31.0365C156.281 31.482 156.063 31.9177 155.677 32.1751C150.3 35.7791 144.35 38.9573 139.023 41.185C137.092 41.9771 135.013 42.383 133.003 41.789C121.936 38.5683 110.672 36.0712 99.2806 34.3137C99.11 34.2911 98.9536 34.2066 98.8411 34.0763C98.7286 33.946 98.6678 33.779 98.6703 33.6069C98.6727 33.4348 98.7382 33.2696 98.8543 33.1425C98.9705 33.0155 99.1292 32.9355 99.3004 32.9177M172.508 89.3038C172.583 89.4396 172.609 89.5964 172.584 89.7491C172.559 89.9018 172.483 90.0417 172.37 90.1465C172.256 90.2513 172.11 90.315 171.956 90.3274C171.801 90.3397 171.647 90.3001 171.518 90.2147C155.281 80.3929 135.756 73.7395 117.964 71.6405C117.723 71.6128 117.495 71.516 117.308 71.3617C117.12 71.2074 116.982 71.0022 116.908 70.7709C116.835 70.5396 116.83 70.292 116.895 70.0581C116.959 69.8241 117.09 69.6137 117.271 69.4523C122.894 64.5415 128.558 60.6999 133.558 57.6702C134.697 56.985 135.991 56.6001 137.319 56.5516C138.647 56.5031 139.966 56.7926 141.152 57.3929C149.003 61.3533 162.786 70.0365 172.508 89.3038M210.488 153.789C210.644 154.212 210.674 154.671 210.574 155.11C210.475 155.55 210.251 155.951 209.928 156.266C209.606 156.581 209.2 156.796 208.758 156.886C208.316 156.975 207.858 156.934 207.439 156.769C204.944 155.806 202.435 154.879 199.914 153.987C197.504 153.13 195.49 151.422 194.251 149.185C186.687 135.591 174.944 125.987 161.756 116.353C160.471 115.416 159.508 114.103 159.001 112.596C158.494 111.089 158.467 109.461 158.924 107.938C159.815 104.997 160.627 102.066 161.3 99.0662C161.376 98.7264 161.527 98.4081 161.743 98.1354C161.96 97.8627 162.235 97.6427 162.549 97.492C162.862 97.3413 163.206 97.2639 163.554 97.2656C163.902 97.2673 164.246 97.3481 164.558 97.5019C189.409 109.66 204.102 136.334 210.498 153.789M212.033 170.066C210.419 174.819 208.207 179.347 205.449 183.541C205.33 183.727 205.155 183.871 204.95 183.952C204.744 184.033 204.518 184.047 204.305 183.992C204.091 183.937 203.9 183.816 203.758 183.646C203.617 183.477 203.533 183.267 203.518 183.046C203.133 176.891 202.142 170.789 200.558 164.829C200.503 164.626 200.505 164.413 200.564 164.211C200.624 164.01 200.738 163.83 200.894 163.69C201.049 163.548 201.24 163.452 201.446 163.411C201.653 163.371 201.866 163.389 202.063 163.462C204.904 164.512 207.736 165.621 210.548 166.779C211.835 167.314 212.488 168.749 212.033 170.066M143.221 113.403C145.825 115.601 146.667 119.244 145.3 122.363C143.221 127.056 140.964 131.373 138.409 135.848C137.7 137.09 136.66 138.11 135.404 138.796C134.149 139.481 132.728 139.804 131.3 139.73C117.904 139.007 104.32 139.631 91.34 142.274C90.7854 142.388 90.2125 142.378 89.6624 142.244C89.1123 142.111 88.5986 141.857 88.1584 141.501C87.7181 141.145 87.3622 140.696 87.1163 140.186C86.8704 139.676 86.7405 139.118 86.736 138.551C86.6172 119.086 91.637 100.66 103.34 84.7296C104.213 83.5485 105.361 82.5977 106.684 81.9594C108.007 81.3212 109.466 81.0146 110.934 81.0662L113.003 81.1454C117.706 81.3929 121.855 84.3137 123.677 88.6405C127.756 98.3038 134.964 106.423 143.221 113.393M153.211 124.106C153.33 123.826 153.511 123.576 153.74 123.376C153.969 123.176 154.24 123.03 154.533 122.949C154.826 122.868 155.134 122.854 155.433 122.909C155.732 122.963 156.015 123.085 156.261 123.264C165.469 129.997 174.578 136.908 181.439 145.759C181.6 145.973 181.691 146.232 181.698 146.499C181.706 146.767 181.629 147.03 181.48 147.252C181.331 147.475 181.116 147.645 180.866 147.739C180.615 147.834 180.341 147.848 180.083 147.779C169.529 144.907 158.795 142.741 147.954 141.294C147.619 141.251 147.3 141.127 147.024 140.933C146.748 140.739 146.523 140.481 146.369 140.181C146.215 139.881 146.137 139.547 146.14 139.21C146.144 138.873 146.229 138.541 146.389 138.244C148.894 133.591 151.112 129.076 153.211 124.106M152.716 100.561C152.152 102.749 151.538 104.819 150.914 106.928C150.874 107.064 150.8 107.187 150.7 107.288C150.6 107.388 150.476 107.462 150.34 107.502C150.205 107.543 150.062 107.55 149.924 107.523C149.786 107.495 149.656 107.433 149.548 107.343C141.885 101.145 134.786 93.9474 130.815 85.284C130.749 85.1435 130.724 84.9869 130.745 84.8329C130.765 84.6788 130.829 84.5338 130.929 84.415C131.029 84.2961 131.161 84.2085 131.309 84.1625C131.458 84.1165 131.616 84.114 131.766 84.1553C136.587 85.3929 141.795 87.0464 146.716 88.9474C151.37 90.7494 153.944 95.7395 152.706 100.561M118.449 213.294C118.457 213.431 118.423 213.568 118.351 213.686C118.278 213.803 118.172 213.895 118.046 213.95C117.92 214.006 117.779 214.021 117.644 213.993C117.509 213.966 117.386 213.898 117.29 213.799C105.855 202.175 92.6172 178.423 88.34 156.027C88.1737 155.153 88.3519 154.248 88.8372 153.503C89.3226 152.757 90.0775 152.228 90.9439 152.027C103.637 149.086 116.528 148.502 127.756 148.779C128.103 148.785 128.444 148.878 128.746 149.05C129.049 149.222 129.303 149.467 129.486 149.762C129.669 150.058 129.775 150.395 129.795 150.742C129.814 151.089 129.746 151.435 129.597 151.749C120.746 170.66 117.429 192.73 118.449 213.294ZM189.122 198.343C188.467 198.674 187.803 198.987 187.132 199.284C182.013 201.532 169.112 207.997 155.33 207.71C154.459 207.69 141.271 203.819 131.013 199.947C130.283 199.671 129.657 199.175 129.221 198.528C128.785 197.881 128.56 197.114 128.578 196.334C128.894 180.155 132.241 166.809 137.687 154.541C138.352 153.048 139.476 151.805 140.894 150.992C142.312 150.179 143.953 149.837 145.578 150.017C158.053 151.403 171.102 153.947 184.162 157.64C187.538 158.601 190.231 161.185 191.31 164.522C193.726 171.967 194.875 179.829 195.271 187.749C195.488 192.175 193.092 196.334 189.132 198.343M181.053 211.858C181.355 211.779 181.673 211.775 181.977 211.848C182.282 211.92 182.563 212.067 182.798 212.275C183.032 212.482 183.211 212.745 183.319 213.038C183.428 213.332 183.462 213.647 183.419 213.957C182.657 219.363 181.162 224.056 179.914 228.096C179.634 229.003 179.013 229.766 178.182 230.225C174.736 232.096 170.696 233.997 163.241 233.799C153.677 233.601 145.29 230.631 138.32 227.235C135.868 226.046 133.754 224.261 132.171 222.044C130.589 219.826 129.588 217.246 129.261 214.541C129.134 213.469 129.048 212.393 129.003 211.314C128.988 211.008 129.05 210.703 129.182 210.427C129.314 210.151 129.513 209.913 129.761 209.733C130.008 209.553 130.297 209.438 130.6 209.397C130.904 209.357 131.212 209.393 131.498 209.502C139.696 212.571 153.399 216.631 154.696 216.73C163.786 217.393 171.904 214.215 181.053 211.858M143.201 243.215C143.102 243.083 143.047 242.923 143.045 242.758C143.043 242.593 143.094 242.432 143.19 242.298C143.287 242.164 143.423 242.065 143.58 242.014C143.737 241.963 143.906 241.964 144.063 242.017C150.154 244.101 156.512 245.302 162.944 245.581C173.191 245.878 180.3 243.462 186.597 239.314C188.706 237.928 190.261 235.888 191.073 233.502C193.944 224.888 195.706 217.809 196.696 212.076C197.34 208.413 199.132 205.046 202.191 202.898C212.815 195.373 220.954 184.027 225.875 168.809C226.568 166.621 226.706 164.324 226.261 162.076C222.162 141.482 207.182 119.314 195.508 106.037C191.394 101.352 188.16 95.9613 185.964 90.1256C179.934 74.2345 168.766 59.6801 153.449 50.3137C153.132 50.124 152.872 49.8535 152.694 49.5298C152.517 49.2062 152.429 48.8411 152.439 48.4721C152.444 48.1047 152.548 47.7455 152.739 47.4319C152.931 47.1184 153.203 46.8621 153.528 46.69C166.38 40.1949 180.974 31.284 191.092 20.6207C191.224 20.4823 191.315 20.3099 191.354 20.1229C191.394 19.9358 191.38 19.7415 191.316 19.5617C191.251 19.3818 191.137 19.2236 190.988 19.1046C190.838 18.9856 190.658 18.9106 190.469 18.888C135.337 12.616 79.5033 17.8174 26.4786 34.1652C24.6643 34.7235 23.036 35.7647 21.768 37.1774C20.5001 38.5901 19.6402 40.3211 19.2806 42.185C-4.09565 164.096 47.9737 262.581 137.637 304.759C138.248 305.048 138.943 305.104 139.592 304.916C140.241 304.728 140.799 304.31 141.162 303.74C154.627 282.987 158.34 263.423 143.201 243.225" fill="#E20613"/>
<path fill-rule="evenodd" clip-rule="evenodd" d="M270.716 42.1852C270.357 40.3224 269.499 38.5923 268.233 37.1797C266.966 35.7671 265.34 34.7252 263.528 34.1654C243.939 28.1151 223.912 23.5835 203.627 20.6109C203.061 20.5301 202.483 20.5971 201.951 20.8052C201.418 21.0134 200.948 21.3558 200.587 21.799C197.935 25.0546 195.021 28.0878 191.874 30.8683C191.684 31.0349 191.545 31.2529 191.475 31.4963C191.405 31.7396 191.407 31.998 191.48 32.2404C191.553 32.4828 191.695 32.6989 191.887 32.863C192.08 33.027 192.316 33.132 192.567 33.1654C213.415 35.8144 234 40.2262 254.102 46.3535C255.258 46.7067 256.293 47.3742 257.092 48.2816C257.891 49.189 258.423 50.3005 258.627 51.4921C276.102 154.502 235.023 239.334 161.191 281.354C160.623 281.677 160.124 282.109 159.723 282.626C159.322 283.142 159.027 283.733 158.854 284.363C156.907 291.153 154.078 297.657 150.439 303.71C150.333 303.888 150.287 304.096 150.306 304.302C150.326 304.508 150.41 304.703 150.547 304.859C150.685 305.014 150.869 305.12 151.073 305.163C151.276 305.206 151.487 305.183 151.676 305.096C154.696 303.68 159.3 301.403 163.439 299.156C246.102 254.383 293.171 159.215 270.716 42.1852Z" fill="#102D69"/>
<path d="M365.514 95.137V93.142C365.514 90.1274 364.539 87.9994 362.588 86.758C360.638 85.428 358.155 84.763 355.14 84.763C352.126 84.763 349.599 85.428 347.559 86.758C345.609 87.9994 344.633 90.1274 344.633 93.142V94.472C344.633 96.2454 345.165 97.5754 346.229 98.462C347.293 99.3487 348.18 99.925 348.889 100.191L371.233 107.772C376.11 109.457 380.1 112.028 383.203 115.486C386.307 118.855 387.858 122.978 387.858 127.855V137.298C387.858 142.973 385.42 148.204 380.543 152.992C375.667 157.691 367.022 160.041 354.608 160.041C342.195 160.041 333.55 157.691 328.673 152.992C323.797 148.204 321.358 142.973 321.358 137.298V128.387C321.358 126.968 321.624 125.949 322.156 125.328C322.777 124.707 323.797 124.397 325.215 124.397H339.047C340.466 124.397 341.441 124.707 341.973 125.328C342.505 125.949 342.771 126.968 342.771 128.387V134.372C342.771 137.387 343.88 139.559 346.096 140.889C348.402 142.13 351.195 142.751 354.475 142.751C357.756 142.751 360.549 142.13 362.854 140.889C365.16 139.559 366.312 137.387 366.312 134.372V131.712C366.312 129.318 365.027 127.456 362.455 126.126C359.884 124.796 357.357 123.688 354.874 122.801L335.722 115.619C332.353 114.378 329.427 112.072 326.944 108.703C324.55 105.334 323.353 101.743 323.353 97.93V90.216C323.353 84.5414 325.526 79.3544 329.87 74.6551C334.304 69.867 342.727 67.473 355.14 67.473C367.288 67.473 375.622 69.867 380.144 74.6551C384.666 79.3544 386.927 84.5414 386.927 90.216V95.137C386.927 96.5557 386.617 97.5754 385.996 98.196C385.464 98.8167 384.489 99.127 383.07 99.127H369.238C367.82 99.127 366.844 98.8167 366.312 98.196C365.78 97.5754 365.514 96.5557 365.514 95.137ZM422.597 72.527V133.441C422.597 136.456 423.75 138.672 426.055 140.091C428.449 141.421 431.287 142.086 434.567 142.086C437.848 142.086 440.685 141.421 443.079 140.091C445.473 138.672 446.67 136.456 446.67 133.441V72.527C446.67 71.1084 446.936 70.0887 447.468 69.468C448.089 68.8474 449.109 68.537 450.527 68.537H464.891C466.31 68.537 467.285 68.8474 467.817 69.468C468.349 70.0887 468.615 71.1084 468.615 72.527V137.298C468.615 142.973 466.044 148.204 460.901 152.992C455.759 157.691 446.981 160.041 434.567 160.041C422.154 160.041 413.376 157.691 408.233 152.992C403.179 148.204 400.652 142.973 400.652 137.298V72.527C400.652 71.1084 400.918 70.0887 401.45 69.468C402.071 68.8474 403.091 68.537 404.509 68.537H418.873C420.292 68.537 421.267 68.8474 421.799 69.468C422.331 70.0887 422.597 71.1084 422.597 72.527ZM516.761 128.254H506.121V154.987C506.121 156.406 505.855 157.425 505.323 158.046C504.791 158.667 503.816 158.977 502.397 158.977H488.033C486.615 158.977 485.595 158.667 484.974 158.046C484.442 157.425 484.176 156.406 484.176 154.987V72.527C484.176 71.1084 484.442 70.0887 484.974 69.468C485.595 68.8474 486.615 68.537 488.033 68.537H516.761C529.175 68.537 537.908 70.931 542.962 75.719C548.016 80.4184 550.543 85.6054 550.543 91.2801V105.511C550.543 111.186 548.016 116.417 542.962 121.205C537.908 125.904 529.175 128.254 516.761 128.254ZM516.761 86.492H506.121V110.299H516.761C520.042 110.299 522.879 109.634 525.273 108.304C527.667 106.885 528.864 104.669 528.864 101.654V95.137C528.864 92.1224 527.667 89.95 525.273 88.62C522.879 87.2014 520.042 86.492 516.761 86.492ZM612.649 158.977H565.833C564.414 158.977 563.395 158.667 562.774 158.046C562.242 157.425 561.976 156.406 561.976 154.987V72.527C561.976 71.1084 562.242 70.0887 562.774 69.468C563.395 68.8474 564.414 68.537 565.833 68.537H611.319C612.738 68.537 613.757 68.803 614.378 69.335C614.999 69.867 615.309 70.8424 615.309 72.261V82.6351C615.309 84.0537 614.999 85.0734 614.378 85.6941C613.757 86.226 612.738 86.492 611.319 86.492H583.921V103.782H609.191C610.61 103.782 611.629 104.048 612.25 104.58C612.871 105.112 613.181 106.087 613.181 107.506V117.215C613.181 118.634 612.871 119.653 612.25 120.274C611.629 120.806 610.61 121.072 609.191 121.072H583.921V141.022H612.649C614.068 141.022 615.087 141.288 615.708 141.82C616.329 142.352 616.639 143.327 616.639 144.746V155.12C616.639 156.539 616.329 157.558 615.708 158.179C615.087 158.711 614.068 158.977 612.649 158.977ZM661.84 86.492H651.2V107.639H661.84C665.121 107.639 667.958 106.974 670.352 105.644C672.746 104.225 673.943 102.009 673.943 98.994V95.137C673.943 92.1224 672.746 89.95 670.352 88.62C667.958 87.2014 665.121 86.492 661.84 86.492ZM647.476 158.977H633.112C631.694 158.977 630.674 158.667 630.053 158.046C629.521 157.425 629.255 156.406 629.255 154.987V72.527C629.255 71.1084 629.521 70.0887 630.053 69.468C630.674 68.8474 631.694 68.537 633.112 68.537H661.84C674.254 68.537 682.987 70.931 688.041 75.719C693.095 80.4184 695.622 85.6054 695.622 91.2801V102.851C695.622 106.664 694.558 110.343 692.43 113.89C690.302 117.348 686.756 120.141 681.79 122.269L694.824 154.987C695.268 156.14 695.09 157.115 694.292 157.913C693.583 158.622 692.519 158.977 691.1 158.977H675.672C674.52 158.977 673.633 158.622 673.012 157.913C672.392 157.204 671.86 156.228 671.416 154.987L659.978 125.594H651.2V154.987C651.2 156.406 650.934 157.425 650.402 158.046C649.87 158.667 648.895 158.977 647.476 158.977ZM730.689 72.527V141.022H756.757C758.175 141.022 759.195 141.288 759.816 141.82C760.436 142.352 760.747 143.327 760.747 144.746V155.12C760.747 156.539 760.436 157.558 759.816 158.179C759.195 158.711 758.175 158.977 756.757 158.977H712.069C710.916 158.977 710.074 158.667 709.542 158.046C709.01 157.337 708.744 156.317 708.744 154.987V72.527C708.744 71.1084 709.01 70.0887 709.542 69.468C710.162 68.8474 711.182 68.537 712.601 68.537H726.965C728.383 68.537 729.359 68.8474 729.891 69.468C730.423 70.0887 730.689 71.1084 730.689 72.527ZM791.863 72.527V154.987C791.863 156.406 791.597 157.425 791.065 158.046C790.533 158.667 789.558 158.977 788.139 158.977H773.775C772.357 158.977 771.337 158.667 770.716 158.046C770.184 157.425 769.918 156.406 769.918 154.987V72.527C769.918 71.1084 770.184 70.0887 770.716 69.468C771.337 68.8474 772.357 68.537 773.775 68.537H788.139C789.558 68.537 790.533 68.8474 791.065 69.468C791.597 70.0887 791.863 71.1084 791.863 72.527ZM839.764 109.767H867.96C869.379 109.767 870.399 110.033 871.019 110.565C871.64 111.097 871.95 112.072 871.95 113.491V137.298C871.95 142.973 869.601 148.204 864.901 152.992C860.202 157.691 851.646 160.041 839.232 160.041C826.819 160.041 818.263 157.691 813.563 152.992C808.864 148.204 806.514 142.973 806.514 137.298V90.216C806.514 84.5414 808.864 79.3544 813.563 74.6551C818.263 69.867 826.819 67.473 839.232 67.473C851.646 67.473 860.202 69.867 864.901 74.6551C869.601 79.3544 871.95 84.5414 871.95 90.216V95.004C871.95 96.4227 871.684 97.4424 871.152 98.063C870.62 98.6837 869.645 98.994 868.226 98.994H854.527C853.109 98.994 852.089 98.6837 851.468 98.063C850.936 97.4424 850.67 96.4227 850.67 95.004V94.073C850.67 91.0584 849.606 88.886 847.478 87.5561C845.439 86.1374 842.779 85.428 839.498 85.428C836.218 85.428 833.558 86.1374 831.518 87.5561C829.479 88.886 828.459 91.0584 828.459 94.073V133.441C828.459 136.456 829.479 138.672 831.518 140.091C833.558 141.421 836.218 142.086 839.498 142.086C842.779 142.086 845.439 141.421 847.478 140.091C849.606 138.672 850.67 136.456 850.67 133.441V127.722H839.764C838.346 127.722 837.326 127.456 836.705 126.924C836.085 126.303 835.774 125.284 835.774 123.865V113.491C835.774 112.072 836.085 111.097 836.705 110.565C837.326 110.033 838.346 109.767 839.764 109.767ZM919.856 124.929L917.994 117.747C916.842 113.491 915.955 108.747 915.334 103.516C914.714 98.196 914.226 93.6297 913.871 89.817C913.694 91.5017 913.472 93.5854 913.206 96.068C912.94 98.462 912.586 100.945 912.142 103.516C911.788 106.087 911.344 108.659 910.812 111.23C910.369 113.713 909.881 115.885 909.349 117.747L907.354 124.929H919.856ZM907.088 68.537H921.452C922.871 68.537 923.935 68.8917 924.644 69.601C925.442 70.2217 926.019 71.197 926.373 72.527L950.446 154.987C950.801 156.228 950.757 157.204 950.313 157.913C949.87 158.622 948.939 158.977 947.52 158.977H932.757C931.339 158.977 930.275 158.622 929.565 157.913C928.945 157.204 928.457 156.228 928.102 154.987L924.644 142.219H902.566L899.108 154.987C898.754 156.228 898.222 157.204 897.512 157.913C896.892 158.622 895.872 158.977 894.453 158.977H881.02C879.602 158.977 878.671 158.622 878.227 157.913C877.784 157.204 877.74 156.228 878.094 154.987L902.167 72.527C902.522 71.197 903.054 70.2217 903.763 69.601C904.561 68.8917 905.67 68.537 907.088 68.537Z" fill="#102D69"/>
<path d="M376.231 195.033V252.993C376.231 253.791 376.047 254.373 375.679 254.741C375.372 255.109 374.82 255.293 374.023 255.293H366.387C365.589 255.293 365.007 255.109 364.639 254.741C364.332 254.373 364.179 253.791 364.179 252.993V217.941C363.749 219.659 363.289 221.284 362.799 222.817C362.308 224.351 361.879 225.547 361.511 226.405L354.519 243.517C354.212 244.253 353.813 244.836 353.323 245.265C352.893 245.633 352.28 245.817 351.483 245.817H344.951C344.153 245.817 343.509 245.603 343.019 245.173C342.589 244.744 342.252 244.192 342.007 243.517L334.187 225.025C333.941 224.351 333.604 223.4 333.175 222.173C332.807 220.885 332.439 219.536 332.071 218.125V252.993C332.071 253.791 331.887 254.373 331.519 254.741C331.212 255.109 330.66 255.293 329.863 255.293H322.595C321.797 255.293 321.215 255.109 320.847 254.741C320.54 254.373 320.387 253.791 320.387 252.993V195.033C320.387 194.236 320.54 193.653 320.847 193.285C321.215 192.917 321.797 192.733 322.595 192.733H329.863C330.476 192.733 330.905 192.856 331.151 193.101C331.457 193.285 331.703 193.592 331.887 194.021L345.963 226.129C346.331 226.927 346.699 227.908 347.067 229.073C347.496 230.239 347.895 231.404 348.263 232.569C348.631 231.465 349.029 230.331 349.459 229.165C349.888 228 350.287 227.019 350.655 226.221L364.271 193.837C364.455 193.408 364.7 193.132 365.007 193.009C365.375 192.825 365.835 192.733 366.387 192.733H374.023C374.82 192.733 375.372 192.917 375.679 193.285C376.047 193.653 376.231 194.236 376.231 195.033ZM401.171 195.125V238.825C401.171 241.095 402.061 242.812 403.839 243.977C405.618 245.143 408.01 245.725 411.015 245.725C414.143 245.725 416.597 245.143 418.375 243.977C420.154 242.812 421.043 241.095 421.043 238.825V195.125C421.043 194.328 421.197 193.745 421.503 193.377C421.871 192.948 422.454 192.733 423.251 192.733H431.255C432.053 192.733 432.605 192.948 432.911 193.377C433.279 193.745 433.463 194.328 433.463 195.125V241.033C433.463 244.897 431.777 248.363 428.403 251.429C425.091 254.496 419.295 256.029 411.015 256.029C402.797 256.029 397.031 254.496 393.719 251.429C390.407 248.363 388.751 244.897 388.751 241.033V195.125C388.751 194.328 388.905 193.745 389.211 193.377C389.579 192.948 390.162 192.733 390.959 192.733H398.963C399.761 192.733 400.313 192.948 400.619 193.377C400.987 193.745 401.171 194.328 401.171 195.125ZM460.154 176.357L462.454 180.589L464.754 176.357C465 175.867 465.368 175.376 465.858 174.885C466.41 174.395 467.085 174.149 467.882 174.149H473.77C474.568 174.149 475.058 174.364 475.242 174.793C475.488 175.223 475.396 175.744 474.966 176.357L468.25 185.465C467.76 186.079 467.238 186.631 466.686 187.121C466.134 187.551 465.46 187.765 464.662 187.765H460.246C459.449 187.765 458.774 187.52 458.222 187.029C457.67 186.539 457.149 185.987 456.658 185.373L449.942 176.357C449.513 175.744 449.39 175.223 449.574 174.793C449.82 174.364 450.341 174.149 451.138 174.149H457.026C457.824 174.149 458.468 174.395 458.958 174.885C459.51 175.376 459.909 175.867 460.154 176.357ZM446.17 192.733H478.922C479.72 192.733 480.302 192.917 480.67 193.285C481.1 193.592 481.314 194.144 481.314 194.941V200.553C481.314 200.983 481.253 201.351 481.13 201.657C481.008 201.964 480.885 202.24 480.762 202.485L457.21 244.989H480.578C481.376 244.989 481.958 245.173 482.326 245.541C482.694 245.848 482.878 246.4 482.878 247.197V252.993C482.878 253.791 482.694 254.373 482.326 254.741C481.958 255.109 481.376 255.293 480.578 255.293H444.606C443.809 255.293 443.226 255.109 442.858 254.741C442.49 254.373 442.306 253.791 442.306 252.993V247.197C442.306 246.829 442.337 246.523 442.398 246.277C442.521 246.032 442.613 245.817 442.674 245.633L466.318 203.037H446.17C445.373 203.037 444.79 202.853 444.422 202.485C444.054 202.117 443.87 201.535 443.87 200.737V194.941C443.87 194.144 444.054 193.592 444.422 193.285C444.79 192.917 445.373 192.733 446.17 192.733ZM523.921 179.761V182.429C523.921 184.331 523.093 186.017 521.437 187.489C519.781 188.9 517.174 189.605 513.617 189.605C510.06 189.605 507.453 188.9 505.797 187.489C504.141 186.017 503.313 184.331 503.313 182.429V179.761C503.313 177.86 504.141 176.204 505.797 174.793C507.453 173.321 510.06 172.585 513.617 172.585C517.174 172.585 519.781 173.321 521.437 174.793C523.093 176.204 523.921 177.86 523.921 179.761ZM517.297 181.601V180.497C517.297 179.516 516.96 178.811 516.285 178.381C515.672 177.952 514.782 177.737 513.617 177.737C512.452 177.737 511.532 177.952 510.857 178.381C510.244 178.811 509.937 179.516 509.937 180.497V181.601C509.937 182.583 510.244 183.319 510.857 183.809C511.532 184.239 512.452 184.453 513.617 184.453C514.782 184.453 515.672 184.239 516.285 183.809C516.96 183.319 517.297 182.583 517.297 181.601ZM503.773 195.125V238.825C503.773 241.095 504.662 242.812 506.441 243.977C508.22 245.143 510.612 245.725 513.617 245.725C516.745 245.725 519.198 245.143 520.977 243.977C522.756 242.812 523.645 241.095 523.645 238.825V195.125C523.645 194.328 523.798 193.745 524.105 193.377C524.473 192.948 525.056 192.733 525.853 192.733H533.857C534.654 192.733 535.206 192.948 535.513 193.377C535.881 193.745 536.065 194.328 536.065 195.125V241.033C536.065 244.897 534.378 248.363 531.005 251.429C527.693 254.496 521.897 256.029 513.617 256.029C505.398 256.029 499.633 254.496 496.321 251.429C493.009 248.363 491.353 244.897 491.353 241.033V195.125C491.353 194.328 491.506 193.745 491.813 193.377C492.181 192.948 492.764 192.733 493.561 192.733H501.565C502.362 192.733 502.914 192.948 503.221 193.377C503.589 193.745 503.773 194.328 503.773 195.125ZM588.487 255.293H580.483C579.686 255.293 579.072 255.109 578.643 254.741C578.214 254.373 577.876 253.791 577.631 252.993L560.427 195.033C560.182 194.297 560.182 193.745 560.427 193.377C560.734 192.948 561.286 192.733 562.083 192.733H570.915C571.712 192.733 572.295 192.948 572.663 193.377C573.031 193.745 573.338 194.297 573.583 195.033L582.507 226.313C582.936 227.847 583.335 229.84 583.703 232.293C584.132 234.747 584.47 237.2 584.715 239.653C584.96 237.384 585.298 234.992 585.727 232.477C586.218 229.963 586.678 227.939 587.107 226.405L596.123 195.033C596.368 194.297 596.675 193.745 597.043 193.377C597.411 192.948 597.994 192.733 598.791 192.733H606.887C607.684 192.733 608.206 192.948 608.451 193.377C608.758 193.745 608.788 194.297 608.543 195.033L591.339 252.993C591.094 253.791 590.756 254.373 590.327 254.741C589.898 255.109 589.284 255.293 588.487 255.293ZM650.834 255.293H618.45C617.653 255.293 617.07 255.109 616.702 254.741C616.396 254.312 616.242 253.699 616.242 252.901V195.125C616.242 194.328 616.396 193.745 616.702 193.377C617.07 192.948 617.653 192.733 618.45 192.733H649.914C650.712 192.733 651.294 192.917 651.662 193.285C652.03 193.592 652.214 194.144 652.214 194.941V200.737C652.214 201.535 652.03 202.117 651.662 202.485C651.294 202.853 650.712 203.037 649.914 203.037H628.662V217.941H648.35C649.148 217.941 649.73 218.125 650.098 218.493C650.528 218.8 650.742 219.352 650.742 220.149V225.669C650.742 226.467 650.528 227.049 650.098 227.417C649.73 227.724 649.148 227.877 648.35 227.877H628.662V244.989H650.834C651.632 244.989 652.214 245.173 652.582 245.541C652.95 245.848 653.134 246.4 653.134 247.197V252.993C653.134 253.791 652.95 254.373 652.582 254.741C652.214 255.109 651.632 255.293 650.834 255.293ZM683.317 192.733H716.989C717.787 192.733 718.369 192.917 718.737 193.285C719.105 193.592 719.289 194.144 719.289 194.941V200.737C719.289 201.535 719.105 202.117 718.737 202.485C718.369 202.853 717.787 203.037 716.989 203.037H693.529V217.941H715.425C716.223 217.941 716.805 218.125 717.173 218.493C717.541 218.8 717.725 219.352 717.725 220.149V226.037C717.725 226.835 717.541 227.417 717.173 227.785C716.805 228.153 716.223 228.337 715.425 228.337H693.529V252.901C693.529 253.699 693.345 254.312 692.977 254.741C692.671 255.109 692.119 255.293 691.321 255.293H683.317C682.52 255.293 681.937 255.109 681.569 254.741C681.263 254.312 681.109 253.699 681.109 252.901V195.125C681.109 194.328 681.263 193.745 681.569 193.377C681.937 192.948 682.52 192.733 683.317 192.733ZM741.326 195.125V244.989H761.842C762.64 244.989 763.222 245.173 763.59 245.541C763.958 245.848 764.142 246.4 764.142 247.197V252.993C764.142 253.791 763.958 254.373 763.59 254.741C763.222 255.109 762.64 255.293 761.842 255.293H730.838C730.164 255.293 729.673 255.109 729.366 254.741C729.06 254.312 728.906 253.699 728.906 252.901V195.125C728.906 194.328 729.06 193.745 729.366 193.377C729.734 192.948 730.317 192.733 731.114 192.733H739.118C739.916 192.733 740.468 192.948 740.774 193.377C741.142 193.745 741.326 194.328 741.326 195.125ZM769.672 241.033V206.993C769.672 203.129 771.328 199.664 774.64 196.597C777.952 193.531 783.748 191.997 792.028 191.997C800.308 191.997 806.104 193.531 809.416 196.597C812.728 199.664 814.384 203.129 814.384 206.993V241.033C814.384 244.897 812.728 248.363 809.416 251.429C806.104 254.496 800.308 256.029 792.028 256.029C783.748 256.029 777.952 254.496 774.64 251.429C771.328 248.363 769.672 244.897 769.672 241.033ZM801.964 238.825V209.201C801.964 206.932 801.074 205.215 799.296 204.049C797.517 202.884 795.094 202.301 792.028 202.301C788.961 202.301 786.538 202.884 784.76 204.049C783.042 205.215 782.184 206.932 782.184 209.201V238.825C782.184 241.095 783.042 242.812 784.76 243.977C786.538 245.143 788.961 245.725 792.028 245.725C795.094 245.725 797.517 245.143 799.296 243.977C801.074 242.812 801.964 241.095 801.964 238.825ZM847.915 203.037H838.807V221.161H847.915C850.981 221.161 853.404 220.579 855.183 219.413C856.961 218.248 857.851 216.531 857.851 214.261V209.937C857.851 207.668 856.961 205.951 855.183 204.785C853.404 203.62 850.981 203.037 847.915 203.037ZM836.599 255.293H828.595C827.797 255.293 827.215 255.109 826.847 254.741C826.54 254.312 826.387 253.699 826.387 252.901V195.125C826.387 194.328 826.54 193.745 826.847 193.377C827.215 192.948 827.797 192.733 828.595 192.733H847.915C856.195 192.733 861.96 194.267 865.211 197.333C868.523 200.4 870.179 203.865 870.179 207.729V216.469C870.179 219.168 869.412 221.713 867.879 224.105C866.345 226.497 863.769 228.337 860.151 229.625L869.995 252.901C870.301 253.637 870.209 254.22 869.719 254.649C869.289 255.079 868.676 255.293 867.879 255.293H859.231C858.495 255.293 857.943 255.079 857.575 254.649C857.268 254.22 856.961 253.637 856.655 252.901L847.731 231.465H838.807V252.901C838.807 253.699 838.623 254.312 838.255 254.741C837.948 255.109 837.396 255.293 836.599 255.293ZM902.908 255.293H883.22C882.422 255.293 881.84 255.109 881.472 254.741C881.165 254.312 881.012 253.699 881.012 252.901V195.125C881.012 194.328 881.165 193.745 881.472 193.377C881.84 192.948 882.422 192.733 883.22 192.733H900.056C908.336 192.733 914.101 194.083 917.352 196.781C920.664 199.48 922.32 202.761 922.32 206.625V212.053C922.32 214.323 921.768 216.347 920.664 218.125C919.56 219.843 917.812 221.253 915.42 222.357C918.548 223.461 920.94 224.964 922.596 226.865C924.313 228.767 925.172 230.975 925.172 233.489V240.757C925.172 244.621 923.516 248.025 920.204 250.969C916.953 253.852 911.188 255.293 902.908 255.293ZM900.056 202.669H893.432V218.677H900.332C903.276 218.677 905.606 218.125 907.324 217.021C909.102 215.856 909.992 214.108 909.992 211.777V208.557C909.992 206.288 909.102 204.755 907.324 203.957C905.545 203.099 903.122 202.669 900.056 202.669ZM902.908 228.061H893.432V245.357H902.908C905.974 245.357 908.397 244.805 910.176 243.701C912.016 242.536 912.936 240.819 912.936 238.549V234.409C912.936 232.447 912.016 230.913 910.176 229.809C908.397 228.644 905.974 228.061 902.908 228.061ZM959.037 231.925L956.001 221.713C955.633 220.425 955.296 218.923 954.989 217.205C954.682 215.488 954.406 213.801 954.161 212.145C953.916 210.489 953.732 209.017 953.609 207.729C953.486 206.38 953.394 205.429 953.333 204.877C953.272 205.491 953.149 206.503 952.965 207.913C952.781 209.324 952.566 210.857 952.321 212.513C952.076 214.169 951.8 215.825 951.493 217.481C951.186 219.137 950.849 220.517 950.481 221.621L947.353 231.925H959.037ZM949.561 192.733H957.565C958.362 192.733 958.976 192.917 959.405 193.285C959.834 193.653 960.172 194.236 960.417 195.033L977.621 252.993C977.866 253.729 977.836 254.312 977.529 254.741C977.284 255.109 976.762 255.293 975.965 255.293H967.685C966.888 255.293 966.305 255.109 965.937 254.741C965.569 254.312 965.262 253.729 965.017 252.993L961.705 241.769H944.593L941.373 252.993C941.128 253.729 940.821 254.312 940.453 254.741C940.085 255.109 939.502 255.293 938.705 255.293H931.161C930.364 255.293 929.812 255.109 929.505 254.741C929.26 254.312 929.26 253.729 929.505 252.993L946.709 195.033C946.954 194.236 947.292 193.653 947.721 193.285C948.15 192.917 948.764 192.733 949.561 192.733ZM997.74 195.125V244.989H1018.26C1019.05 244.989 1019.64 245.173 1020 245.541C1020.37 245.848 1020.56 246.4 1020.56 247.197V252.993C1020.56 253.791 1020.37 254.373 1020 254.741C1019.64 255.109 1019.05 255.293 1018.26 255.293H987.252C986.578 255.293 986.087 255.109 985.78 254.741C985.474 254.312 985.32 253.699 985.32 252.901V195.125C985.32 194.328 985.474 193.745 985.78 193.377C986.148 192.948 986.731 192.733 987.528 192.733H995.532C996.33 192.733 996.882 192.948 997.188 193.377C997.556 193.745 997.74 194.328 997.74 195.125ZM1062.68 255.293H1030.29C1029.5 255.293 1028.91 255.109 1028.55 254.741C1028.24 254.312 1028.09 253.699 1028.09 252.901V195.125C1028.09 194.328 1028.24 193.745 1028.55 193.377C1028.91 192.948 1029.5 192.733 1030.29 192.733H1061.76C1062.56 192.733 1063.14 192.917 1063.51 193.285C1063.87 193.592 1064.06 194.144 1064.06 194.941V200.737C1064.06 201.535 1063.87 202.117 1063.51 202.485C1063.14 202.853 1062.56 203.037 1061.76 203.037H1040.51V217.941H1060.19C1060.99 217.941 1061.57 218.125 1061.94 218.493C1062.37 218.8 1062.59 219.352 1062.59 220.149V225.669C1062.59 226.467 1062.37 227.049 1061.94 227.417C1061.57 227.724 1060.99 227.877 1060.19 227.877H1040.51V244.989H1062.68C1063.48 244.989 1064.06 245.173 1064.43 245.541C1064.79 245.848 1064.98 246.4 1064.98 247.197V252.993C1064.98 253.791 1064.79 254.373 1064.43 254.741C1064.06 255.109 1063.48 255.293 1062.68 255.293Z" fill="#102D69"/>
</g>
<defs>
<clipPath id="clip0_516_470">
<rect width="1156" height="327" fill="white" transform="translate(0.570312 0.194824)"/>
</clipPath>
</defs>
</svg>
