<?xml version="1.0" encoding="UTF-8" standalone="no"?><!DOCTYPE svg PUBLIC "-//W3C//DTD SVG 1.1//EN" "http://www.w3.org/Graphics/SVG/1.1/DTD/svg11.dtd"><svg width="100%" height="100%" viewBox="0 0 172 144" version="1.1" xmlns="http://www.w3.org/2000/svg" xmlns:xlink="http://www.w3.org/1999/xlink" xml:space="preserve" xmlns:serif="http://www.serif.com/" style="fill-rule:evenodd;clip-rule:evenodd;stroke-linejoin:round;stroke-miterlimit:1.41421;"><g><path d="M125.779,127.277l-80.583,0l-17.779,-80.585l34.135,30.305l24.066,-30.349l23.463,30.263l34.736,-30.219l-18.038,80.585Z" style="fill:#50a2d5;fill-rule:nonzero;"/><path d="M0,0l31.765,143.989l107.402,0l32.078,-143.309l-59.792,52.013l-25.686,-33.139l-26.333,33.211l-59.434,-52.765Zm85.467,73.739l21.238,27.394l9.685,-8.427l-3.998,17.856l-53.765,0l-3.789,-17.176l8.834,7.843l21.795,-27.49Z" style="fill-rule:nonzero;"/><path d="M125.779,127.277l-80.583,0l-17.779,-80.585l34.135,30.305l24.066,-30.349l23.463,30.263l34.736,-30.219l-18.038,80.585Z" style="fill:#3291cb;fill-rule:nonzero;"/><path d="M105.754,122.501l-56.725,0l-13.779,-62.467l70.504,62.467Z" style="fill:#2fa6da;fill-rule:nonzero;"/><path d="M49.031,122.501l72.925,0l14.022,-62.663l-27.582,23.994l-22.821,-29.445l-23.415,29.535l-26.909,-23.888l13.78,62.467Zm80.576,9.551l-88.249,0l-21.774,-98.699l41.365,36.722l24.712,-31.169l24.096,31.085l41.896,-36.445l-22.046,98.506Z" style="fill:#fff;fill-rule:nonzero;"/><path d="M85.617,54.425l-0.006,0.008l13.847,17.86l-13.841,-17.868Z" style="fill:#c8cce5;fill-rule:nonzero;"/></g></svg>