<svg xmlns="http://www.w3.org/2000/svg" viewBox="0 0 165.48 250"><defs><style>.cls-1{fill:#1d1d1b;}</style></defs><title>logo_black</title><g id="Vrstva_2" data-name="Vrstva 2"><g id="Vrstva_1-2" data-name="Vrstva 1"><path class="cls-1" d="M82.74,0C37.05,0,0,56,0,125S37.05,250,82.74,250s82.74-56,82.74-125S128.43,0,82.74,0Zm0,224.37c-37.26,0-67.47-48.47-67.47-108.28S45.48,7.81,82.74,7.81s67.47,48.49,67.47,108.28S120,224.37,82.74,224.37Z"/><path class="cls-1" d="M108,57.57a175.54,175.54,0,0,0-19.86-1.7q0-5.55-.1-10.91-.06-5.57-.12-10.88c0-3.19-.09-6.3-.13-9.32,0-2.67-.09-5.26-.13-7.77,0-1.53-.06-3-.09-4.49A43.44,43.44,0,0,1,106.48,20c0,1.11.11,2.23.17,3.36.11,2.13.21,4.29.31,6.46q.18,4.05.35,8.17c.12,3.14.24,6.32.35,9.52S107.88,54.17,108,57.57Z"/><path class="cls-1" d="M77.62,12.5c0,1.48-.05,3-.08,4.52q-.08,3.77-.13,7.76-.07,4.53-.13,9.33c0,3.53-.09,7.16-.13,10.87s-.07,7.2-.1,10.9a173.35,173.35,0,0,0-19.86,1.74c.1-3.4.2-6.76.31-10.1s.23-6.35.35-9.47q.16-4.11.35-8.14c.1-2.15.2-4.3.31-6.42l.18-3.55A43.55,43.55,0,0,1,77.62,12.5Z"/><path class="cls-1" d="M88.32,110.47c0-4.69,0-9.38,0-14q10.41,0,20.34.29,0,6.86,0,13.75Z"/><path class="cls-1" d="M119.14,110.47c0-27.43-1-54.82-3.08-82.32,7.12,7.48,13.22,17.27,17.87,28.73h0a525,525,0,0,1,2.71,53.59Z"/><path class="cls-1" d="M46.33,110.47H28.83a530,530,0,0,1,2.81-54.59C36.32,44.68,42.38,35.1,49.45,27.8Q46.33,69.23,46.33,110.47Z"/><path class="cls-1" d="M76.84,110.47H56.48q0-6.87,0-13.75c6.6-.16,13.4-.26,20.34-.29Q76.85,103.43,76.84,110.47Z"/><path class="cls-1" d="M56.57,91.47q.15-14.37.49-28.73,7.23-.89,14.53-1.26c0,2.35,0,3.54,0,5.92-3.44.15-5.14.26-8.49.52C63,70,63,71,63,73.08c3.09-.2,4.66-.29,7.83-.42,0,2.37,0,3.55,0,5.93-3.18.1-4.75.17-7.86.34q-.07,6.16-.11,12.34C60.28,91.34,59,91.38,56.57,91.47Z"/><path class="cls-1" d="M72.77,91.07q0-14.83.16-29.66c3.29-.15,4.93-.19,8.17-.22C85.92,61,89.67,64,89.6,69c0,2.55-.87,4.91-3,6.2v.08c2.86,1.86,3.47,3.55,3.54,7.17.09,5-3.13,8.71-8.29,8.57Q77.28,91,72.77,91.07Zm6.46-18.15c2.75-.23,4.06,0,4.06-3.55,0-2.92-1.84-2.83-4.05-2.8C79.24,69.12,79.23,70.38,79.23,72.92Zm0,12.72c3.17-.1,4.52.15,4.51-3.86,0-3.45-1.81-3.4-4.5-3.49C79.21,81.24,79.21,82.7,79.21,85.64Z"/><path class="cls-1" d="M102.07,72.24c0-.75,0-1.12,0-1.86,0-2.48-.88-3.84-2-3.93-1.93-.16-2.41,1-2.38,2.9q0,7.29.08,14.57c0,1.65.64,2.65,2.29,2.7,2.15.07,2.3-2.33,2.29-4.12,0-1.06,0-1.59,0-2.65,2.5.13,3.74.2,6.19.37l.05,3.53c.21,5.33-4,8.25-8.94,8.15-5.49-.11-8.34-4.37-8.22-9.6q0-6.1-.06-12.2c-.2-5.28,2.8-9.44,8.36-8.95,5,.45,8.55,4,8.53,9.17l0,2.41C105.79,72.51,104.56,72.41,102.07,72.24Z"/><path class="cls-1" d="M135.77,140.92q-.18,3.22-.41,6.47-.21,3.06-.47,6.11c-.09,1.21-.19,2.41-.3,3.61-.21,2.32-.42,4.64-.66,7l-.06.14h0q-1.1,2.67-2.27,5.2h0c-1.06,2.28-2.18,4.47-3.36,6.59s-2.57,4.4-3.95,6.45h0a76.58,76.58,0,0,1-8.22,10.33l.15-2h0c.12-1.65.24-3.3.35-5q.24-3.45.45-6.88c.17-2.68.33-5.37.47-8.05q.25-4.65.48-9.3c.06-1.4.13-2.81.18-4.21.1-2.36.2-4.72.28-7.07s.17-4.82.24-7.23C124.59,142.52,130.31,141.78,135.77,140.92Z"/><path class="cls-1" d="M49.45,193.15a78,78,0,0,1-9.91-12.77h0c-1-1.65-2.05-3.37-3-5.13h0q-1.65-3-3.13-6.21h0c-.59-1.28-1.17-2.59-1.72-3.93,0-.29-.07-.59-.09-.88h0q-.36-3.54-.68-7.08c-.1-1.2-.21-2.4-.3-3.61q-.25-3-.46-6.11-.23-3.24-.42-6.47c5.46.86,11.18,1.6,17.12,2.19q.1,3.62.24,7.23t.28,7.07c.06,1.4.13,2.81.19,4.21.15,3.1.3,6.2.48,9.3q.21,4,.47,8.05.21,3.43.45,6.87c.11,1.65.23,3.3.35,4.95C49.33,191.58,49.39,192.37,49.45,193.15Z"/><path class="cls-1" d="M43.3,130.8c.34,4.41-2.66,7.47-7.2,6.95-5.71-.64-6.88-3.55-6.92-8-.12-3.42-.17-5.13-.24-8.56-.23-4.14,3.42-6.24,7.1-6.21,3.92,0,7.23,2.57,7.13,6.75Q43.22,126.25,43.3,130.8Zm-5.4-8.93c0-1.35-.13-3-1.88-3s-1.88,1.53-1.87,2.85c0,3,.1,5.91.17,8.87,0,1.23.29,3.1,2,3.25s1.76-1.71,1.73-3C38,127.87,37.92,124.87,37.9,121.87Z"/><path class="cls-1" d="M49.71,130.8c0,.64,0,1,0,1.61,0,1.31.46,2.49,2.13,2.59,1.22.07,1.74-1,1.72-2.21,0-1.93-1.6-2.74-3-3.66a16.11,16.11,0,0,1-4-3.14,7.18,7.18,0,0,1-1.6-4.57c-.1-3.84,2.92-6.38,6.6-6.35,4.22,0,7,3.46,6.7,7.59l-4.84-.11c-.07-1.35,0-3.18-1.76-3.35a1.54,1.54,0,0,0-1.81,1.5c-.15,1.36.55,2.08,1.6,2.84a40.26,40.26,0,0,1,5,3.41c1.25,1.22,1.88,2.85,2,5.62.13,4-2.61,6.83-6.6,6.55-3.35-.24-6.84-2.49-6.94-6.19l0-2.4C46.82,130.65,47.77,130.7,49.71,130.8Z"/><path class="cls-1" d="M59.71,115.67q6.85,0,13.7,0v4.76l-4.3,0q0,9.48.07,19c-2.11-.06-3.15-.1-5.23-.18q-.11-9.41-.13-18.82l-4.1-.05C59.71,118.48,59.71,117.54,59.71,115.67Z"/><path class="cls-1" d="M80.38,139.58c-2.1,0-3.13,0-5.27-.05q0-11.9,0-23.8H82.8c4.07-.21,6.59,2.6,6.48,6.57-.06,2.47-.58,4.35-2.79,5.44v.07a3.23,3.23,0,0,1,2.61,3.06c.12,1.89.16,6,.46,7.52a2,2,0,0,0,.52.82v.32l-5.74.05a5.33,5.33,0,0,1-.3-1.37c-.09-2.1,0-4.07-.11-5.53s-.57-2.41-1.8-2.51H80.37C80.37,133.31,80.38,136.45,80.38,139.58Zm0-13.7h1.8c1.53,0,1.89-1.49,1.89-2.95,0-2.84-1.12-3-3.7-2.9C80.36,122.37,80.36,123.54,80.37,125.88Z"/><path class="cls-1" d="M91.17,139.52q2.52-11.9,5-23.81l6.36,0q2.4,11.61,4.62,23.27c-2.07.11-3.11.16-5.21.24-.27-1.82-.4-2.73-.68-4.55l-4.12.12c-.26,1.85-.39,2.77-.66,4.62C94.38,139.45,93.31,139.48,91.17,139.52ZM99.37,120h-.06l-1.56,10.61,3-.07C100.33,127,99.85,123.5,99.37,120Z"/><path class="cls-1" d="M110.54,138.77q-2.27-11.57-4.61-23.1l5.25,0q1.32,8,2.56,16.08h.06q1.44-8.06,2.83-16.12l5.3,0c-1.7,7.61-3.48,15.21-5.25,22.8C114.25,138.54,113,138.62,110.54,138.77Z"/><path class="cls-1" d="M120.11,138.08q2.76-11.25,5.28-22.56l6.37-.07c1.54,7,3,14,4.25,21-2,.26-3,.38-5.12.61-.23-1.64-.35-2.47-.59-4.13-1.63.15-2.45.22-4.1.35-.29,1.74-.44,2.61-.74,4.35C123.35,137.81,122.28,137.9,120.11,138.08Zm8.44-18.64h-.06c-.53,3.3-1.08,6.59-1.64,9.89l3-.21Q129.26,124.29,128.55,119.44Z"/><path class="cls-1" d="M107,189.4c0,.59-.05,1.19-.08,1.78l0,.4c-.09,2-.19,4-.29,6v0c-.05,1-.1,1.9-.15,2.83,0,.18,0,.36,0,.53q-.45.31-.9.6h0l-.73.47,0,0-.43.27-.3.18-.4.24-.76.43-.11.06.35-7.65,0-.62h0l.07-1.55h0c-8.72-1-13.86-1.84-20.68-3-6.82,1.16-12,2-20.69,3L62,195h0l0,.62.35,7.65-.1-.06c-.25-.14-.5-.28-.74-.43l-.08,0-.91-.56-.91-.57-.9-.6c-.06-1.12-.11-2.25-.17-3.39v-.15h0c0-.53,0-1.06-.08-1.59s0-1.07-.08-1.61l-.12-2.68c0-.73-.07-1.46-.1-2.18,8.72-1,17.62-2.14,24.44-3.3,6.81,1.16,15.71,2.33,24.42,3.29H107Z"/><path class="cls-1" d="M69.66,198.68l-2.45-.18-.1-1.78c1.31.12,2.91-.16,3.15-1.52l1.83.11q.21,5.67.41,11.34L70,206.5Z"/><path class="cls-1" d="M77.28,204.13c0,.6.18,1.07.89,1.09,1,0,.85-1.31.84-2v-.77a2.41,2.41,0,0,1-1.8.52c-2.16-.06-2.69-1.82-2.74-3.57-.07-2.61.61-4.21,3.63-4.13,2.74.06,3.54,1.81,3.55,4.12,0,1.23,0,1.84,0,3.06,0,2.41-.3,4.74-3.24,4.68-2.22-.06-3.51-.78-3.65-3.12C75.77,204.09,76.28,204.1,77.28,204.13Zm-.14-4.88c0,.71,0,1.82,1,1.85S79,200,79,199.37s.17-2.12-1-2.15S77.13,198.63,77.14,199.25Z"/><path class="cls-1" d="M85.63,204.19c0,.61.15,1.07.86,1.05,1,0,.88-1.34.89-2v-.78a2.57,2.57,0,0,1-1.82.61c-2.16,0-2.63-1.71-2.63-3.46,0-2.61.73-4.24,3.75-4.29,2.74,0,3.49,1.66,3.44,4,0,1.22,0,1.83-.08,3-.06,2.41-.43,4.76-3.37,4.82-2.22,0-3.49-.63-3.57-3C84.12,204.21,84.62,204.21,85.63,204.19Zm0-4.87c0,.71-.1,1.82.92,1.8s.9-1.11.91-1.76.22-2.13-.89-2.11S85.63,198.7,85.63,199.32Z"/><path class="cls-1" d="M93.55,199.82a3.35,3.35,0,0,0,1.67-.4,1.89,1.89,0,0,0,.56-1.33c0-.67-.14-1.18-.9-1.13-.94,0-.88,1.11-.93,1.73l-2.58.13c0-.34,0-.51,0-.85.12-1.74,1.92-2.88,3.62-3,2.08-.13,3.43.63,3.32,2.75a3,3,0,0,1-1.74,2.7v0c1.45.25,1.81,1.48,1.75,2.72-.13,2.33-1.53,3.53-3.81,3.67s-3.24-1-3.31-3c0-.32,0-.47,0-.79,1,0,1.51-.06,2.51-.12,0,.77-.19,2.08.93,2,.85,0,1-.88,1-1.54s0-1.32-.53-1.59a4,4,0,0,0-1.69-.11Z"/><path class="cls-1" d="M77.22,181.74c-6.82,1.16-10.58,1.64-19.3,2.6,0-.47,0-1-.06-1.44-.13-3.13-.24-6.28-.35-9.47-.12-3.34-.22-6.71-.32-10.1,0-1.47-.07-3-.11-4.44-.06-2.46-.12-4.94-.17-7.42s-.1-5-.15-7.52c6.53.46,13.27.75,20.17.86,0,2.62,0,5.21,0,7.79s0,5.22,0,7.8c0,1.57,0,3.12,0,4.67q0,5.55.1,10.91Q77.19,178.89,77.22,181.74Z"/><path class="cls-1" d="M88,181.7c6.82,1.16,10.58,1.64,19.31,2.6l.06-1.44q.18-4.7.35-9.47.17-5,.31-10.1c0-1.47.08-2.95.11-4.44.07-2.46.12-4.94.18-7.42s.1-5,.14-7.52q-9.8.69-20.17.86,0,3.91,0,7.79t0,7.8l0,4.67c0,3.7-.07,7.34-.1,10.9C88,177.88,88,179.8,88,181.7Z"/></g></g></svg>