<svg width="782" height="327" viewBox="0 0 782 327" fill="none" xmlns="http://www.w3.org/2000/svg">
<g clip-path="url(#clip0_100_212)">
<path d="M360.742 48.4648L362.183 45.1034C362.904 43.422 364.585 41.6196 367.108 41.6196H376.473C378.993 41.6196 379.834 43.1814 378.393 45.1034L369.868 56.1485C368.308 58.1886 366.746 59.7504 364.226 59.7504H357.262C354.74 59.7504 353.18 58.1886 351.618 56.1485L343.094 45.1034C341.654 43.1814 342.494 41.6196 345.016 41.6196H354.381C356.901 41.6196 358.581 43.4206 359.302 45.1034L360.742 48.4648ZM391.239 127.466C391.239 137.79 384.275 147.997 361.703 147.997C339.132 147.997 332.167 137.79 332.167 127.466V84.9626C332.167 74.638 339.132 64.4315 361.703 64.4315C384.275 64.4315 391.239 74.638 391.239 84.9626V90.4866C391.239 93.0079 390.4 94.0885 387.877 94.0885H375.512C372.991 94.0885 372.03 93.0079 372.03 90.4866V88.4435C372.03 82.921 367.828 80.6417 361.944 80.6417C356.061 80.6417 351.98 82.921 351.98 88.4435V123.983C351.98 129.506 356.061 131.788 361.944 131.788C367.828 131.788 372.03 129.506 372.03 123.983V120.141C372.03 117.619 372.989 116.539 375.512 116.539H387.877C390.398 116.539 391.239 117.619 391.239 120.141V127.466ZM406.127 147.036C403.606 147.036 402.646 145.955 402.646 143.434V68.9945C402.646 66.4731 403.606 65.3925 406.127 65.3925H447.188C449.709 65.3925 450.79 66.2339 450.79 68.7538V78.1189C450.79 80.6403 449.709 81.6013 447.188 81.6013H422.455V97.2092H445.267C447.789 97.2092 448.869 98.0492 448.869 100.572V109.335C448.869 111.856 447.789 112.817 445.267 112.817H422.455V130.827H448.389C450.911 130.827 451.991 131.667 451.991 134.188V143.553C451.991 146.075 450.911 147.036 448.389 147.036H406.127M500.857 87.6036C500.857 82.0825 497.014 80.0395 491.492 80.0395C485.969 80.0395 482.006 82.0825 482.006 87.6036V88.8052C482.006 92.0469 484.527 93.4877 485.848 93.9675L506.019 100.811C514.903 103.812 521.026 110.055 521.026 118.941V127.466C521.026 137.79 513.701 147.997 491.13 147.997C468.559 147.997 460.996 137.79 460.996 127.466V119.42C460.996 116.899 461.956 115.818 464.477 115.818H476.963C479.484 115.818 480.324 116.899 480.324 119.42V124.823C480.324 130.347 485.007 132.387 490.89 132.387C496.774 132.387 501.577 130.347 501.577 124.823V122.423C501.577 118.101 495.814 116.059 491.251 114.378L473.962 107.894C467.839 105.615 462.796 98.8906 462.796 91.9273V84.9626C462.796 74.6365 469.039 64.4315 491.251 64.4315C513.462 64.4315 520.185 74.6365 520.185 84.9626V89.4031C520.185 91.9245 519.225 93.0051 516.704 93.0051H504.218C501.697 93.0051 500.857 91.9245 500.857 89.4031V87.6021M595.944 143.432C597.144 145.233 596.664 147.034 594.142 147.034H577.573C575.053 147.034 573.732 145.233 572.53 143.432L553.562 114.019H552.242V143.434C552.242 145.955 551.401 147.036 548.881 147.036H535.914C533.393 147.036 532.432 145.955 532.432 143.434V68.9945C532.432 66.4731 533.391 65.3925 535.914 65.3925H548.881C551.402 65.3925 552.242 66.4731 552.242 68.9945V99.611H553.443L571.812 68.9945C573.013 67.0739 574.933 65.3925 577.456 65.3925H591.262C593.783 65.3925 594.143 67.0739 592.943 68.9945L570.13 105.494L595.944 143.434M641.684 57.3486C640.964 58.4292 639.523 59.7504 637.002 59.7504H627.517C625.356 59.7504 624.516 58.7894 625.595 56.268L630.399 45.2216C631.358 43.0604 632.799 41.6196 635.322 41.6196H648.168C650.689 41.6196 651.41 43.1814 649.969 45.2216L641.684 57.3486ZM629.678 92.8869C630.638 95.6474 631.599 99.611 631.72 100.091C631.84 99.611 633.04 95.2887 634.122 92.8869L644.207 68.9945C645.046 66.9543 645.887 65.3925 648.407 65.3925H661.135C663.656 65.3925 664.857 66.7137 663.776 68.9945L641.684 116.779V143.434C641.684 145.955 640.845 147.036 638.323 147.036H625.356C622.835 147.036 621.875 145.955 621.875 143.434V119.18L599.663 68.9945C598.702 66.8333 599.663 65.3925 602.184 65.3925H616.832C619.354 65.3925 620.434 66.8333 621.155 68.9945L629.678 92.8869M383.075 183.104V192.469C383.075 194.991 381.994 195.95 379.473 195.95H351.98V211.558H377.552C380.073 211.558 381.154 212.4 381.154 214.921V224.286C381.154 226.807 380.073 227.768 377.552 227.768H351.978V257.784C351.978 260.304 351.138 261.386 348.618 261.386H335.651C333.13 261.386 332.169 260.304 332.169 257.784V183.345C332.169 180.823 333.128 179.743 335.651 179.743H379.473C381.994 179.743 383.075 180.583 383.075 183.104M413.691 245.176H437.223C439.745 245.176 440.825 246.017 440.825 248.537V257.902C440.825 260.424 439.745 261.385 437.223 261.385H396.882C394.72 261.385 393.88 260.185 393.88 257.783V183.345C393.88 180.823 394.84 179.743 397.363 179.743H410.33C412.851 179.743 413.691 180.823 413.691 183.345V245.176ZM489.808 202.795C489.808 197.273 484.765 194.991 478.882 194.991C472.999 194.991 468.076 197.273 468.076 202.795V238.334C468.076 243.856 472.999 246.137 478.882 246.137C484.766 246.137 489.809 243.856 489.809 238.334L489.808 202.795ZM448.267 199.313C448.267 188.987 456.311 178.782 478.882 178.782C501.453 178.782 509.618 188.987 509.618 199.313V241.815C509.618 252.139 501.453 262.346 478.882 262.346C456.311 262.346 448.267 252.139 448.267 241.815V199.312M542.637 195.95V215.041H552.241C558.124 215.041 563.166 212.76 563.166 207.237V203.755C563.166 198.232 558.124 195.95 552.241 195.95H542.637ZM570.251 228.248L582.016 257.784C582.856 259.945 581.296 261.386 578.655 261.386H565.688C563.405 261.386 562.926 259.464 562.205 257.784L551.64 231.249H542.635V257.784C542.635 260.304 541.795 261.386 539.274 261.386H526.307C523.785 261.386 522.824 260.304 522.824 257.784V183.345C522.824 180.823 523.785 179.743 526.308 179.743H552.242C574.812 179.743 582.736 189.948 582.736 200.274V210.72C582.736 217.562 579.254 224.407 570.251 228.248ZM615.151 227.287V245.777H625.356C631.24 245.777 636.283 243.616 636.283 238.093V234.252C636.283 229.689 631.24 227.287 625.356 227.287H615.151ZM615.151 195.351V212.64H621.395C627.277 212.64 632.319 210.358 632.319 204.716V201.595C632.319 196.071 627.277 195.351 621.395 195.351H615.151ZM598.823 261.385C596.301 261.385 595.34 260.304 595.34 257.783V183.345C595.34 180.823 596.301 179.743 598.823 179.743H621.395C643.967 179.743 651.891 188.147 651.891 198.473V205.076C651.891 210.839 649.128 215.281 643.726 218.403C651.171 221.404 655.852 226.447 655.852 232.811V241.695C655.852 252.021 647.927 261.385 625.356 261.385H598.823ZM696.796 224.166C694.875 216.842 693.194 200.154 693.073 199.072C692.832 200.754 690.912 217.203 688.991 224.166L687.19 230.65H698.477L696.796 224.166ZM704.36 183.345L726.091 257.784C726.812 260.064 725.97 261.386 723.449 261.386H710.122C707.6 261.386 706.52 260.064 705.92 257.784L702.798 246.258H682.868L679.747 257.784C679.146 260.064 678.066 261.386 675.544 261.386H663.419C660.897 261.386 660.057 260.064 660.778 257.784L682.508 183.345C683.228 180.943 684.428 179.743 686.951 179.743H699.918C702.438 179.743 703.638 180.943 704.358 183.345M754.424 245.176H777.956C780.476 245.176 781.558 246.017 781.558 248.537V257.902C781.558 260.424 780.476 261.385 777.956 261.385H737.614C735.453 261.385 734.612 260.185 734.612 257.783V183.345C734.612 180.823 735.573 179.743 738.096 179.743H751.063C753.583 179.743 754.424 180.823 754.424 183.345V245.176" fill="#0E2855"/>
<mask id="mask0_100_212" style="mask-type:luminance" maskUnits="userSpaceOnUse" x="0" y="0" width="300" height="327">
<path d="M0.000770569 0.00942993V326.73H299.494V0.00942993H0.000770569Z" fill="white"/>
</mask>
<g mask="url(#mask0_100_212)">
<path d="M149.694 326.73C146.19 326.73 142.797 326.002 139.612 324.566C33.9012 277.272 -18.5728 164.652 5.96346 37.6667C7.69831 28.7725 14.1479 21.6129 22.8111 18.9677C63.7252 6.39865 106.434 0.0209656 149.724 0.00942993C193.073 0.0209656 235.783 6.39865 276.723 18.9716C285.364 21.6129 291.822 28.7763 293.543 37.6532C318.059 164.512 265.543 277.132 159.757 324.576C156.575 326.003 153.191 326.73 149.694 326.73Z" fill="white"/>
<path d="M280.142 40.2446C279.381 36.3431 276.519 33.1542 272.689 31.9843C232.817 19.7342 191.284 13.6312 149.801 13.6216H149.743C108.26 13.6312 66.7266 19.7342 26.8557 31.9843C23.0241 33.1542 20.1614 36.3431 19.4028 40.2446C-4.36045 163.283 47.2879 268.32 145.228 312.159C148.081 313.442 151.356 313.434 154.199 312.159C249.216 269.515 304.623 167.011 280.142 40.2446ZM91.2877 32.0324C110.688 29.3296 129.909 27.8523 149.743 27.8619H149.801C169.634 27.8523 188.853 29.3296 208.257 32.0324C208.65 32.0881 208.948 32.4223 208.958 32.8104C208.958 33.2099 208.677 33.5557 208.284 33.623C194.329 36.0299 172.112 41.5893 155.266 48.3973C153.49 49.1196 151.614 49.5672 149.771 49.6056C147.929 49.5672 146.055 49.1196 144.279 48.3973C127.429 41.5893 105.214 36.0299 91.2577 33.623C90.8637 33.5557 90.5861 33.2099 90.5861 32.8104C90.595 32.4223 90.8937 32.0881 91.2877 32.0324ZM200.064 143.756C200.342 144.469 200.217 145.279 199.737 145.88C199.247 146.478 198.479 146.765 197.71 146.639C187.107 144.859 173.18 143.536 156.716 142.983C155.284 142.938 154.151 141.775 154.142 140.357C154.075 113.367 154.046 102.896 154.035 98.8522C154.035 97.4498 155.13 96.3011 156.544 96.2146C162.662 95.8516 171.491 94.8623 176.332 94.2034C176.947 94.1284 177.572 94.3013 178.043 94.6913C178.523 95.0813 178.82 95.6537 178.859 96.2607C179.826 112.142 195.586 132.648 200.064 143.756ZM189.296 93.9191C190.24 92.518 191.701 91.5493 193.359 91.2258C199.065 90.1136 206.547 88.7016 211.09 88.1599C211.359 88.133 211.628 88.2444 211.801 88.4557C211.964 88.6747 212.012 88.959 211.916 89.2165C208.043 99.1461 198.661 103.755 192.658 106.715C192.475 106.803 192.276 106.854 192.073 106.864C191.87 106.874 191.667 106.843 191.476 106.772C191.091 106.628 190.795 106.323 190.641 105.95C189.757 103.772 188.912 101.192 188.373 98.6793C188.028 97.0311 188.365 95.3175 189.296 93.9191ZM152.131 173.19C150.597 173.707 148.936 173.706 147.402 173.188C137.735 169.926 127.606 160.604 123.211 154.922C122.924 154.559 122.858 154.074 123.03 153.635C123.193 153.207 123.578 152.894 124.037 152.817C134.24 151.027 143.95 151.676 149.742 151.676H149.801C155.591 151.676 165.302 151.027 175.504 152.817C175.964 152.894 176.349 153.207 176.511 153.635C176.684 154.074 176.618 154.559 176.33 154.922C171.933 160.606 161.802 169.933 152.131 173.19ZM120.685 96.2607C120.722 95.6537 121.021 95.0813 121.501 94.6913C121.971 94.3013 122.595 94.1284 123.211 94.2034C128.053 94.8623 136.88 95.8516 143.001 96.2146C144.413 96.3011 145.507 97.4498 145.507 98.8522C145.498 102.896 145.469 113.367 145.402 140.357C145.391 141.775 144.257 142.938 142.828 142.983C126.365 143.536 112.437 144.859 101.832 146.639C101.065 146.765 100.295 146.478 99.8061 145.88C99.5702 145.586 99.4159 145.234 99.3586 144.862C99.3013 144.489 99.343 144.108 99.4795 143.756C103.942 132.683 119.72 112.117 120.685 96.2607ZM106.887 106.715C100.884 103.755 91.4978 99.1461 87.6264 89.2165C87.5312 88.959 87.5771 88.6747 87.7413 88.4557C87.8264 88.352 87.9358 88.2707 88.0597 88.2191C88.1836 88.1675 88.3183 88.1472 88.4519 88.1599C92.9962 88.7016 100.478 90.1136 106.185 91.2258C107.006 91.3859 107.787 91.7062 108.485 92.1683C109.182 92.6304 109.781 93.2253 110.248 93.9191C111.178 95.3175 111.514 97.0311 111.168 98.6793C110.631 101.192 109.787 103.772 108.903 105.95C108.748 106.323 108.451 106.628 108.066 106.772C107.876 106.843 107.673 106.874 107.471 106.864C107.268 106.854 107.069 106.803 106.887 106.715ZM145.652 83.7032C145.652 84.4063 145.363 85.0863 144.846 85.58C144.336 86.0725 143.652 86.3426 142.943 86.3311C125.048 85.9892 102.783 80.9428 82.8826 78.9334C81.8058 78.8201 80.8632 78.1631 80.4049 77.1834C79.9523 76.2113 80.0378 75.0703 80.6538 74.1828C86.3306 65.911 96.8286 57.8486 106.078 52.1567C108.94 50.3951 112.41 49.8342 115.694 50.6045C123.876 52.537 135.585 56.2676 142.231 60.269C144.384 61.5638 145.71 63.8844 145.71 66.3913C145.71 71.5184 145.671 79.1044 145.652 83.7032ZM99.7573 112.816C102.447 114.539 103.322 118.043 101.744 120.803C97.5309 128.182 91.0475 138.282 88.2216 145.279C88.04 145.718 87.5988 146.001 87.1185 145.992C86.6383 145.974 86.2541 145.651 86.0605 145.212C75.0455 120.289 70.2401 103.153 73.4591 90.8839C73.8531 89.397 75.3817 88.4923 76.9259 88.5787C78.0801 88.6344 79.0976 89.3682 79.5006 90.444C84.1591 102.915 92.6114 108.229 99.7573 112.816ZM91.479 172.657C92.0741 168.65 93.0917 164.497 94.0829 161.214C94.5324 159.709 95.7413 158.569 97.2817 158.188C100.382 157.417 105.194 156.206 108.614 155.552C110.507 155.188 112.456 155.854 113.724 157.293C119.152 163.45 129.774 173.828 140.262 182.727C142.76 184.851 144.287 187.898 144.489 191.152C144.606 193.046 144.587 194.904 144.471 196.817C144.335 199.026 142.797 200.89 140.647 201.471C134.873 203.025 124.626 206.023 117.181 208.364C114.231 209.286 111.006 208.345 109.048 205.975C100.304 195.484 95.4057 185.842 92.2474 178.51C91.4594 176.664 91.1901 174.636 91.479 172.657ZM179.871 215.783C179.857 215.785 179.843 215.79 179.83 215.795C179.915 215.817 180.009 215.841 180.095 215.865C180.912 216.096 181.584 216.657 181.939 217.408C182.114 217.782 182.205 218.189 182.205 218.602C182.205 219.015 182.114 219.422 181.939 219.796C179.739 224.502 176.655 229.384 176.013 230.337C175.445 231.29 174.686 232.57 172.853 233.314C165.484 236.228 157.838 236.827 149.713 236.827C141.819 236.827 133.953 236.238 126.584 233.314C125.48 232.876 124.539 232.106 123.905 231.107C123.55 230.548 122.91 229.57 122.115 228.272L122.138 228.262C120.811 226.12 119.074 223.121 117.517 219.796C117.341 219.422 117.25 219.015 117.25 218.602C117.25 218.189 117.341 217.782 117.517 217.408C117.872 216.657 118.545 216.096 119.362 215.865C126.858 213.835 139.732 210.475 148.106 209.299C149.197 209.146 150.327 209.144 151.418 209.298C159.706 210.458 172.38 213.761 179.871 215.783ZM190.496 205.975C188.539 208.345 185.31 209.286 182.362 208.364C174.917 206.023 164.668 203.025 158.895 201.471C156.744 200.89 155.206 199.026 155.071 196.817C154.956 194.904 154.939 193.046 155.052 191.152C155.257 187.898 156.784 184.851 159.281 182.727C169.769 173.828 180.393 163.45 185.82 157.293C187.086 155.854 189.037 155.188 190.927 155.552C194.349 156.206 199.161 157.417 202.263 158.188C203.8 158.569 205.008 159.709 205.462 161.214C206.451 164.497 207.467 168.65 208.063 172.657C208.351 174.636 208.084 176.664 207.296 178.51C204.136 185.842 199.238 195.484 190.496 205.975ZM197.797 120.803C196.222 118.043 197.096 114.539 199.785 112.816C206.931 108.229 215.384 102.915 220.04 90.444C220.443 89.3682 221.454 88.6344 222.607 88.5787C224.153 88.4923 225.69 89.397 226.084 90.8839C229.303 103.153 224.499 120.289 213.482 145.212C213.29 145.651 212.906 145.974 212.425 145.992C211.945 146.001 211.503 145.718 211.321 145.279C208.497 138.282 202.013 128.182 197.797 120.803ZM218.889 74.1828C219.504 75.0703 219.591 76.2113 219.139 77.1834C218.678 78.1631 217.737 78.8201 216.661 78.9334C196.76 80.9428 174.494 85.9892 156.601 86.3311C155.893 86.343 155.208 86.0728 154.698 85.58C154.444 85.3381 154.241 85.047 154.103 84.7244C153.964 84.4018 153.893 84.0543 153.892 83.7032C153.872 79.1044 153.835 71.5184 153.835 66.3913C153.835 63.8844 155.16 61.5638 157.31 60.269C163.957 56.2676 175.668 52.537 183.85 50.6045C187.135 49.8342 190.601 50.3951 193.463 52.1567C202.715 57.8486 213.213 65.911 218.889 74.1828ZM27.913 89.5699C28.3068 76.6705 29.6215 63.4099 31.9463 49.8342C32.3703 47.3292 34.1823 45.2738 36.6339 44.5303C43.2794 42.521 61.3953 35.8263 92.8598 44.15C93.4188 44.2941 93.8428 44.7589 93.929 45.3218C94.0153 45.8827 93.7646 46.4532 93.2747 46.7587C80.7109 54.7462 68.7437 68.2354 63.8722 76.0615C63.3073 76.974 62.3558 77.5945 61.2902 77.7482C48.1111 79.6422 38.3734 84.8866 30.0545 90.7091C29.6305 91.0068 29.085 91.0337 28.6334 90.7955C28.171 90.5573 27.904 90.0828 27.913 89.5699ZM39.9956 170.793C39.2851 170.62 38.7193 170.096 38.5061 169.401C33.991 155.113 30.8402 140.023 29.181 124.24C29.3049 109.56 35.308 101.734 44.7395 95.7305C47.7855 93.7865 51.1374 92.0346 54.6238 90.7686C55.6809 90.3864 56.8637 90.5977 57.716 91.3219C58.5707 92.0442 58.8402 93.1487 58.7449 94.2629C57.44 109.98 65.1232 131.073 73.1523 150.2C73.3925 150.78 73.306 151.429 73.0292 151.992C72.7493 152.543 72.26 152.971 71.6636 153.16C61.8379 156.417 50.1581 161.803 41.9535 170.22C41.456 170.734 40.707 170.954 39.9956 170.793ZM73.1155 231.175C72.9921 231.451 72.7982 231.69 72.5533 231.867C72.3085 232.044 72.0212 232.153 71.7206 232.184C71.1165 232.25 70.5094 231.994 70.1447 231.499C62.7782 221.646 56.2753 211.067 50.7248 199.825C44.1363 183.947 54.0775 173.141 73.6326 164.613C74.0799 164.417 74.5676 164.33 75.0552 164.359C75.5429 164.389 76.0165 164.534 76.4367 164.784C77.2833 165.289 77.84 166.174 77.9158 167.146C78.0703 169.202 78.2616 171.667 78.4839 174.655C78.8012 179.112 80.0199 183.395 82.0857 187.365C85.7439 194.429 89.5467 200.263 92.2368 204.195C92.9476 205.214 92.7178 206.612 91.7101 207.355C82.785 213.983 76.5043 223.588 73.1155 231.175ZM150.703 292.187C149.263 293.587 147.083 293.936 145.267 293.062C128.948 285.173 114.069 275.539 100.544 263.981L100.546 263.959C96.0204 260.074 87.5402 253.845 87.5402 239.951C87.5402 231.079 91.3927 222.286 97.3958 216.476C97.8761 216.002 98.5567 215.769 99.2298 215.841C99.564 215.868 99.888 215.97 100.179 216.137C100.469 216.304 100.72 216.534 100.911 216.809C104.414 221.793 107.612 227.895 111.133 234.35L111.109 234.363C111.322 234.753 111.533 235.154 111.755 235.544C114.155 239.934 118.046 243.328 122.742 245.138C129.515 247.719 130.244 247.36 134.116 249.235C151.75 257.904 168.405 274.992 150.703 292.187ZM174.609 281.764C174.237 281.988 173.811 282.107 173.376 282.109C172.942 282.11 172.515 281.994 172.141 281.773C171.756 281.549 171.44 281.224 171.229 280.833C171.017 280.441 170.917 279.999 170.941 279.555C171.499 270.262 167.886 260.17 158.991 252.339C158.558 251.955 158.396 251.365 158.55 250.812C158.631 250.542 158.786 250.3 158.999 250.115C159.212 249.929 159.473 249.808 159.752 249.766C165.609 248.843 171.902 247.043 176.695 245.138C181.296 243.37 185.187 240.065 187.673 235.544C187.889 235.147 188.115 234.734 188.336 234.326L188.404 234.363C191.929 227.902 195.127 221.798 198.633 216.809C199.015 216.258 199.631 215.896 200.313 215.841C200.986 215.769 201.668 216.002 202.148 216.476C209.709 223.789 213.926 235.93 211.132 247.049C211.113 247.011 211.096 246.978 211.077 246.943C210.026 251.189 207.951 255.271 204.655 258.848C195.415 267.375 185.32 275.07 174.677 281.731C174.658 281.74 174.63 281.764 174.609 281.764ZM248.818 199.825C243.267 211.067 236.764 221.646 229.399 231.499C229.032 231.994 228.427 232.25 227.82 232.184C227.207 232.119 226.677 231.737 226.429 231.175C223.039 223.588 216.757 213.983 207.834 207.355C206.826 206.612 206.595 205.214 207.306 204.195C209.995 200.263 213.799 194.429 217.458 187.365C219.523 183.395 220.743 179.112 221.06 174.655C221.281 171.667 221.473 169.202 221.627 167.146C221.704 166.174 222.261 165.289 223.104 164.784C223.525 164.534 223.999 164.389 224.487 164.359C224.975 164.33 225.463 164.417 225.911 164.613C245.466 173.141 255.407 183.947 248.818 199.825ZM261.034 169.401C260.825 170.096 260.258 170.62 259.547 170.793C258.836 170.954 258.087 170.734 257.588 170.22C249.385 161.803 237.706 156.417 227.878 153.16C227.284 152.971 226.792 152.543 226.516 151.992C226.237 151.429 226.151 150.78 226.391 150.2C234.421 131.073 242.105 109.98 240.798 94.2629C240.702 93.1487 240.971 92.0442 241.826 91.3219C242.681 90.5977 243.862 90.3864 244.919 90.7686C248.405 92.0346 251.758 93.7865 254.802 95.7305C264.234 101.734 270.238 109.56 270.362 124.24C268.701 140.023 265.552 155.113 261.034 169.401ZM271.63 89.5699C271.64 90.0828 271.371 90.5573 270.91 90.7955C270.458 91.0337 269.911 91.0068 269.49 90.7091C261.17 84.8866 251.431 79.6422 238.253 77.7482C237.187 77.5945 236.236 76.974 235.669 76.0615C230.8 68.2354 218.832 54.7462 206.267 46.7587C205.779 46.4532 205.529 45.8827 205.615 45.3218C205.702 44.7589 206.122 44.2941 206.681 44.15C234.423 36.8118 251.212 40.99 262.909 44.5303C265.358 45.2738 267.174 47.3292 267.596 49.8342C269.921 63.4099 271.236 76.6705 271.63 89.5699Z" fill="#DB1C30"/>
</g>
</g>
<defs>
<clipPath id="clip0_100_212">
<rect width="781.576" height="326.73" fill="white"/>
</clipPath>
</defs>
</svg>
