<svg width="992" height="316" viewBox="0 0 992 316" fill="none" xmlns="http://www.w3.org/2000/svg">
<path fill-rule="evenodd" clip-rule="evenodd" d="M970.515 18.8713H267.178L266.901 18.7723C227.207 6.61686 185.92 0.45653 144.406 0.495053C102.922 0.462441 61.6652 6.62274 22 18.7723C17.9052 20.0153 14.2272 22.3521 11.3624 25.531C8.49753 28.7099 6.55447 32.6103 5.74257 36.8119C-17.9208 159.287 32.703 267.901 134.653 313.525C137.723 314.911 140.99 315.614 144.376 315.614C147.743 315.614 151.01 314.921 154.079 313.535C164.527 308.851 174.614 303.401 184.257 297.228H970.495C982.079 297.228 991.515 287.802 991.515 276.218V39.8812C991.515 28.297 982.089 18.8713 970.505 18.8713" fill="white"/>
<path fill-rule="evenodd" clip-rule="evenodd" d="M133.614 279.683C132.943 279.931 132.226 280.03 131.514 279.973C130.801 279.917 130.109 279.707 129.485 279.357C118.319 273.112 107.782 265.804 98.0198 257.535C94.4998 254.548 91.8641 250.656 90.3981 246.279C88.9321 241.902 88.6917 237.207 89.7029 232.703C91.4059 225.149 94.5544 218.852 98.0198 214.03C98.3007 213.639 98.6693 213.319 99.0962 213.096C99.523 212.874 99.9961 212.754 100.478 212.747C100.959 212.741 101.435 212.847 101.868 213.057C102.301 213.268 102.679 213.577 102.97 213.96C109.921 223.099 113.228 226.406 119.554 233.01C127.871 241.673 137.01 251.426 138.406 262.772C139.01 267.525 138.208 272.238 136.535 276.762C136.288 277.432 135.899 278.039 135.395 278.543C134.891 279.048 134.283 279.437 133.614 279.683ZM75.8812 235.465C65.714 223.54 57.0056 210.444 49.9406 196.456C47.3989 191.441 46.604 185.722 47.682 180.205C48.7599 174.688 51.649 169.689 55.8911 166C60.4498 162.062 65.5104 158.746 70.9406 156.139C71.4578 155.883 72.0268 155.75 72.6038 155.748C73.1807 155.747 73.7502 155.878 74.2685 156.132C74.7869 156.385 75.2401 156.754 75.5935 157.21C75.9469 157.666 76.1909 158.197 76.3069 158.762C79.2871 173.188 85.099 186.644 92.7623 199.158C93.1697 199.833 93.342 200.623 93.2524 201.406C93.1629 202.189 92.8164 202.92 92.2673 203.485C84.5445 211.337 78.4455 222.436 75.8812 235.465ZM38.0594 167.683C33.0233 152.266 29.6737 136.348 28.0693 120.208C27.6638 116.172 28.2337 112.098 29.731 108.328C31.2282 104.558 33.6091 101.203 36.6732 98.5446C50.0693 86.9406 67.8119 81.2179 86.9109 79.1387C87.2769 79.0964 87.6474 79.1582 87.9799 79.3168C88.3124 79.4755 88.5935 79.7247 88.7909 80.0358C88.9883 80.3469 89.094 80.7073 89.096 81.0757C89.098 81.4442 88.996 81.8057 88.8019 82.1189C77.9802 99.8218 73.3267 120.04 74.0792 140.337C74.1179 141.449 73.8126 142.546 73.2048 143.478C72.597 144.41 71.7164 145.132 70.6831 145.545C57.0495 150.98 46.7227 158.337 38.0495 167.683M30.8119 48.7921C31.0132 47.5983 31.5432 46.4841 32.3424 45.5747C33.1417 44.6653 34.1785 43.9966 35.3366 43.6436C52.5643 38.3961 82.1089 37.0396 117.713 46.6139C118.103 46.7195 118.454 46.9337 118.727 47.2317C118.999 47.5296 119.182 47.8989 119.252 48.2964C119.323 48.694 119.279 49.1034 119.125 49.4769C118.972 49.8505 118.716 50.1727 118.386 50.406C112.764 54.3563 107.503 58.796 102.663 63.6733C99.9418 66.4365 96.2712 68.0612 92.396 68.2179C68.693 69.1783 45.8812 74.8713 26.8911 88.5644C27.25 75.2306 28.5603 61.9394 30.8119 48.7921ZM98.7326 30.2179C117.346 27.9406 136.04 27.0495 154.624 27.5545C154.847 27.563 155.061 27.6439 155.235 27.785C155.408 27.9261 155.531 28.1197 155.584 28.3367C155.703 28.7822 155.485 29.2179 155.099 29.4753C149.723 33.0792 143.772 36.2575 138.446 38.4852C136.515 39.2773 134.436 39.6832 132.426 39.0891C121.359 35.8684 110.094 33.3714 98.7029 31.6139C98.5323 31.5912 98.3759 31.5068 98.2635 31.3765C98.151 31.2462 98.0902 31.0792 98.0926 30.9071C98.0951 30.735 98.1606 30.5698 98.2767 30.4427C98.3928 30.3157 98.5515 30.2357 98.7227 30.2179M171.931 86.604C172.005 86.7398 172.032 86.8965 172.007 87.0493C171.981 87.202 171.906 87.3419 171.792 87.4467C171.678 87.5515 171.532 87.6152 171.378 87.6275C171.224 87.6399 171.07 87.6002 170.941 87.5149C154.703 77.6931 135.178 71.0396 117.386 68.9406C117.145 68.913 116.917 68.8162 116.73 68.6619C116.543 68.5076 116.404 68.3024 116.331 68.0711C116.257 67.8398 116.253 67.5922 116.317 67.3582C116.381 67.1243 116.512 66.9139 116.693 66.7525C122.317 61.8416 127.98 58 132.98 54.9703C134.119 54.2851 135.413 53.9003 136.741 53.8518C138.07 53.8033 139.388 54.0928 140.574 54.6931C148.426 58.6535 162.208 67.3367 171.931 86.604ZM209.911 151.089C210.066 151.512 210.096 151.971 209.997 152.411C209.897 152.85 209.673 153.251 209.351 153.566C209.029 153.881 208.622 154.096 208.18 154.186C207.739 154.275 207.281 154.235 206.861 154.069C204.366 153.106 201.858 152.179 199.337 151.287C196.927 150.43 194.913 148.723 193.673 146.485C186.109 132.891 174.366 123.287 161.178 113.654C159.893 112.716 158.931 111.403 158.423 109.896C157.916 108.389 157.889 106.761 158.346 105.238C159.238 102.297 160.049 99.3664 160.723 96.3664C160.798 96.0266 160.949 95.7083 161.166 95.4356C161.382 95.1628 161.657 94.9428 161.971 94.7922C162.285 94.6415 162.629 94.5641 162.977 94.5658C163.325 94.5675 163.668 94.6483 163.98 94.802C188.832 106.96 203.525 133.634 209.921 151.089M211.455 167.366C209.842 172.119 207.629 176.648 204.871 180.842C204.752 181.028 204.577 181.171 204.372 181.252C204.167 181.333 203.941 181.347 203.727 181.292C203.513 181.237 203.322 181.116 203.181 180.947C203.04 180.777 202.956 180.567 202.941 180.347C202.556 174.191 201.564 168.089 199.98 162.129C199.925 161.926 199.927 161.713 199.987 161.512C200.046 161.311 200.16 161.13 200.317 160.99C200.472 160.848 200.663 160.752 200.869 160.711C201.075 160.671 201.288 160.689 201.485 160.762C204.327 161.812 207.158 162.921 209.97 164.079C211.257 164.614 211.911 166.05 211.455 167.366ZM142.644 110.703C145.247 112.901 146.089 116.545 144.723 119.663C142.644 124.356 140.386 128.673 137.832 133.149C137.122 134.39 136.082 135.411 134.827 136.096C133.572 136.781 132.151 137.104 130.723 137.03C117.327 136.307 103.743 136.931 90.7623 139.574C90.2078 139.688 89.6349 139.678 89.0847 139.545C88.5346 139.411 88.021 139.157 87.5807 138.801C87.1405 138.445 86.7846 137.996 86.5387 137.486C86.2927 136.976 86.1629 136.418 86.1584 135.852C86.0396 116.386 91.0594 97.9604 102.762 82.0298C103.636 80.8486 104.784 79.8979 106.107 79.2596C107.43 78.6214 108.888 78.3148 110.356 78.3664L112.426 78.4456C117.129 78.6931 121.277 81.6139 123.099 85.9406C127.178 95.604 134.386 103.723 142.644 110.693M152.634 121.406C152.753 121.126 152.933 120.877 153.162 120.676C153.391 120.476 153.662 120.33 153.955 120.249C154.248 120.168 154.556 120.154 154.855 120.209C155.154 120.264 155.437 120.385 155.683 120.564C164.891 127.297 174 134.208 180.861 143.059C181.023 143.273 181.113 143.532 181.121 143.799C181.128 144.067 181.052 144.33 180.903 144.553C180.753 144.775 180.538 144.945 180.288 145.039C180.037 145.134 179.764 145.148 179.505 145.079C168.951 142.208 158.218 140.041 147.376 138.594C147.042 138.551 146.722 138.427 146.446 138.233C146.17 138.039 145.946 137.781 145.792 137.481C145.638 137.181 145.559 136.848 145.563 136.51C145.566 136.173 145.652 135.842 145.812 135.545C148.317 130.891 150.535 126.376 152.634 121.406ZM152.139 97.8615C151.574 100.05 150.96 102.119 150.337 104.228C150.296 104.364 150.223 104.487 150.122 104.588C150.022 104.688 149.898 104.762 149.762 104.802C149.628 104.843 149.485 104.85 149.346 104.823C149.208 104.795 149.079 104.734 148.97 104.644C141.307 98.4456 134.208 91.2476 130.238 82.5842C130.171 82.4437 130.147 82.2871 130.167 82.1331C130.187 81.979 130.251 81.834 130.351 81.7151C130.451 81.5963 130.583 81.5087 130.731 81.4626C130.88 81.4166 131.038 81.4141 131.188 81.4555C136.01 82.6931 141.218 84.3466 146.139 86.2476C150.792 88.0496 153.366 93.0397 152.129 97.8615M117.871 210.594C117.879 210.732 117.845 210.868 117.773 210.986C117.701 211.103 117.594 211.196 117.468 211.251C117.342 211.306 117.202 211.321 117.067 211.294C116.932 211.266 116.808 211.199 116.713 211.099C105.277 199.475 92.0396 175.723 87.7624 153.327C87.596 152.453 87.7742 151.548 88.2596 150.803C88.7449 150.057 89.4998 149.528 90.3663 149.327C103.059 146.386 115.95 145.802 127.178 146.079C127.526 146.085 127.866 146.179 128.169 146.35C128.471 146.522 128.725 146.767 128.908 147.063C129.092 147.358 129.198 147.695 129.217 148.042C129.237 148.389 129.169 148.735 129.02 149.05C120.168 167.96 116.851 190.03 117.871 210.594ZM188.545 195.644C187.889 195.974 187.226 196.287 186.554 196.584C181.436 198.832 168.535 205.297 154.752 205.01C153.881 204.99 140.693 201.119 130.436 197.248C129.706 196.971 129.079 196.475 128.643 195.828C128.207 195.181 127.982 194.414 128 193.634C128.317 177.456 131.663 164.109 137.109 151.842C137.775 150.348 138.898 149.105 140.316 148.292C141.735 147.479 143.375 147.137 145 147.317C157.475 148.703 170.525 151.248 183.584 154.941C186.96 155.901 189.653 158.485 190.733 161.822C193.148 169.267 194.297 177.129 194.693 185.05C194.911 189.475 192.515 193.634 188.554 195.644M180.475 209.158C180.778 209.079 181.095 209.075 181.4 209.148C181.704 209.221 181.986 209.367 182.22 209.575C182.454 209.783 182.633 210.045 182.742 210.338C182.85 210.632 182.884 210.948 182.842 211.258C182.079 216.663 180.584 221.357 179.337 225.396C179.057 226.303 178.436 227.067 177.604 227.525C174.158 229.396 170.119 231.297 162.663 231.099C153.099 230.901 144.713 227.931 137.743 224.535C135.291 223.346 133.177 221.561 131.594 219.344C130.011 217.126 129.01 214.547 128.683 211.842C128.556 210.769 128.47 209.693 128.426 208.614C128.411 208.308 128.472 208.004 128.604 207.728C128.736 207.451 128.935 207.213 129.183 207.033C129.431 206.853 129.719 206.738 130.023 206.697C130.326 206.657 130.635 206.693 130.921 206.802C139.119 209.871 152.822 213.931 154.119 214.03C163.208 214.693 171.327 211.515 180.475 209.158ZM142.624 240.515C142.524 240.383 142.469 240.223 142.468 240.058C142.466 239.894 142.516 239.732 142.613 239.598C142.709 239.464 142.846 239.365 143.003 239.314C143.16 239.264 143.329 239.265 143.485 239.317C149.576 241.402 155.935 242.602 162.366 242.881C172.614 243.178 179.723 240.762 186.02 236.614C188.129 235.228 189.683 233.188 190.495 230.802C193.366 222.188 195.129 215.109 196.119 209.376C196.762 205.713 198.554 202.347 201.614 200.198C212.238 192.673 220.376 181.327 225.297 166.109C225.99 163.921 226.129 161.624 225.683 159.376C221.584 138.782 206.604 116.614 194.931 103.337C190.816 98.6518 187.582 93.2615 185.386 87.4258C179.356 71.5347 168.188 56.9802 152.871 47.6139C152.555 47.4242 152.294 47.1537 152.117 46.83C151.939 46.5064 151.851 46.1413 151.861 45.7723C151.866 45.4049 151.97 45.0456 152.162 44.7321C152.353 44.4185 152.626 44.1623 152.95 43.9901C165.802 37.4951 180.396 28.5842 190.515 17.9208C190.647 17.7824 190.737 17.6101 190.777 17.423C190.816 17.236 190.803 17.0417 190.738 16.8618C190.673 16.682 190.56 16.5237 190.41 16.4047C190.261 16.2858 190.081 16.2108 189.891 16.1882C134.759 9.91618 78.9257 15.1176 25.901 31.4654C24.0866 32.0237 22.4583 33.0649 21.1904 34.4776C19.9224 35.8903 19.0626 37.6213 18.703 39.4852C-4.67328 161.396 47.396 259.881 137.059 302.06C137.67 302.348 138.366 302.404 139.015 302.216C139.664 302.028 140.222 301.61 140.584 301.04C154.049 280.287 157.762 260.723 142.624 240.525" fill="#E20613"/>
<path fill-rule="evenodd" clip-rule="evenodd" d="M270.139 39.4852C269.78 37.6225 268.921 35.8923 267.655 34.4797C266.389 33.0671 264.763 32.0252 262.95 31.4654C243.361 25.4151 223.335 20.8836 203.049 17.9109C202.483 17.8302 201.906 17.8971 201.373 18.1053C200.841 18.3135 200.371 18.6558 200.01 19.0991C197.358 22.3546 194.444 25.3878 191.297 28.1684C191.106 28.335 190.968 28.553 190.898 28.7963C190.828 29.0397 190.83 29.298 190.903 29.5404C190.976 29.7828 191.117 29.999 191.31 30.163C191.503 30.3271 191.739 30.4321 191.99 30.4654C212.837 33.1144 233.423 37.5263 253.525 43.6535C254.681 44.0068 255.716 44.6743 256.515 45.5817C257.314 46.489 257.845 47.6005 258.049 48.7921C275.525 151.802 234.445 236.634 160.614 278.654C160.045 278.977 159.547 279.409 159.146 279.926C158.745 280.442 158.45 281.033 158.277 281.664C156.33 288.453 153.5 294.957 149.861 301.01C149.756 301.188 149.709 301.396 149.729 301.602C149.748 301.808 149.833 302.003 149.97 302.159C150.108 302.314 150.292 302.421 150.495 302.463C150.699 302.506 150.91 302.483 151.099 302.396C154.119 300.98 158.723 298.703 162.861 296.456C245.525 251.683 292.594 156.515 270.139 39.4852ZM351.069 205.951C351.069 201.515 348.178 199.426 342.287 199.426C336.406 199.426 333.416 201.515 333.416 205.951V207.317C333.416 210.475 335.683 211.654 337.129 212.198L352.891 217.812C359.04 219.99 363.574 224.149 363.574 230.852V237.822C363.574 245.436 358.129 252.584 342.02 252.584C325.901 252.584 320.376 245.436 320.376 237.832V232.129C320.376 230.495 321.01 229.763 322.644 229.763H330.247C331.792 229.763 332.327 230.495 332.327 232.129V236.188C332.327 240.644 335.861 242.723 341.931 242.723C348 242.723 351.614 240.644 351.614 236.188V233.297C351.614 229.406 347.356 227.862 343.921 226.604L329.891 221.258C325.535 219.624 321.554 215.02 321.554 209.574V204.327C321.554 196.713 326.257 189.564 342.287 189.564C358.049 189.564 363.04 196.713 363.04 204.317V208.04C363.04 209.574 362.396 210.297 360.861 210.297H353.247C351.614 210.297 351.069 209.574 351.069 208.04V205.951ZM386.148 235.297C386.148 239.822 389.861 242.089 395.842 242.089C402 242.089 405.713 239.822 405.713 235.297V192.277C405.713 190.644 406.346 189.921 407.891 189.921H415.762C417.396 189.921 417.941 190.644 417.941 192.277V237.465C417.941 245.069 412.238 252.228 395.842 252.228C379.535 252.228 373.921 245.069 373.921 237.465V192.277C373.921 190.644 374.564 189.921 376.099 189.921H383.98C385.604 189.921 386.158 190.644 386.158 192.277V235.297H386.148ZM442.604 200.426V219.901H451.564C457.634 219.901 461.346 217.634 461.346 213.198V207.218C461.346 202.693 457.634 200.426 451.564 200.426H442.604ZM442.604 230.03V249.515C442.604 251.139 442.059 251.862 440.426 251.862H432.545C430.921 251.862 430.376 251.139 430.376 249.515V192.644C430.376 191.01 430.921 190.287 432.554 190.287H451.564C467.96 190.287 473.485 197.436 473.485 205.05V215.277C473.485 222.881 467.96 230.03 451.564 230.03H442.604ZM485.099 251.862C483.465 251.862 482.921 251.139 482.921 249.515V192.634C482.921 191.01 483.465 190.287 485.099 190.287H516.079C517.604 190.287 518.337 190.822 518.337 192.456V198.159C518.337 199.792 517.604 200.426 516.079 200.426H495.148V215.099H514.525C516.158 215.099 516.871 215.634 516.871 217.277V222.703C516.871 224.248 516.158 224.881 514.525 224.881H495.148V241.723H516.96C518.594 241.723 519.238 242.267 519.238 243.901V249.604C519.238 251.228 518.594 251.862 516.96 251.862H485.079H485.099ZM541.446 200.426V218.267H550.416C556.475 218.267 560.198 216.01 560.198 211.475V207.218C560.198 202.693 556.475 200.426 550.416 200.426H541.446ZM531.386 251.862C529.762 251.862 529.218 251.139 529.218 249.515V192.644C529.218 191.01 529.762 190.287 531.396 190.287H550.416C566.802 190.287 572.337 197.436 572.337 205.05V213.644C572.337 218.99 569.614 224.069 562.455 226.604L572.148 249.515C572.782 250.961 571.693 251.862 570.069 251.862H561.554C560.109 251.862 559.644 250.961 559.01 249.515L550.228 228.406H541.446V249.515C541.446 251.139 540.901 251.862 539.267 251.862H531.386ZM595.277 241.723H615.475C617.01 241.723 617.733 242.267 617.733 243.901V249.604C617.733 251.228 617.01 251.862 615.465 251.862H584.96C583.594 251.862 583.049 251.05 583.049 249.515V192.644C583.049 191.01 583.594 190.287 585.228 190.287H593.099C594.733 190.287 595.277 191.01 595.277 192.644V241.723ZM637.406 249.515C637.406 251.149 636.861 251.862 635.228 251.862H627.346C625.713 251.862 625.178 251.149 625.178 249.515V192.644C625.178 191.01 625.713 190.287 627.356 190.287H635.228C636.861 190.287 637.406 191.01 637.406 192.644V249.515ZM689.307 219.535C690.852 219.535 691.584 220.079 691.584 221.713V237.822C691.584 245.436 686.683 252.584 670.297 252.584C653.901 252.584 649.01 245.436 649.01 237.832V204.317C649.01 196.713 653.901 189.564 670.297 189.564C686.683 189.564 691.584 196.713 691.584 204.317V207.951C691.584 209.475 691.03 210.208 689.485 210.208H681.97C680.346 210.208 679.713 209.475 679.713 207.951V206.495C679.713 201.97 676.545 199.703 670.475 199.703C664.406 199.703 661.327 201.97 661.327 206.495V235.654C661.327 240.188 664.396 242.446 670.475 242.446C676.535 242.446 679.713 240.188 679.713 235.743V229.683H670.832C669.198 229.683 668.475 229.139 668.475 227.505V221.713C668.475 220.089 669.198 219.545 670.832 219.545H689.307V219.535ZM722.852 218.812C721.307 213.743 720.396 204.317 720.218 202.238C719.941 204.683 718.772 214.376 717.416 218.723L714.327 228.871H725.832L722.852 218.812ZM724.376 190.287C726.01 190.287 726.743 191.01 727.188 192.555L744.119 249.604C744.584 251.05 744.03 251.862 742.495 251.862H734.346C732.713 251.862 732.168 251.05 731.713 249.604L728.455 238.555H711.624L708.455 249.604C707.99 251.05 707.446 251.862 705.822 251.862H698.396C696.852 251.862 696.317 251.05 696.762 249.604L713.693 192.555C714.148 191.01 714.881 190.277 716.505 190.277H724.376V190.287Z" fill="#102D69"/>
<path fill-rule="evenodd" clip-rule="evenodd" d="M342.782 138.624H369.416C372.257 138.624 373.485 139.574 373.485 142.426V153.02C373.485 155.881 372.257 156.96 369.406 156.96H323.762C321.327 156.96 320.376 155.604 320.376 152.891V68.6733C320.376 65.8218 321.465 64.604 324.317 64.604H338.97C341.832 64.604 342.782 65.8218 342.782 68.6634V138.624ZM405.297 152.891C405.297 155.743 404.347 156.96 401.495 156.96H386.832C383.97 156.96 382.891 155.743 382.891 152.891V68.6733C382.891 65.8218 383.98 64.604 386.832 64.604H401.485C404.347 64.604 405.297 65.8218 405.297 68.6634V152.891ZM444.574 156.96C441.723 156.96 440.366 155.604 439.554 152.891L414.951 68.6733C414.139 66.0991 415.089 64.5941 417.941 64.5941H433.97C436.822 64.5941 438.05 66.0991 438.723 68.6733L448.911 106.703C450.267 111.861 451.495 120.426 452.307 128.852C453.396 120.287 454.762 111.465 456.109 106.703L466.436 68.6733C467.119 66.0991 468.337 64.5941 471.188 64.5941H485.861C488.713 64.5941 489.663 66.0991 488.852 68.6733L464.257 152.891C463.455 155.604 462.089 156.96 459.238 156.96H444.564H444.574ZM502.485 156.96C499.634 156.96 498.545 155.743 498.545 152.891V68.6733C498.545 65.8218 499.634 64.5941 502.485 64.5941H548.941C551.792 64.5941 553.02 65.5446 553.02 68.3961V78.9901C553.02 81.8515 551.792 82.9307 548.941 82.9307H520.96V100.594H546.772C549.624 100.594 550.842 101.545 550.842 104.396V114.307C550.842 117.158 549.624 118.257 546.772 118.257H520.96V138.624H550.297C553.149 138.624 554.366 139.574 554.366 142.426V153.02C554.366 155.881 553.149 156.96 550.307 156.96H502.485ZM609.149 89.7327C609.149 83.4852 604.812 81.1684 598.564 81.1684C592.327 81.1684 587.832 83.4852 587.832 89.7327V91.0892C587.832 94.7525 590.683 96.3862 592.178 96.9307L615 104.673C625.04 108.069 631.98 115.129 631.98 125.178V134.822C631.98 146.505 623.416 158.05 598.02 158.05C572.624 158.05 564.059 146.505 564.059 134.822V125.733C564.059 122.871 565.149 121.654 568 121.654H582.129C584.97 121.654 585.921 122.871 585.921 125.733V131.842C585.921 138.079 591.218 140.396 597.881 140.396C604.535 140.396 609.97 138.089 609.97 131.842V129.119C609.97 124.228 603.455 121.921 598.287 120.02L578.733 112.693C571.802 110.109 566.089 102.495 566.089 94.6238V86.7426C566.089 75.0595 573.158 63.5149 598.564 63.5149C623.416 63.5149 631.03 75.0595 631.03 86.7426V91.7723C631.03 94.6238 629.941 95.8416 627.089 95.8416H612.97C610.109 95.8416 609.158 94.6238 609.158 91.7723V89.7327H609.149ZM667.871 82.9307V107.248H678.743C685.406 107.248 691.099 104.673 691.099 98.4258V91.7624C691.099 85.5149 685.406 82.9307 678.743 82.9307H667.871ZM667.871 125.584V152.891C667.871 155.743 666.921 156.96 664.069 156.96H649.396C646.545 156.96 645.465 155.743 645.465 152.891V68.6733C645.465 65.8218 646.554 64.5941 649.396 64.5941H678.743C704.287 64.5941 713.238 76.1387 713.238 87.8317V102.356C713.238 114.04 704.277 125.584 678.743 125.584H667.871ZM770.614 90.6832C770.614 84.4357 764.911 81.8515 758.257 81.8515C751.594 81.8515 746.02 84.4258 746.02 90.6832V130.881C746.02 137.139 751.594 139.713 758.257 139.713C764.911 139.713 770.614 137.139 770.614 130.891V90.6733V90.6832ZM723.614 86.7426C723.614 75.0595 732.723 63.5149 758.257 63.5149C783.802 63.5149 793.03 75.0595 793.03 86.7426V134.822C793.03 146.505 783.792 158.05 758.257 158.05C732.713 158.05 723.614 146.505 723.614 134.822V86.7426ZM830.426 82.9307V104.535H841.297C847.96 104.535 853.654 101.951 853.654 95.703V91.7624C853.654 85.5149 847.96 82.9307 841.297 82.9307H830.426ZM811.951 156.96C809.099 156.96 808.02 155.743 808.02 152.891V68.6733C808.02 65.8218 809.109 64.5941 811.951 64.5941H841.297C866.842 64.5941 875.792 76.1387 875.792 87.8317V99.6436C875.792 107.386 871.861 115.129 861.673 119.475L874.99 152.891C875.931 155.337 874.168 156.96 871.188 156.96H855.426C852.98 156.96 852.03 155.475 851.069 152.891L839.396 122.871H830.426V152.891C830.426 155.743 829.475 156.96 826.624 156.96H811.951ZM942.802 64.604C945.654 64.604 946.881 65.5446 946.881 68.3961V78.9901C946.881 81.8515 945.654 82.9307 942.802 82.9307H925.416V152.891C925.416 155.743 924.465 156.96 921.604 156.96H906.941C904.089 156.96 903 155.743 903 152.891V82.9307H885.614C882.762 82.9307 881.555 81.8416 881.555 79V68.3961C881.555 65.5347 882.762 64.5941 885.614 64.5941H942.802V64.604Z" fill="#E20613"/>
</svg>
