<svg width="788" height="300" viewBox="0 0 788 300" fill="none" xmlns="http://www.w3.org/2000/svg">
<path fill-rule="evenodd" clip-rule="evenodd" d="M762.155 292.875H23.6024C19.3446 292.873 15.2621 291.181 12.2522 288.171C9.2424 285.161 7.55164 281.08 7.55164 276.825V25.4533C7.55164 16.5939 14.7374 9.40326 23.6024 9.40326H762.155C771.02 9.40326 778.206 16.5939 778.206 25.4533V276.825C778.206 285.685 771.02 292.875 762.155 292.875Z" fill="#B32D62"/>
<mask id="mask0_1097_2" style="mask-type:alpha" maskUnits="userSpaceOnUse" x="0" y="1" width="786" height="300">
<path d="M0 1.85638H785.758V300H0V1.85638Z" fill="#FFFFFE"/>
</mask>
<g mask="url(#mask0_1097_2)">
<path fill-rule="evenodd" clip-rule="evenodd" d="M762.156 1.85638H23.6025C17.3441 1.86631 11.3451 4.35588 6.92066 8.77928C2.49622 13.2027 0.00744254 19.1989 0 25.4533L0 276.825C0.00744254 283.08 2.49622 289.076 6.92066 293.499C11.3451 297.923 17.3441 300.412 23.6025 300.422H762.156C768.414 300.412 774.413 297.923 778.837 293.499C783.262 289.076 785.751 283.08 785.758 276.825V25.4533C785.751 19.1989 783.262 13.2027 778.837 8.77928C774.413 4.35588 768.414 1.86631 762.156 1.85638M762.156 9.40326C771.021 9.40326 778.206 16.5939 778.206 25.4533V276.825C778.206 285.685 771.021 292.875 762.156 292.875H23.6025C19.3447 292.873 15.2621 291.181 12.2523 288.171C9.24243 285.161 7.55167 281.08 7.55167 276.825V25.4533C7.55167 16.5939 14.7375 9.40326 23.6025 9.40326H762.156" fill="#FFFFFE"/>
</g>
<mask id="mask1_1097_2" style="mask-type:alpha" maskUnits="userSpaceOnUse" x="7" y="9" width="284" height="284">
<path d="M23.6024 9.40326C14.7374 9.40326 7.55164 16.5939 7.55164 25.4533V276.825C7.55164 285.685 14.7374 292.875 23.6024 292.875H290.416V9.40326H23.5931H23.6024Z" fill="#FFFFFE"/>
</mask>
<g mask="url(#mask1_1097_2)">
<path fill-rule="evenodd" clip-rule="evenodd" d="M227.723 296.991C278.886 214.941 300.312 112.088 286.063 1.20953H1.11633V296.991H227.723Z" fill="#FFFFFE"/>
</g>
<mask id="mask2_1097_2" style="mask-type:alpha" maskUnits="userSpaceOnUse" x="7" y="9" width="284" height="284">
<path d="M23.6024 9.40326C14.7374 9.40326 7.55164 16.5939 7.55164 25.4533V276.825C7.55164 285.685 14.7374 292.875 23.6024 292.875H290.416V9.40326H23.5931H23.6024Z" fill="#C62534"/>
</mask>
<g mask="url(#mask2_1097_2)">
<path fill-rule="evenodd" clip-rule="evenodd" d="M19.231 296.991C13.3502 296.161 7.58397 294.661 2.04505 292.519C1.72609 292.388 1.4259 292.228 1.11633 292.069V296.991H19.231Z" fill="#C62534"/>
</g>
<mask id="mask3_1097_2" style="mask-type:alpha" maskUnits="userSpaceOnUse" x="7" y="9" width="284" height="284">
<path d="M23.6024 9.40326C14.7374 9.40326 7.55164 16.5939 7.55164 25.4533V276.825C7.55164 285.685 14.7374 292.875 23.6024 292.875H290.416V9.40326" fill="#C62534"/>
</mask>
<g mask="url(#mask3_1097_2)">
<path fill-rule="evenodd" clip-rule="evenodd" d="M49.522 222.244C49.8598 216.816 52.402 211.744 56.5671 208.2C74.0626 193.369 91.7832 176.072 100.826 165.816C101.871 164.631 103.208 163.74 104.704 163.23C106.199 162.72 107.802 162.61 109.354 162.91C115.057 163.997 123.078 166.013 128.256 167.306C130.817 167.935 132.834 169.838 133.585 172.35C135.236 177.816 136.934 184.735 137.928 191.419C138.407 194.719 137.966 198.094 136.652 201.169C129.616 217.722 120.174 233.148 108.631 246.947C107.021 248.881 104.871 250.292 102.456 251.002C100.04 251.711 97.4681 251.687 95.0666 250.931C82.0885 246.873 69.0408 243.042 55.9292 239.438C54.1866 238.977 52.633 237.981 51.4882 236.589C50.3434 235.198 49.6655 233.482 49.5502 231.685C49.3503 228.541 49.3409 225.388 49.522 222.244M52.2894 141.956C51.147 141.922 50.0621 141.447 49.2627 140.631C48.4633 139.815 48.0115 138.72 48.0023 137.578C47.8898 92.6064 47.8429 75.1408 47.8147 68.4095C47.8134 67.2773 48.2481 66.1881 49.0289 65.3677C49.8097 64.5472 50.8764 64.0587 52.008 64.0033C63.0417 63.2405 74.0481 62.1243 85.0102 60.6564C85.5143 60.5927 86.0261 60.6319 86.5146 60.7718C87.0031 60.9117 87.458 61.1492 87.8519 61.4701C88.2457 61.7909 88.5703 62.1884 88.8058 62.6383C89.0414 63.0883 89.1831 63.5813 89.2222 64.0876C90.8358 90.5533 117.121 124.735 124.588 143.25C124.816 143.835 124.885 144.47 124.789 145.09C124.694 145.71 124.437 146.295 124.044 146.785C123.643 147.274 123.119 147.649 122.526 147.872C121.933 148.094 121.292 148.155 120.667 148.05C102.975 145.088 79.7475 142.885 52.2894 141.956M106.633 60.1876C108.2 57.8533 110.639 56.2408 113.406 55.6876C122.919 53.8408 135.395 51.4876 142.975 50.5876C143.197 50.5667 143.421 50.6001 143.627 50.6851C143.832 50.77 144.015 50.9039 144.157 51.0751C144.439 51.4501 144.514 51.9189 144.345 52.3501C137.9 68.897 122.253 76.5751 112.234 81.5064C111.931 81.6592 111.601 81.7475 111.262 81.7655C110.924 81.7834 110.585 81.7308 110.269 81.6108C109.952 81.4909 109.663 81.3062 109.422 81.0687C109.18 80.8312 108.991 80.5461 108.866 80.2314C107.266 76.3076 106.002 72.2557 105.085 68.1189C104.803 66.7604 104.795 65.3594 105.061 63.9976C105.326 62.6358 105.861 61.3406 106.633 60.1876M157.9 54.3939C158.231 53.5152 158.813 52.7529 159.574 52.2014C160.334 51.6498 161.239 51.3332 162.178 51.2908C164.758 51.1408 167.328 52.6501 167.985 55.1345C173.351 75.572 165.339 104.138 146.971 145.678C146.83 146.041 146.589 146.355 146.274 146.584C145.96 146.814 145.587 146.948 145.198 146.972C144.809 146.981 144.426 146.873 144.098 146.663C143.77 146.452 143.513 146.149 143.36 145.791C138.65 134.119 127.834 117.291 120.808 104.991C119.544 102.771 119.184 100.151 119.8 97.6728C120.416 95.1946 121.963 93.0483 124.119 91.6783C136.033 84.0376 150.133 75.1783 157.9 54.3939M192.516 60.7689C192.356 58.9033 192.807 57.0658 194.233 55.8564C194.936 55.2645 195.784 54.868 196.689 54.7067C197.595 54.5454 198.527 54.6251 199.392 54.9376C205.17 57.0876 210.697 59.8602 215.875 63.2064C231.606 73.2095 241.616 86.2501 241.822 110.719C239.184 136.268 233.973 161.487 226.269 185.991C226.097 186.564 225.777 187.082 225.342 187.493C224.907 187.904 224.371 188.194 223.788 188.332C223.206 188.471 222.597 188.454 222.023 188.283C221.449 188.113 220.93 187.794 220.518 187.36C206.841 173.325 187.366 164.344 170.977 158.925C170.487 158.768 170.032 158.514 169.641 158.18C169.249 157.845 168.929 157.435 168.698 156.975C168.451 156.52 168.306 156.018 168.27 155.502C168.234 154.986 168.31 154.469 168.491 153.985C181.887 122.11 194.702 86.9533 192.525 60.7595M205.893 236.7C196.737 255.25 185.897 272.92 173.51 289.491C173.209 289.894 172.808 290.212 172.346 290.413C171.885 290.614 171.378 290.691 170.878 290.636C170.377 290.581 169.9 290.396 169.493 290.1C169.086 289.804 168.763 289.406 168.557 288.947C162.9 276.3 152.422 260.297 137.544 249.253C136.736 248.665 136.191 247.784 136.026 246.799C135.861 245.814 136.089 244.803 136.662 243.985C142.873 234.985 148.528 225.615 153.594 215.925C157.03 209.353 159.074 202.144 159.598 194.747L160.546 182.231C160.612 181.421 160.873 180.639 161.305 179.951C161.736 179.262 162.327 178.687 163.027 178.274C163.728 177.86 164.517 177.621 165.329 177.576C166.141 177.53 166.952 177.68 167.694 178.013C200.311 192.225 216.888 210.235 205.893 236.7M43.4526 252.488C57.2801 254.419 78.4154 259.922 90.9108 263.297L90.8451 263.316L91.286 263.428C91.9561 263.601 92.5797 263.919 93.1124 264.361C93.645 264.802 94.0737 265.355 94.3676 265.981C94.6615 266.607 94.8135 267.29 94.8127 267.982C94.8119 268.673 94.6584 269.356 94.363 269.981C90.6857 277.828 85.5449 285.966 84.4755 287.55C83.528 289.144 82.2616 291.272 79.2034 292.519C73.6886 294.655 67.9478 296.156 62.0925 296.991H103.463C103.603 296.728 103.781 296.494 103.922 296.241C104.279 295.566 104.663 294.881 105.029 294.206L105.142 294.263C111.014 283.5 116.352 273.319 122.196 265.013C122.516 264.551 122.934 264.166 123.421 263.885C123.907 263.605 124.451 263.436 125.011 263.391C125.565 263.332 126.127 263.396 126.654 263.579C127.181 263.762 127.661 264.06 128.059 264.45C136.54 272.644 142.478 284.485 144.054 296.981H200.546C253.999 218.691 278.736 116.672 263.108 1.20013H239.468C241.944 18.797 243.426 36.0564 243.942 52.9408C243.951 53.3589 243.844 53.7713 243.632 54.1321C243.421 54.4929 243.113 54.7879 242.743 54.9842C242.374 55.1805 241.957 55.2705 241.539 55.244C241.121 55.2176 240.719 55.0758 240.378 54.8345C226.494 45.1314 210.255 36.3939 188.276 33.2345C187.395 33.1076 186.553 32.7902 185.807 32.3045C185.062 31.8187 184.432 31.1763 183.96 30.422C179.157 22.7064 170.189 11.672 159.335 1.20951H129.251C139.739 9.03763 149.654 18.0845 155.986 27.2908C156.485 28.0172 156.786 28.8611 156.858 29.7391C156.93 30.6171 156.772 31.4988 156.399 32.297C156.018 33.0943 155.438 33.7803 154.715 34.2892C153.993 34.7981 153.151 35.1129 152.272 35.2033C119.072 38.5595 81.9426 46.9689 52.1018 47.5408C51.5171 47.5507 50.9361 47.4452 50.3922 47.2305C49.8483 47.0157 49.3522 46.6958 48.9322 46.2891C48.5122 45.8824 48.1765 45.397 47.9446 44.8605C47.7126 44.324 47.5887 43.747 47.5802 43.1626C47.5521 35.4939 47.4864 22.8564 47.4864 14.3064C47.4864 10.1251 49.7003 6.25326 53.2838 4.10638C54.9067 3.12201 56.736 2.15638 58.6779 1.20013H22.7488C24.6907 2.15638 26.5012 3.12201 28.1335 4.10638C31.7264 6.26263 33.9403 10.1251 33.9403 14.3064C33.9403 22.8564 33.8746 35.4939 33.8465 43.1626C33.8267 44.3404 33.3408 45.4624 32.4951 46.283C31.6494 47.1035 30.5129 47.5558 29.3342 47.5408C19.8961 47.2703 10.4779 46.5194 1.11633 45.2908V61.2658C9.42786 62.297 20.9664 63.5158 29.4187 64.0126C30.5469 64.0703 31.61 64.5586 32.3886 65.3767C33.1671 66.1949 33.6016 67.2805 33.6026 68.4095L33.415 137.578C33.4034 138.72 32.9509 139.813 32.152 140.629C31.3531 141.444 30.2696 141.92 29.1279 141.956C19.782 142.27 10.4431 142.764 1.11633 143.438V157.819C16.9045 155.503 31.6326 156.45 40.6664 156.45H40.7602C50.4226 156.45 66.6141 155.372 83.6312 158.353C84.391 158.475 85.0383 159 85.3104 159.713C85.4532 160.066 85.4998 160.451 85.4454 160.828C85.391 161.205 85.2376 161.561 85.0008 161.86C77.6743 171.328 60.7698 186.881 44.644 192.31C42.0882 193.172 39.3198 193.172 36.764 192.31C23.4711 187.819 9.67176 176.475 1.11633 167.325V186.788C8.48038 193.819 16.6887 201.281 24.8501 208.2C29.0153 211.744 31.5669 216.825 31.9046 222.244C32.0922 225.403 32.0641 228.497 31.8671 231.685C31.7518 233.482 31.0738 235.198 29.9291 236.589C28.7843 237.981 27.2307 238.977 25.488 239.438C19.3529 241.097 10.1783 243.722 1.11633 246.422V260.485C13.0301 257.419 27.5519 253.95 37.9366 252.488C39.7565 252.235 41.6327 252.235 43.4526 252.488" fill="#C62534"/>
</g>
<path fill-rule="evenodd" clip-rule="evenodd" d="M377.302 54.2064C379.141 53.9251 381.261 54.2064 381.261 58.1626V132.46H398.118C401.083 132.46 402.368 133.444 402.368 136.416V147.45C402.368 150.422 401.083 151.556 398.118 151.556H340.341C337.367 151.556 336.101 150.431 336.101 147.45V136.416C336.101 133.444 337.367 132.46 340.341 132.46H357.902V76.2751L340.341 79.1064C337.658 79.5376 336.101 78.5439 336.101 75.572V64.5376C336.101 61.5658 337.658 60.4314 340.341 60.0095L377.302 54.197V54.2064ZM433.794 147.45C433.794 150.422 432.809 151.556 429.835 151.556H414.826C411.852 151.556 410.717 150.431 410.717 147.45V135.713C410.717 132.741 411.843 131.466 414.826 131.466H429.835C432.809 131.466 433.794 132.741 433.794 135.713V147.45ZM497.378 132.46H525.127C528.101 132.46 529.377 133.444 529.377 136.416V147.46C529.377 150.422 528.101 151.556 525.127 151.556H477.547C475.005 151.556 474.01 150.15 474.01 147.31V59.5783C474.01 56.6064 475.136 55.3314 478.119 55.3314H493.41C496.384 55.3314 497.369 56.6064 497.369 59.5783V132.46H497.378ZM562.51 147.31C562.51 150.281 561.516 151.556 558.542 151.556H543.251C540.277 151.556 539.142 150.281 539.142 147.31V59.5783C539.142 56.6064 540.277 55.3314 543.251 55.3314H558.542C561.516 55.3314 562.51 56.6064 562.51 59.5783V147.31ZM643.496 99.197C646.47 99.197 647.745 100.191 647.745 103.163V128.494C647.745 140.663 639.537 152.681 612.914 152.681C586.291 152.681 578.083 140.663 578.083 128.494V78.4033C578.083 66.2345 586.291 54.2064 612.914 54.2064C639.537 54.2064 647.745 66.2345 647.745 78.3939V83.4939C647.745 86.4658 646.751 87.7408 643.777 87.7408H629.199C626.226 87.7408 625.09 86.4658 625.09 83.4939V82.5001C625.09 75.9939 620.137 73.3126 613.195 73.3126C606.253 73.3126 601.441 75.9939 601.441 82.5001V124.388C601.441 130.894 606.253 133.585 613.195 133.585C620.137 133.585 625.09 130.894 625.09 124.397V118.303H613.486C610.503 118.303 609.237 117.178 609.237 114.197V103.163C609.237 100.191 610.503 99.197 613.486 99.197H643.505H643.496ZM696.461 107.691C694.05 98.6345 692.774 86.1845 692.07 77.972C691.358 85.1908 689.519 99.7689 687.249 107.691L685.129 115.331H698.44L696.461 107.691ZM700.138 55.3314C703.112 55.3314 704.528 56.747 705.373 59.5783L731.001 147.31C731.846 150 730.861 151.556 727.887 151.556H712.174C709.2 151.556 707.924 150 707.221 147.31L703.534 133.725H680.035L676.348 147.319C675.644 150 674.369 151.556 671.395 151.556H657.089C654.124 151.556 653.13 150 653.974 147.31L679.603 59.5783C680.447 56.747 681.873 55.3314 684.847 55.3314H700.138Z" fill="#FFFFFE"/>
<path d="M355.687 165.282L358.087 169.698L360.487 165.282C360.743 164.77 361.127 164.258 361.639 163.746C362.215 163.234 362.919 162.978 363.751 162.978H369.895C370.727 162.978 371.239 163.202 371.431 163.65C371.687 164.098 371.591 164.642 371.143 165.282L364.135 174.786C363.623 175.426 363.079 176.002 362.503 176.514C361.927 176.962 361.223 177.186 360.391 177.186H355.783C354.951 177.186 354.247 176.93 353.671 176.418C353.095 175.906 352.551 175.33 352.039 174.69L345.031 165.282C344.583 164.642 344.455 164.098 344.647 163.65C344.903 163.202 345.447 162.978 346.279 162.978H352.423C353.255 162.978 353.927 163.234 354.439 163.746C355.015 164.258 355.431 164.77 355.687 165.282ZM341.095 182.37H375.271C376.103 182.37 376.711 182.562 377.095 182.946C377.543 183.266 377.767 183.842 377.767 184.674V190.53C377.767 190.978 377.703 191.362 377.575 191.682C377.447 192.002 377.319 192.29 377.191 192.546L352.615 236.898H376.999C377.831 236.898 378.439 237.09 378.823 237.474C379.207 237.794 379.399 238.37 379.399 239.202V245.25C379.399 246.082 379.207 246.69 378.823 247.074C378.439 247.458 377.831 247.65 376.999 247.65H339.463C338.631 247.65 338.023 247.458 337.639 247.074C337.255 246.69 337.063 246.082 337.063 245.25V239.202C337.063 238.818 337.095 238.498 337.159 238.242C337.287 237.986 337.383 237.762 337.447 237.57L362.119 193.122H341.095C340.263 193.122 339.655 192.93 339.271 192.546C338.887 192.162 338.695 191.554 338.695 190.722V184.674C338.695 183.842 338.887 183.266 339.271 182.946C339.655 182.562 340.263 182.37 341.095 182.37ZM424.627 247.65H390.835C390.003 247.65 389.395 247.458 389.011 247.074C388.691 246.626 388.531 245.986 388.531 245.154V184.866C388.531 184.034 388.691 183.426 389.011 183.042C389.395 182.594 390.003 182.37 390.835 182.37H423.667C424.499 182.37 425.107 182.562 425.491 182.946C425.875 183.266 426.067 183.842 426.067 184.674V190.722C426.067 191.554 425.875 192.162 425.491 192.546C425.107 192.93 424.499 193.122 423.667 193.122H401.491V208.674H422.035C422.867 208.674 423.475 208.866 423.859 209.25C424.307 209.57 424.531 210.146 424.531 210.978V216.738C424.531 217.57 424.307 218.178 423.859 218.562C423.475 218.882 422.867 219.042 422.035 219.042H401.491V236.898H424.627C425.459 236.898 426.067 237.09 426.451 237.474C426.835 237.794 427.027 238.37 427.027 239.202V245.25C427.027 246.082 426.835 246.69 426.451 247.074C426.067 247.458 425.459 247.65 424.627 247.65ZM484.218 184.77V245.25C484.218 246.082 484.026 246.69 483.642 247.074C483.322 247.458 482.746 247.65 481.914 247.65H474.33C473.69 247.65 473.21 247.586 472.89 247.458C472.634 247.266 472.378 246.946 472.122 246.498L453.594 214.722C452.89 213.506 452.186 212.194 451.482 210.786C450.778 209.378 450.202 208.066 449.754 206.85V245.25C449.754 246.082 449.562 246.69 449.178 247.074C448.858 247.458 448.282 247.65 447.45 247.65H439.866C439.034 247.65 438.426 247.458 438.042 247.074C437.722 246.69 437.562 246.082 437.562 245.25V184.77C437.562 183.938 437.722 183.33 438.042 182.946C438.426 182.562 439.034 182.37 439.866 182.37H447.45C447.962 182.37 448.378 182.466 448.698 182.658C449.018 182.786 449.274 183.01 449.466 183.33L468.762 216.45C469.338 217.474 469.914 218.626 470.49 219.906C471.13 221.186 471.642 222.274 472.026 223.17V184.77C472.026 183.938 472.186 183.33 472.506 182.946C472.89 182.562 473.498 182.37 474.33 182.37H481.914C482.746 182.37 483.322 182.562 483.642 182.946C484.026 183.33 484.218 183.938 484.218 184.77Z" fill="white"/>
</svg>
