<?xml version="1.0" encoding="UTF-8" standalone="no"?><!DOCTYPE svg PUBLIC "-//W3C//DTD SVG 1.1//EN" "http://www.w3.org/Graphics/SVG/1.1/DTD/svg11.dtd"><svg width="100%" height="100%" viewBox="0 0 276 276" version="1.1" xmlns="http://www.w3.org/2000/svg" xmlns:xlink="http://www.w3.org/1999/xlink" xml:space="preserve" xmlns:serif="http://www.serif.com/" style="fill-rule:evenodd;clip-rule:evenodd;stroke-linejoin:round;stroke-miterlimit:1.41421;"><path d="M275.109,137.555c0,-49.144 -26.218,-94.554 -68.776,-119.126c-42.561,-24.572 -94.996,-24.572 -137.557,0c-42.559,24.572 -68.776,69.982 -68.776,119.126c0,49.143 26.217,94.553 68.776,119.126c42.561,24.571 94.995,24.571 137.557,0c42.558,-24.573 68.776,-69.983 68.776,-119.126" style="fill:#1e6734;"/><path d="M237.04,137.555c0,-35.543 -18.961,-68.386 -49.741,-86.155c-30.78,-17.771 -68.704,-17.771 -99.483,0c-30.781,17.769 -49.742,50.612 -49.742,86.155c0,35.543 18.961,68.385 49.742,86.154c30.779,17.772 68.703,17.772 99.483,0c30.781,-17.769 49.741,-50.611 49.741,-86.154" style="fill:#fff;"/><path d="M10.669,189.513c-1.61,0.661 -3.073,1.638 -4.296,2.876c-1.877,1.9 -3.159,4.318 -3.557,6.957c-0.427,2.832 0.366,5.68 1.663,8.257c1.49,2.96 4.238,5.016 6.929,7.003c2.412,1.781 5.145,3.068 7.902,4.265c2.004,0.871 4.012,1.763 6.143,2.227c1.292,0.282 2.604,0.437 3.924,0.465c-2.505,-3.32 -4.879,-6.738 -7.112,-10.248c-3.51,-5.52 -6.654,-11.262 -9.471,-17.162c-0.733,-1.537 -1.44,-3.082 -2.125,-4.64" style="fill:#1e6734;"/><path d="M12.607,116.858c0.264,-0.811 1.125,-1.269 1.945,-1.038c0.73,0.206 1.212,0.895 1.158,1.649c-0.574,3.423 -0.999,6.867 -1.278,10.326c-0.344,4.247 -0.455,8.506 -0.366,12.768c0.093,4.453 0.435,8.897 0.972,13.318c0.861,7.064 2.325,14.04 4.443,20.831c1.483,4.747 3.241,9.399 5.293,13.927c1.077,2.381 2.234,4.723 3.468,7.026c-1.023,-0.481 -2,-1.053 -2.921,-1.708c-0.987,-0.704 -1.904,-1.501 -2.739,-2.384c-2.004,-4.248 -3.75,-8.613 -5.232,-13.073c-1.588,-4.779 -2.833,-9.663 -3.831,-14.602c-1.021,-5.046 -1.778,-10.142 -2.189,-15.272c-0.371,-4.614 -0.473,-9.243 -0.366,-13.87c0.1,-4.35 0.368,-8.695 0.913,-13.012c0.208,-1.635 0.452,-3.261 0.73,-4.886" style="fill:#fff;"/><path d="M25.08,120.46c0.322,-0.755 1.159,-1.148 1.949,-0.917c0.744,0.222 1.23,0.939 1.154,1.712c-0.641,4.516 -1.027,9.063 -1.154,13.624c-0.126,4.486 -0.048,8.975 0.365,13.439c0.406,4.399 1.138,8.756 2.069,13.075c1.398,6.476 3.392,12.804 5.901,18.938c1.659,4.056 3.548,8.01 5.657,11.851l-2.311,1.834c-1.75,-2.903 -3.335,-5.901 -4.747,-8.983c-1.918,-4.189 -3.441,-8.549 -4.805,-12.949c-1.396,-4.498 -2.593,-9.057 -3.466,-13.686c-1.276,-6.762 -1.835,-13.64 -1.829,-20.524c0,-4.39 0.198,-8.775 0.671,-13.136c0.155,-1.43 0.335,-2.855 0.546,-4.278" style="fill:#fff;"/><path d="M13.553,109.895l18.568,5.597l2.142,-7.196l-6.771,-2.05l2.737,-8.998l-4.579,-1.401l-2.737,9.048l-2.539,-0.849l3.483,-10.947l-4.579,-1.401l-5.725,18.197Z" style="fill:#fff;"/><path d="M21.117,86.7l16.776,9.496l8.963,-16.446c0.632,-1.162 0.77,-2.529 0.397,-3.799c-0.41,-1.386 -1.447,-2.48 -2.739,-3.149c-1.001,-0.519 -2.125,-0.777 -3.233,-0.597c-0.928,0.149 -1.794,0.567 -2.489,1.197c0.103,-0.693 0.016,-1.403 -0.251,-2.049c-0.388,-0.937 -1.188,-1.619 -2.091,-2.1c-0.92,-0.487 -1.963,-0.725 -2.985,-0.547c-0.645,0.111 -1.245,0.389 -1.795,0.748c-0.799,0.518 -1.415,1.272 -1.89,2.101l-8.663,15.145Z" style="fill:#fff;"/><path d="M28.71,82.453l2.295,1.315l3.18,-5.524c0.355,-0.611 0.175,-1.394 -0.415,-1.785c-0.582,-0.384 -1.359,-0.262 -1.79,0.287l-3.27,5.733l0,-0.026Z" style="fill:#1e6734;"/><path d="M34.624,85.798l2.531,1.434l3.451,-6.019c0.353,-0.657 0.159,-1.476 -0.454,-1.902c-0.595,-0.414 -1.406,-0.333 -1.905,0.193l-3.623,6.294Z" style="fill:#1e6734;"/><path d="M33.525,55.3l4.399,-4.952l2.491,0.106l-0.58,-2.129l4.609,-5.054l0.054,6.226l-4.931,5.537l-6.042,0.266Z" style="fill:#fff;"/><path d="M49.377,55.192l5.726,-6.441c-0.688,-0.564 -1.51,-0.951 -2.386,-1.116c-0.805,-0.153 -1.635,-0.066 -2.44,0.106c-1.408,0.3 -2.58,1.232 -3.764,2.074c-1.623,1.157 -2.917,2.706 -4.241,4.207c-1.3,1.474 -2.719,2.889 -3.499,4.683c-0.442,1.011 -0.907,2.043 -0.901,3.14c0.005,0.911 0.213,1.806 0.637,2.608c0.493,0.939 1.252,1.708 2.172,2.234c0.623,0.359 1.301,0.621 2.014,0.694c0.923,0.096 1.829,-0.208 2.704,-0.531c1.054,-0.392 1.963,-1.08 2.864,-1.758c0.99,-0.752 1.916,-1.584 2.808,-2.449c0.677,-0.655 1.375,-1.285 2.121,-1.862c0.497,-0.384 0.939,-0.939 1.539,-0.906c0.385,0.022 0.778,0.124 1.007,0.425c0.298,0.394 0.047,0.94 -0.106,1.44c-0.223,0.737 -0.769,1.318 -1.326,1.862c-0.386,0.372 -0.781,0.749 -1.272,0.956c-0.24,0.102 -0.484,0.214 -0.742,0.214c-0.328,-0.001 -0.648,-0.112 -0.901,-0.319l-6.15,6.654c0.53,0.515 1.163,0.914 1.856,1.17c0.61,0.224 1.259,0.311 1.909,0.321c0.984,0.012 1.945,-0.268 2.862,-0.639c1.266,-0.512 2.296,-1.45 3.339,-2.342c1.19,-1.021 2.267,-2.166 3.288,-3.355c1.024,-1.192 1.996,-2.431 2.809,-3.778c0.72,-1.19 1.523,-2.365 1.748,-3.724c0.184,-1.089 0.217,-2.214 -0.158,-3.249c-0.346,-0.958 -0.978,-1.779 -1.748,-2.448c-0.582,-0.504 -1.228,-0.946 -1.964,-1.17c-0.84,-0.257 -1.732,-0.227 -2.598,-0.055c-1.075,0.215 -1.983,0.892 -2.915,1.491c-1.252,0.804 -2.387,1.776 -3.499,2.769c-0.982,0.879 -2.003,1.717 -3.021,2.555c-0.451,0.371 -0.873,0.806 -1.429,0.958c-0.268,0.073 -0.555,0.123 -0.797,0c-0.377,-0.189 -0.43,-0.676 -0.424,-1.119c0.009,-0.571 0.535,-0.971 0.9,-1.436c0.382,-0.486 0.727,-1.014 1.222,-1.384c0.372,-0.279 0.763,-0.551 1.218,-0.639c0.299,-0.056 0.601,-0.04 0.901,0c0.219,0.031 0.431,0.082 0.637,0.159" style="fill:#fff;"/><path d="M67.28,32.222l9.252,16.914l16.284,-9.249c1.151,-0.656 1.988,-1.745 2.341,-3.019c0.382,-1.394 0.077,-2.872 -0.666,-4.118c-0.579,-0.97 -1.397,-1.783 -2.434,-2.215c-0.868,-0.36 -1.821,-0.463 -2.746,-0.294c0.453,-0.532 0.753,-1.181 0.868,-1.874c0.163,-0.997 -0.158,-1.998 -0.671,-2.886c-0.524,-0.901 -1.287,-1.651 -2.249,-2.038c-0.606,-0.246 -1.265,-0.325 -1.92,-0.309c-0.952,0.016 -1.872,0.331 -2.713,0.786l-15.346,8.302Z" style="fill:#fff;"/><path d="M75.972,32.619l1.256,2.327l5.615,-3.018c0.622,-0.334 0.884,-1.094 0.589,-1.736c-0.293,-0.634 -1.019,-0.94 -1.674,-0.699l-5.799,3.149l0.013,-0.023Z" style="fill:#1e6734;"/><path d="M79.235,38.58l1.394,2.552l6.106,-3.294c0.646,-0.375 0.912,-1.172 0.617,-1.856c-0.287,-0.666 -1.021,-1.027 -1.723,-0.841l-6.394,3.439Z" style="fill:#1e6734;"/><path d="M105.897,15.031c1.248,-0.31 2.511,-0.571 3.793,-0.642c1.48,-0.082 2.981,-0.095 4.393,0.342c1.25,0.387 2.445,0.963 3.412,1.842c0.973,0.884 1.639,2.044 2.174,3.252c0.649,1.469 0.971,3.061 0.98,4.668c0.006,1.288 -0.087,2.59 -0.595,3.766c-0.551,1.278 -1.544,2.293 -2.601,3.209c-1.088,0.945 -2.382,1.615 -3.712,2.184c-1.345,0.577 -2.784,0.9 -4.22,1.199c-1.197,0.251 -2.401,0.504 -3.624,0.557c-1.365,0.06 -2.737,0.023 -4.05,-0.341c-1.078,-0.301 -2.137,-0.7 -3.03,-1.371c-0.955,-0.717 -1.665,-1.699 -2.26,-2.74c-0.655,-1.146 -1.05,-2.42 -1.277,-3.725c-0.215,-1.237 -0.328,-2.498 -0.084,-3.723c0.248,-1.255 0.786,-2.432 1.534,-3.47c0.667,-0.929 1.53,-1.697 2.473,-2.352c0.935,-0.652 2.005,-1.078 3.069,-1.498c1.183,-0.467 2.391,-0.852 3.625,-1.157" style="fill:#fff;"/><path d="M106.944,19.884c0.577,-0.112 1.161,-0.213 1.741,-0.147c0.714,0.078 1.398,0.322 1.988,0.728c0.882,0.609 1.384,1.605 1.74,2.625c0.29,0.828 0.421,1.704 0.339,2.575c-0.084,0.886 -0.295,1.77 -0.821,2.48c-0.496,0.671 -1.206,1.146 -1.985,1.457c-0.717,0.29 -1.501,0.36 -2.276,0.339c-0.842,-0.023 -1.703,-0.106 -2.42,-0.535c-0.773,-0.459 -1.286,-1.23 -1.692,-2.038c-0.447,-0.885 -0.632,-1.876 -0.632,-2.869c0.004,-0.821 0.05,-1.661 0.437,-2.381c0.337,-0.622 0.857,-1.12 1.452,-1.506c0.633,-0.411 1.385,-0.584 2.129,-0.728" style="fill:#1e6734;"/><path d="M124.219,11.643l7.398,-0.092l0.066,6.576l8.268,-0.103l-0.066,-6.588l7.465,-0.089l0.181,19.112l-7.451,0.102l-0.08,-7.664l-8.264,0.116l0.103,7.652l-7.427,0.089l-0.193,-19.111Z" style="fill:#fff;"/><path d="M150.757,30.959l20.475,4.4l1.06,-5.01l-13.168,-2.856l0.516,-2.247l10.194,2.197l1.098,-4.66l-10.31,-2.215l0.486,-2.136l12.291,2.636l1.001,-4.649l-19.564,-4.219l-4.079,18.759Z" style="fill:#fff;"/><path d="M172.084,35.255l6.338,3.075l6.169,-12.724l-2.21,14.649l5.232,2.555l10.025,-10.697l-6.105,12.598l6.252,3.035l8.404,-17.158l-9.797,-4.815l-7.944,8.559l2.087,-11.387l-10.005,-4.918l-8.446,17.228Z" style="fill:#fff;"/><path d="M206.31,54.295l5.606,5.859l1.971,-0.869l5.481,5.847l-0.919,1.844l5.666,5.907l8.429,-19.094l-6.741,-6.757l-19.493,7.263Z" style="fill:#fff;"/><path d="M218.505,57.253l3.193,3.195l2.951,-5.935l-6.144,2.74Z" style="fill:#1e6734;"/><path d="M199.585,50.173l6.016,4.46l11.652,-15.284l-6.03,-4.474l-11.638,15.298Z" style="fill:#fff;"/><path d="M223.877,72.723l3.704,6l9.473,-5.758l-5.295,12.498l4.327,7.092l16.337,-9.933l-3.81,-6.213l-9.174,5.589l5.408,-11.709l-4.6,-7.504l-16.37,9.938Z" style="fill:#fff;"/><path d="M254.117,103.97l2.733,8.175c0.835,-0.316 1.574,-0.835 2.157,-1.516c0.535,-0.622 0.869,-1.387 1.124,-2.168c0.438,-1.371 0.213,-2.848 0.071,-4.297c-0.197,-1.985 -0.894,-3.875 -1.534,-5.773c-0.633,-1.861 -1.155,-3.796 -2.323,-5.362c-0.658,-0.89 -1.322,-1.805 -2.278,-2.348c-0.787,-0.445 -1.669,-0.712 -2.576,-0.745c-1.059,-0.041 -2.106,0.238 -3.02,0.769c-0.621,0.364 -1.184,0.825 -1.605,1.403c-0.538,0.757 -0.729,1.692 -0.885,2.613c-0.182,1.108 -0.038,2.238 0.1,3.359c0.159,1.234 0.42,2.445 0.726,3.656c0.234,0.911 0.431,1.83 0.561,2.763c0.085,0.622 0.347,1.283 0.021,1.785c-0.212,0.326 -0.496,0.615 -0.873,0.661c-0.489,0.063 -0.838,-0.426 -1.195,-0.808c-0.527,-0.559 -0.759,-1.321 -0.953,-2.076c-0.133,-0.519 -0.264,-1.049 -0.196,-1.578c0.03,-0.26 0.054,-0.524 0.183,-0.752c0.164,-0.283 0.417,-0.503 0.722,-0.617l-2.712,-8.647c-0.706,0.202 -1.366,0.551 -1.935,1.026c-0.497,0.414 -0.898,0.938 -1.227,1.496c-0.501,0.847 -0.736,1.819 -0.868,2.8c-0.19,1.353 0.11,2.709 0.367,4.061c0.293,1.539 0.747,3.042 1.276,4.52c0.523,1.484 1.115,2.944 1.873,4.317c0.676,1.219 1.298,2.5 2.365,3.37c0.85,0.703 1.809,1.292 2.896,1.479c0.998,0.178 2.031,0.039 2.993,-0.296c0.726,-0.255 1.43,-0.595 1.992,-1.118c0.639,-0.602 1.057,-1.393 1.341,-2.232c0.346,-1.037 0.213,-2.162 0.156,-3.27c-0.077,-1.486 -0.352,-2.953 -0.662,-4.412c-0.272,-1.286 -0.491,-2.591 -0.709,-3.89c-0.1,-0.573 -0.267,-1.159 -0.123,-1.72c0.072,-0.263 0.169,-0.536 0.401,-0.689c0.349,-0.233 0.797,-0.037 1.178,0.191c0.493,0.291 0.578,0.946 0.796,1.492c0.232,0.577 0.521,1.139 0.596,1.747c0.054,0.464 0.098,0.939 -0.055,1.379c-0.096,0.285 -0.262,0.543 -0.446,0.78c-0.139,0.175 -0.285,0.333 -0.453,0.472" style="fill:#fff;"/><path d="M247.553,123.124c0.024,-0.732 0.549,-1.351 1.267,-1.493c0.815,-0.163 1.618,0.339 1.831,1.143c0.42,3.308 0.703,6.632 0.854,9.966c0.177,3.953 0.183,7.918 -0.033,11.871c-0.239,4.393 -0.763,8.768 -1.517,13.106c-1.059,6.086 -2.653,12.068 -4.709,17.894c-1.497,4.25 -3.209,8.423 -5.185,12.471c-1.264,2.584 -2.568,5.153 -4.107,7.584c-0.524,0.83 -1.074,1.644 -1.647,2.443l-2.052,-2.443c1.685,-2.639 3.235,-5.359 4.645,-8.154c1.527,-3.025 2.839,-6.147 4.078,-9.299c2.007,-5.104 3.681,-10.332 4.902,-15.677c1.314,-5.745 2.077,-11.602 2.434,-17.487c0.381,-6.219 0.257,-12.462 -0.378,-18.662c-0.113,-1.087 -0.24,-2.178 -0.383,-3.263" style="fill:#fff;"/><path d="M260.04,118.113c-0.221,-0.873 0.363,-1.743 1.255,-1.873c0.803,-0.113 1.556,0.425 1.707,1.222c0.455,2.811 0.82,5.635 1.093,8.472c0.424,4.399 0.639,8.817 0.61,13.237c-0.038,5.671 -0.527,11.332 -1.341,16.947c-0.89,6.13 -2.205,12.189 -3.974,18.124c-1.487,4.993 -3.258,9.896 -5.357,14.665c-2.329,5.295 -5.063,10.398 -8.111,15.314c-2.827,4.557 -5.933,8.936 -9.291,13.117c-4.364,5.436 -9.174,10.497 -14.362,15.153c-3.175,2.85 -6.446,5.599 -9.899,8.105c-1.656,1.205 -3.347,2.357 -5.071,3.461c-0.759,0.524 -1.804,0.323 -2.311,-0.447c-0.605,-0.918 -0.158,-2.162 0.892,-2.484c2.837,-1.782 5.584,-3.698 8.235,-5.742c4.405,-3.397 8.495,-7.174 12.374,-11.163c4.359,-4.482 8.392,-9.265 12.047,-14.336c3.467,-4.81 6.61,-9.845 9.331,-15.113c2.602,-5.033 4.815,-10.254 6.693,-15.601c1.626,-4.63 2.996,-9.35 4.097,-14.134c1.585,-6.905 2.557,-13.939 2.878,-21.019c0.244,-5.335 0.129,-10.683 -0.28,-16.009c-0.186,-2.409 -0.363,-4.819 -0.732,-7.207c-0.139,-0.9 -0.299,-1.795 -0.483,-2.689" style="fill:#fff;"/><path d="M203.489,226.862c-1.606,1.332 -3.281,2.586 -5.012,3.751c-1.06,0.715 -2.144,1.397 -3.249,2.047c-0.655,0.489 -0.807,1.408 -0.347,2.083c0.483,0.706 1.449,0.879 2.145,0.383c1.931,-1.178 3.82,-2.417 5.669,-3.716c2.097,-1.474 4.138,-3.025 6.119,-4.652c-1.037,0.055 -2.074,0.092 -3.111,0.104c-0.736,0.012 -1.477,0.012 -2.214,0" style="fill:#fff;"/><path d="M40.426,219.279l2.593,-1.774c1.621,1.989 3.307,3.925 5.063,5.796c2.289,2.446 4.689,4.785 7.186,7.017c3.666,3.278 7.593,6.243 11.605,9.087c1.505,1.066 3.029,2.103 4.574,3.113c0.595,0.545 0.664,1.461 0.156,2.088c-0.54,0.667 -1.526,0.756 -2.177,0.199c-2.691,-1.692 -5.312,-3.494 -7.854,-5.4c-2.152,-1.615 -4.237,-3.317 -6.282,-5.065c-3.42,-2.925 -6.682,-6.025 -9.74,-9.322c-1.392,-1.502 -2.755,-3.031 -4.105,-4.571c-0.342,-0.388 -0.681,-0.778 -1.019,-1.168" style="fill:#fff;"/><path d="M49.671,209.941l2.298,-2.021c1.782,2.27 3.668,4.459 5.656,6.555c1.906,2.014 3.913,3.936 5.987,5.781c2.262,2.01 4.619,3.914 7.02,5.753c2.063,1.579 4.172,3.103 6.323,4.564c0.694,0.485 0.846,1.448 0.337,2.125c-0.459,0.609 -1.303,0.779 -1.96,0.388c-1.687,-1.092 -3.341,-2.233 -4.96,-3.423c-2.567,-1.889 -5.038,-3.905 -7.431,-6.01c-2.815,-2.473 -5.5,-5.088 -8.083,-7.803c-1.358,-1.43 -2.718,-2.859 -3.973,-4.381c-0.415,-0.502 -0.819,-1.011 -1.214,-1.528" style="fill:#fff;"/><path d="M74.666,250.938l6.834,3.15l2.813,-6.062l7.899,3.628c1.346,0.585 2.852,0.655 4.288,0.323c1.103,-0.252 2.18,-0.677 2.98,-1.468c0.646,-0.638 1.098,-1.442 1.365,-2.314c0.264,-0.859 0.306,-1.769 0.177,-2.658c-0.139,-0.966 -0.47,-1.902 -1.043,-2.692c-0.327,-0.449 -0.742,-0.826 -1.164,-1.192c-0.665,-0.576 -1.343,-1.145 -2.138,-1.512l-14.023,-6.484l-7.988,17.281Z" style="fill:#fff;"/><path d="M87.697,240.67l4.752,2.201c0.612,0.356 0.989,1.011 0.985,1.721c0,0.572 -0.237,1.125 -0.677,1.49c-0.547,0.457 -1.31,0.561 -1.959,0.268l-4.729,-2.159l1.628,-3.521Z" style="fill:#1e6734;"/><path d="M99.941,261.73l7.386,1.678l1.248,-5.589l4.925,1.105c0.468,0.099 0.926,0.289 1.21,0.666c0.22,0.291 0.302,0.657 0.34,1.023c0.05,0.475 -0.07,0.948 -0.176,1.417c-0.104,0.455 -0.213,0.912 -0.246,1.378c-0.021,0.331 0,0.664 0.013,0.993c0.009,0.219 0.022,0.437 0.042,0.655l8.184,1.855c-0.204,-0.375 -0.366,-0.774 -0.475,-1.186c-0.109,-0.403 -0.16,-0.822 -0.176,-1.242c-0.033,-0.815 0.185,-1.615 0.378,-2.412c0.12,-0.494 0.224,-0.994 0.288,-1.498c0.062,-0.513 0.152,-1.035 0.012,-1.529c-0.122,-0.43 -0.387,-0.801 -0.666,-1.157c-0.234,-0.3 -0.509,-0.566 -0.815,-0.791c0.387,-0.037 0.77,-0.135 1.126,-0.288c0.518,-0.22 0.972,-0.557 1.374,-0.951c0.554,-0.54 0.966,-1.21 1.234,-1.939c0.258,-0.703 0.371,-1.457 0.324,-2.209c-0.046,-0.782 -0.204,-1.562 -0.624,-2.22c-0.315,-0.493 -0.757,-0.891 -1.238,-1.225c-0.88,-0.621 -1.867,-1.087 -2.917,-1.325l-16.615,-3.767l-4.136,18.558Z" style="fill:#fff;"/><path d="M110.419,249.628l-0.708,3.122l5.583,1.267c0.797,0.126 1.562,-0.359 1.792,-1.13c0.246,-0.822 -0.199,-1.692 -1.006,-1.977l-5.661,-1.282Z" style="fill:#1e6734;"/><path d="M125.279,267.02l8.17,-18.936l9.302,0l7.793,18.941l-8.203,0l-0.662,-1.894l-7.766,0l-0.697,1.901l-7.937,-0.012Z" style="fill:#fff;"/><path d="M135.567,260.438l4.526,0l-2.228,-6.35l-2.298,6.35Z" style="fill:#1e6734;"/><path d="M154.322,266.502l7.236,-1.6l-1.662,-7.509l7.948,-1.793l1.664,7.478l7.239,-1.599l-4.105,-18.481l-7.238,1.599l1.424,6.31l-7.985,1.811l-1.421,-6.311l-7.239,1.632l4.139,18.463Z" style="fill:#fff;"/><path d="M180.72,260.267l-0.709,-20.611l8.41,-3.978l15.138,13.793l-7.413,3.506l-1.41,-1.428l-7.019,3.32l0.185,2.016l-7.182,3.382Z" style="fill:#fff;"/><path d="M187.206,249.919l4.093,-1.935l-4.728,-4.79l0.635,6.725Z" style="fill:#1e6734;"/><path d="M61.429,73.075c0.777,0.322 1.623,0.425 2.467,0.445c2.49,0.057 4.516,-1.828 6.66,-3.218c2.878,-1.869 5.317,-4.324 7.495,-6.981c1.293,-1.578 2.505,-3.226 3.504,-5.003c0.406,-0.723 0.87,-1.428 1.082,-2.227c0.179,-0.663 0.211,-1.353 0.099,-2.031c-4.183,2.413 -8.13,5.213 -11.787,8.369c-3.65,3.146 -6.992,6.632 -9.987,10.409c0.151,0.089 0.305,0.171 0.467,0.237" style="fill:#1e6734;"/><path d="M142.804,44.452c0.645,-1.495 -1.437,-2.534 -5.467,-2.722c-4.028,-0.187 -9.39,0.503 -14.066,1.811c-4.676,1.309 -7.955,3.038 -8.603,4.534c-0.646,1.497 1.437,2.535 5.466,2.722c4.028,0.19 9.39,-0.502 14.066,-1.81c4.677,-1.309 7.956,-3.036 8.604,-4.535" style="fill:#1e6734;"/><path d="M193.196,81.669c-0.977,-4.34 -4.751,-8.87 -9.905,-11.883c-5.156,-3.015 -10.906,-4.055 -15.085,-2.731c-4.177,1.325 -6.152,4.812 -5.176,9.152c0.977,4.34 4.753,8.871 9.907,11.885c5.155,3.014 10.905,4.056 15.083,2.731c4.178,-1.324 6.153,-4.814 5.176,-9.154" style="fill:#1e6734;"/><path d="M229.589,97.872c-0.47,1.614 -0.759,3.27 -0.868,4.945c-0.169,2.621 0.122,5.25 0.788,7.79c0.579,2.205 1.428,4.338 2.601,6.292c1.147,1.91 2.567,3.641 4.215,5.142c-0.621,-4.906 -1.66,-9.749 -3.111,-14.476c-1.014,-3.301 -2.226,-6.538 -3.625,-9.693" style="fill:#1e6734;"/><path d="M217.653,147.514c0.501,-5.346 -1.187,-10.02 -4.432,-12.259c-3.242,-2.241 -7.546,-1.705 -11.29,1.401c-3.745,3.108 -6.359,8.315 -6.859,13.663c-0.501,5.345 1.189,10.019 4.432,12.259c3.243,2.241 7.547,1.707 11.292,-1.4c3.743,-3.108 6.357,-8.316 6.857,-13.664" style="fill:#1e6734;"/><path d="M168.209,200.319c-0.062,-3.835 -3.188,-7.412 -8.203,-9.383c-5.014,-1.971 -11.154,-2.036 -16.109,-0.171c-4.953,1.865 -7.966,5.376 -7.903,9.212c0.061,3.836 3.188,7.413 8.202,9.383c5.015,1.971 11.154,2.037 16.107,0.174c4.953,-1.865 7.966,-5.377 7.906,-9.215" style="fill:#1e6734;"/><path d="M84.495,99.599c0.908,-4.858 -0.271,-8.862 -3.092,-10.505c-2.822,-1.643 -6.855,-0.676 -10.586,2.541c-3.728,3.215 -6.584,8.19 -7.492,13.048c-0.91,4.86 0.269,8.865 3.091,10.508c2.82,1.642 6.856,0.674 10.584,-2.542c3.73,-3.215 6.587,-8.19 7.495,-13.05" style="fill:#1e6734;"/><path d="M86.695,174.817c-0.841,-4.7 -3.956,-9.49 -8.169,-12.567c-4.217,-3.079 -8.891,-3.976 -12.265,-2.355c-3.373,1.621 -4.932,5.515 -4.091,10.213c0.842,4.699 3.955,9.49 8.17,12.569c4.215,3.078 8.89,3.976 12.263,2.355c3.373,-1.621 4.933,-5.516 4.092,-10.215" style="fill:#1e6734;"/><path d="M49.4,185.337l34.715,-29.578c0.302,-1.568 0.777,-3.097 1.415,-4.56c0.972,-2.232 2.14,-4.394 3.836,-6.13c1.055,-1.085 2.211,-2.078 3.548,-2.783c0.875,-0.46 1.834,-0.735 2.769,-1.065c0.797,-0.281 1.603,-0.544 2.413,-0.786c1.701,-1.163 3.317,-2.45 4.829,-3.85c1.158,-1.07 2.163,-2.293 3.264,-3.419c0.868,-0.888 1.744,-1.769 2.628,-2.641c-0.27,-2.014 -0.508,-4.034 -0.71,-6.055c-0.105,-1.068 -0.242,-2.134 -0.284,-3.208c-0.027,-0.711 -0.027,-1.426 0,-2.139c-0.465,-0.907 -0.891,-1.835 -1.277,-2.779c-0.835,-2.043 -1.667,-4.101 -2.058,-6.272c-0.295,-1.645 -0.431,-3.319 -0.357,-4.989c0.05,-1.152 0.161,-2.299 0.426,-3.419c0.176,-0.753 0.415,-1.494 0.71,-2.21c-0.426,-0.059 -0.839,-0.202 -1.207,-0.427c-0.604,-0.365 -1.031,-0.98 -1.632,-1.353c-0.343,-0.213 -0.824,-0.17 -1.135,-0.429c-0.284,-0.241 -0.486,-0.564 -0.568,-0.929c-0.751,0.017 -1.495,-0.103 -2.203,-0.354c-1.53,-0.542 -2.626,-1.845 -3.548,-3.206c-0.857,-1.261 -1.427,-2.697 -1.632,-4.207c-0.111,-0.826 -0.111,-1.667 0,-2.495c-0.57,-0.529 -1.072,-1.126 -1.492,-1.781c-0.604,-0.939 -1.032,-1.976 -1.278,-3.066c-0.2,-0.886 -0.271,-1.798 -0.213,-2.707c-0.644,-0.586 -1.173,-1.289 -1.561,-2.069c-0.567,-1.143 -0.764,-2.426 -0.78,-3.706c-0.022,-1.678 0.524,-3.303 1.206,-4.844c0.895,-2.023 2.453,-3.657 3.976,-5.277c1.417,-1.506 2.956,-2.898 4.616,-4.132c1.71,-1.272 3.515,-2.42 5.464,-3.28c2.02,-0.89 4.128,-1.574 6.317,-1.851c2.495,-0.313 5.033,-0.242 7.455,0.426c2.715,0.748 5.136,2.264 7.311,4.065c1.974,1.633 3.699,3.549 4.971,5.771c0.919,1.611 1.655,3.323 2.058,5.131c0.247,1.124 0.367,2.271 0.357,3.421c1.883,0.317 3.737,0.794 5.538,1.427c3.603,1.264 6.941,3.166 10.08,5.344c3.664,2.543 6.863,5.687 9.798,9.053c2.202,2.527 4.188,5.23 6.102,7.983c1.498,2.156 2.953,4.345 4.473,6.488c2.16,3.04 4.447,5.989 6.674,8.979c3.047,4.091 5.868,8.344 8.659,12.615c1.401,2.142 3.022,4.193 3.761,6.627c0.507,1.67 0.852,3.397 0.713,5.133c-0.09,1.101 -0.278,2.196 -0.713,3.207c-0.198,0.463 -0.459,0.896 -0.78,1.283c0.145,1.543 0.123,3.096 -0.071,4.633c-0.159,1.263 -0.378,2.527 -0.852,3.706c-0.22,0.554 -0.507,1.078 -0.852,1.566c0.241,1.465 0.433,2.94 0.568,4.418c0.219,2.348 0.365,4.7 0.284,7.057c-0.035,0.999 -0.105,1.998 -0.212,2.993c1.68,0.382 3.34,0.857 4.971,1.425c3.123,1.09 6.098,2.563 9.013,4.136c3.399,1.83 6.665,3.897 9.867,6.055c2.006,1.354 4.003,2.717 5.963,4.135c3.355,2.43 6.621,4.97 9.798,7.627c-2.791,4.619 -5.922,9.027 -9.368,13.184c-3.712,4.476 -7.711,8.71 -12.14,12.472c-3.418,2.905 -7.047,5.55 -10.861,7.913c-0.71,-0.887 -1.239,-1.905 -1.563,-2.995c-0.463,-1.546 -0.407,-3.192 -0.071,-4.775c0.393,-1.848 1.387,-3.496 2.557,-4.989c0.925,-1.179 2.055,-2.175 3.263,-3.065c0.67,-0.495 1.408,-0.904 1.988,-1.495c0.467,-0.48 0.851,-1.036 1.138,-1.642c-0.658,-0.514 -1.346,-0.989 -2.06,-1.424c-0.554,-0.335 -1.122,-0.641 -1.703,-0.924c-1.985,-0.971 -4.171,-1.45 -6.248,-2.211c-2.32,-0.852 -4.536,-1.965 -6.816,-2.924c-2.032,-0.854 -4.083,-1.665 -6.175,-2.354c-2.254,-0.738 -4.561,-1.326 -6.815,-2.064c-2.279,-0.748 -4.571,-1.516 -6.603,-2.782c-1.849,-1.154 -3.512,-2.582 -4.97,-4.205c-1.37,-1.529 -2.5,-3.251 -3.477,-5.058c-0.574,-1.064 -1.1,-2.158 -1.563,-3.277c-0.339,-0.819 -0.648,-1.653 -0.923,-2.495c-1.363,1.386 -2.975,2.501 -4.754,3.277c-1.556,0.683 -3.205,1.141 -4.901,1.212c-1.459,0.064 -2.911,-0.203 -4.33,-0.569c-1.024,-0.263 -2.023,-0.622 -2.982,-1.071c0.3,1.558 0.539,3.124 0.71,4.702c0.355,3.243 0.468,6.506 0.355,9.766c-0.077,2.281 -0.355,4.557 -0.355,6.843c0.004,2.401 0.404,4.81 0.141,7.196c-0.214,1.965 -0.43,3.967 -1.348,5.702c-0.885,1.681 -2.234,3.064 -3.762,4.205c-1.829,1.363 -4.017,2.117 -6.248,2.637c-1.83,0.429 -3.725,0.489 -5.608,0.5c-1.496,0.007 -2.99,-0.087 -4.471,-0.287c-1.444,0.829 -2.997,1.455 -4.616,1.855c-2.431,0.605 -4.962,0.65 -7.453,0.355c-3.273,-0.384 -6.424,-1.475 -9.23,-3.203c-2.041,-1.258 -4.005,-2.692 -5.393,-4.635c-1.226,-1.711 -2.171,-3.627 -2.487,-5.701c-0.292,-1.91 -0.11,-3.864 0.496,-5.702c0.55,-1.665 1.458,-3.185 2.629,-4.489c0.974,-1.087 2.153,-1.96 3.407,-2.708c1.595,-0.953 3.378,-1.531 5.182,-1.996c1.854,-0.476 3.764,-0.681 5.676,-0.785c1.562,-0.084 3.128,-0.06 4.687,0.074c-0.277,-1.57 -0.562,-3.138 -0.851,-4.705c-0.369,-1.998 -0.78,-3.988 -1.135,-5.988c-0.301,-1.701 -0.594,-3.406 -0.639,-5.131c-0.025,-0.954 0.022,-1.905 0.142,-2.849c-0.282,-0.692 -0.497,-1.409 -0.639,-2.141c-0.142,-0.729 -0.213,-1.466 -0.213,-2.208c-0.773,1.265 -1.844,2.317 -3.126,3.065c-0.793,0.465 -1.653,0.814 -2.554,0.996c-0.652,0.135 -1.321,0.184 -1.987,0.145l-36.419,30.074c-2.681,-2.301 -5.002,-4.992 -6.886,-7.981c-1.586,-2.517 -2.849,-5.22 -3.759,-8.053" style="fill:#1e6734;"/><path d="M90.196,158.262c-0.175,-0.572 -0.239,-1.173 -0.186,-1.768c0.062,-0.752 0.344,-1.462 0.617,-2.17c0.362,-0.939 0.853,-1.824 1.36,-2.697c0.529,-0.92 1.038,-1.863 1.79,-2.605c0.666,-0.661 1.446,-1.196 2.287,-1.612c0.728,-0.359 1.535,-0.533 2.314,-0.774c0.717,-0.224 1.438,-0.431 2.164,-0.622c1.313,-0.955 2.601,-1.949 3.859,-2.975c1.063,-0.867 2.127,-1.725 3.12,-2.668c0.573,-0.542 1.127,-1.099 1.667,-1.675c1.059,-1.13 2.052,-2.321 3.088,-3.476c0.486,-0.543 0.977,-1.086 1.514,-1.579c0.355,-0.328 0.725,-0.639 1.111,-0.932c-0.063,-1.283 -0.156,-2.565 -0.278,-3.844c-0.124,-1.305 -0.306,-2.604 -0.462,-3.908c-0.132,-1.112 -0.248,-2.228 -0.34,-3.347c-0.083,-0.992 -0.135,-1.987 -0.217,-2.979c-0.029,-0.365 0.026,-0.742 -0.093,-1.085l-0.278,-0.619c-0.279,-0.621 -0.575,-1.232 -0.832,-1.862c-0.507,-1.254 -0.884,-2.554 -1.299,-3.843c-0.347,-1.075 -0.753,-2.139 -0.926,-3.256c-0.144,-0.945 -0.191,-1.902 -0.126,-2.855c0.077,-1.138 0.381,-2.246 0.681,-3.348c0.284,-1.037 0.59,-2.069 0.988,-3.068c0.333,-0.839 0.715,-1.658 1.143,-2.451c-0.63,0.094 -1.274,0.055 -1.885,-0.124c-0.546,-0.158 -1.079,-0.381 -1.483,-0.775c-0.339,-0.327 -0.591,-0.731 -0.739,-1.179c-0.435,0.088 -0.882,0.055 -1.299,-0.093c-0.364,-0.127 -0.682,-0.351 -0.959,-0.618c-0.273,-0.266 -0.493,-0.583 -0.646,-0.932c-0.344,0.058 -0.698,0.014 -1.021,-0.125c-0.325,-0.143 -0.571,-0.409 -0.802,-0.682c-0.29,-0.341 -0.519,-0.728 -0.681,-1.147c-0.267,0.147 -0.562,0.239 -0.864,0.278c-0.582,0.075 -1.162,-0.098 -1.668,-0.4c-0.444,-0.268 -0.792,-0.665 -1.051,-1.118c-0.297,-0.519 -0.358,-1.136 -0.431,-1.737c-0.081,-0.666 0,-1.343 0,-2.014l0,-1.674c-0.582,-0.466 -1.108,-0.999 -1.572,-1.583c-0.489,-0.617 -0.966,-1.25 -1.237,-1.983c-0.269,-0.737 -0.273,-1.539 -0.34,-2.325c-0.069,-0.817 -0.091,-1.632 -0.06,-2.451c-0.437,-0.083 -0.85,-0.262 -1.207,-0.529c-0.423,-0.311 -0.764,-0.721 -0.958,-1.208c-0.199,-0.5 -0.204,-1.047 -0.122,-1.581c0.084,-0.556 0.383,-1.049 0.649,-1.552c0.453,-0.86 1.077,-1.61 1.667,-2.385c0.655,-0.861 1.281,-1.745 2.036,-2.515c0.808,-0.82 1.736,-1.508 2.658,-2.199c1.354,-1.012 2.75,-1.973 4.262,-2.73c1.173,-0.585 2.37,-1.129 3.646,-1.427c1.252,-0.292 2.54,-0.397 3.826,-0.341c1.207,0.049 2.407,0.212 3.554,0.589c1.245,0.413 2.402,1.049 3.457,1.829c1.07,0.789 1.952,1.801 2.809,2.822c0.773,0.921 1.54,1.854 2.102,2.915c0.568,1.074 0.961,2.226 1.233,3.411c0.237,1.038 0.317,2.102 0.401,3.164c0.047,0.579 0.12,1.158 0.093,1.737c-0.024,0.501 -0.096,0.998 -0.215,1.486c0.711,0.042 1.421,0.112 2.129,0.218c1.747,0.262 3.449,0.743 5.125,1.303c1.514,0.507 2.997,1.102 4.449,1.765c2.809,1.281 5.469,2.861 7.937,4.715c1.243,0.933 2.456,1.906 3.585,2.976c1.295,1.234 2.463,2.598 3.613,3.972c1.634,1.951 3.179,3.976 4.661,6.045c1.212,1.692 2.42,3.384 3.523,5.147c0.305,0.49 0.598,0.987 0.926,1.457c0.644,0.928 1.421,1.757 2.13,2.637c1.108,1.375 2.103,2.836 3.122,4.28c0.883,1.253 1.757,2.509 2.655,3.75c0.92,1.27 1.876,2.514 2.748,3.815c0.728,1.086 1.389,2.22 2.102,3.317c0.983,1.518 2.02,2.997 3.026,4.498c0.917,1.361 1.79,2.753 2.593,4.187c0.495,0.881 1.062,1.743 1.266,2.726c0.173,0.817 0.255,1.663 0,2.45c-0.182,0.572 -0.466,1.107 -0.895,1.522c-0.253,0.244 -0.546,0.442 -0.865,0.587c0.1,0.597 0.186,1.196 0.248,1.798c0.096,0.887 0.212,1.778 0.183,2.67c-0.035,1.067 -0.254,2.121 -0.494,3.163c-0.207,0.902 -0.443,1.792 -0.742,2.666c-0.16,0.473 -0.335,0.937 -0.525,1.398c0.143,1.195 0.267,2.394 0.371,3.594c0.114,1.28 0.217,2.562 0.278,3.845c0.072,1.633 0.081,3.268 0.061,4.9c-0.022,1.765 -0.088,3.534 -0.12,5.3l-0.032,1.923c0.648,0.012 1.299,0.054 1.946,0.125c1.274,0.138 2.532,0.405 3.769,0.744c1.56,0.429 3.071,1.03 4.569,1.643c1.575,0.647 3.137,1.324 4.664,2.078c2.481,1.223 4.864,2.637 7.196,4.123c1.604,1.021 3.182,2.074 4.759,3.133c2.437,1.638 4.864,3.29 7.254,4.993c1.25,0.89 2.486,1.798 3.707,2.73c1.18,0.902 2.376,1.802 3.397,2.882c0.221,0.236 0.44,0.471 0.649,0.714c0.326,0.377 0.639,0.766 1.02,1.086c0.35,0.297 0.764,0.513 1.142,0.776c0.833,0.573 1.586,1.25 2.318,1.95c0.979,0.943 1.839,1.998 2.714,3.041c0.645,0.767 1.322,1.511 1.856,2.357c0.512,0.803 1.03,1.616 1.234,2.543c0.168,0.755 0.198,1.533 0.064,2.294c-0.147,0.844 -0.568,1.605 -0.989,2.357c-0.468,0.839 -1.056,1.606 -1.701,2.325c-0.263,0.295 -0.504,0.616 -0.831,0.837c-0.333,0.227 -0.729,0.333 -1.112,0.467c-1.131,0.394 -2.321,0.597 -3.493,0.869c-0.715,0.163 -1.447,0.299 -2.069,0.681c-0.351,0.215 -0.668,0.483 -0.957,0.776c-0.587,0.589 -0.83,1.443 -1.326,2.109c-0.552,0.736 -1.163,1.43 -1.916,1.953c-0.762,0.528 -1.641,0.851 -2.531,1.117c-1.283,0.389 -2.643,0.399 -3.985,0.465c-1.091,0.051 -2.18,0.11 -3.271,0.154c-1.431,0.059 -2.864,0.098 -4.295,0.034c-0.928,-0.041 -1.863,-0.05 -2.751,-0.312c-0.782,-0.229 -1.552,-0.52 -2.19,-1.022c-0.689,-0.541 -1.308,-1.191 -1.576,-2.015c-0.229,-0.708 -0.177,-1.468 -0.033,-2.203c0.159,-0.808 0.574,-1.536 1.021,-2.233c0.465,-0.72 1.068,-1.337 1.697,-1.92c0.481,-0.445 0.97,-0.881 1.516,-1.243c0.514,-0.338 1.12,-0.545 1.574,-0.96c0.404,-0.366 0.658,-0.866 0.988,-1.303c0.502,-0.666 1.117,-1.251 1.516,-1.983c0.344,-0.633 0.557,-1.326 0.769,-2.017c0.176,-0.581 0.357,-1.163 0.434,-1.766c0.041,-0.332 0.106,-0.67 0.032,-0.993c-0.094,-0.426 -0.362,-0.792 -0.619,-1.15c-0.508,-0.707 -1.198,-1.257 -1.883,-1.798c-0.86,-0.68 -1.804,-1.243 -2.749,-1.795c-0.912,-0.535 -1.819,-1.074 -2.778,-1.522c-1.405,-0.657 -2.906,-1.088 -4.356,-1.642c-1.175,-0.45 -2.32,-0.983 -3.488,-1.458c-1.448,-0.589 -2.921,-1.12 -4.385,-1.672c-1.371,-0.517 -2.741,-1.027 -4.109,-1.55c-1.923,-0.741 -3.838,-1.513 -5.808,-2.111c-0.863,-0.262 -1.732,-0.487 -2.594,-0.744c-1.655,-0.498 -3.263,-1.139 -4.848,-1.829c-1.238,-0.541 -2.511,-1.043 -3.581,-1.861c-1.008,-0.769 -1.834,-1.747 -2.596,-2.763c-0.748,-0.999 -1.342,-2.099 -1.945,-3.193c-0.688,-1.253 -1.365,-2.511 -1.947,-3.815c-0.623,-1.407 -1.173,-2.844 -1.637,-4.311c-0.476,0.094 -0.969,0.049 -1.422,-0.122c-0.434,-0.163 -0.795,-0.47 -1.111,-0.808c-0.301,-0.322 -0.384,-0.818 -0.71,-1.117c-0.258,-0.236 -0.552,-0.474 -0.896,-0.464c-0.321,0.009 -0.566,0.268 -0.835,0.464c-0.929,0.682 -1.702,1.555 -2.561,2.325c-0.868,0.781 -1.811,1.474 -2.81,2.08c-0.876,0.534 -1.749,1.103 -2.747,1.303c-0.803,0.158 -1.627,0.101 -2.439,0c-0.946,-0.114 -1.861,-0.404 -2.75,-0.746c-0.786,-0.302 -1.537,-0.689 -2.285,-1.083c-0.696,-0.365 -1.376,-0.758 -2.038,-1.179c-1.085,0.449 -2.155,0.923 -3.21,1.427c-0.79,0.377 -1.572,0.77 -2.348,1.177c0.423,1.774 0.783,3.565 1.081,5.366c0.426,2.59 0.756,5.193 0.895,7.813c0.121,2.242 0.117,4.487 0.03,6.73c-0.062,1.594 -0.12,3.189 -0.279,4.775c-0.05,0.526 -0.132,1.049 -0.125,1.579c0.011,0.814 0.216,1.615 0.311,2.421c0.12,1.029 0.12,2.066 0.093,3.102c-0.033,1.189 -0.024,2.403 -0.461,3.504c-0.369,0.93 -0.925,1.775 -1.637,2.48c-0.922,0.907 -2.141,1.422 -3.367,1.862c-0.856,0.304 -1.752,0.49 -2.654,0.62c-1.144,0.163 -2.304,0.153 -3.461,0.154c-1.07,0.004 -2.143,0.011 -3.213,-0.032c-0.668,-0.027 -1.338,-0.068 -2.005,-0.122c-0.693,0.384 -1.418,0.717 -2.162,0.993c-1.048,0.388 -2.143,0.639 -3.246,0.837c-1.315,0.239 -2.647,0.388 -3.981,0.343c-1.04,-0.037 -2.074,-0.17 -3.09,-0.405c-1.657,-0.385 -3.236,-1.043 -4.692,-1.921c-1.012,-0.612 -1.983,-1.297 -2.812,-2.14c-0.749,-0.768 -1.497,-1.561 -1.915,-2.544c-0.333,-0.783 -0.497,-1.63 -0.524,-2.482c-0.024,-0.82 0.058,-1.644 0.338,-2.418c0.37,-1.014 1.103,-1.844 1.883,-2.604c0.785,-0.76 1.698,-1.371 2.69,-1.83c0.924,-0.43 1.928,-0.648 2.933,-0.838c1.212,-0.23 2.445,-0.286 3.677,-0.371c1.099,-0.077 2.2,-0.187 3.302,-0.216c1.132,-0.032 2.271,-0.057 3.398,0.061c0.671,0.071 1.343,0.24 2.009,0.155c0.512,-0.066 1.045,-0.123 1.45,-0.434c0.327,-0.252 0.545,-0.611 0.711,-0.992c0.249,-0.562 0.189,-1.206 0.186,-1.828c0,-1.028 -0.128,-2.053 -0.279,-3.07c-0.196,-1.321 -0.437,-2.631 -0.71,-3.939c-0.307,-1.487 -0.624,-2.971 -0.895,-4.465c-0.247,-1.378 -0.442,-2.764 -0.616,-4.154c-0.166,-1.339 -0.312,-2.683 -0.401,-4.03c-0.065,-0.972 -0.107,-1.944 -0.125,-2.915c-0.25,-0.833 -0.435,-1.685 -0.555,-2.544c-0.139,-0.996 -0.187,-2.003 -0.155,-3.008c0.038,-1.156 0.125,-2.317 0.493,-3.411c0.293,-0.873 0.691,-1.708 1.237,-2.449c0.477,-0.646 1.089,-1.179 1.698,-1.704c0.875,-0.758 1.834,-1.413 2.78,-2.079c1.537,-1.076 3.068,-2.158 4.633,-3.193c1.212,-0.803 2.43,-1.589 3.646,-2.388c1.775,-1.168 3.545,-2.346 5.307,-3.534c1.173,-0.787 2.331,-1.59 3.554,-2.293c0.926,-0.535 1.889,-1.006 2.842,-1.491c0.808,-0.411 1.621,-0.815 2.44,-1.208c-0.928,-1.449 -1.845,-2.907 -2.749,-4.374c-0.831,-1.349 -1.656,-2.702 -2.469,-4.062c-0.004,0.507 -0.131,1.009 -0.372,1.457c-0.32,0.595 -0.857,1.033 -1.359,1.489c-0.745,0.678 -1.588,1.234 -2.377,1.858c-0.519,0.414 -1.032,0.826 -1.545,1.243c0.036,0.67 -0.082,1.336 -0.339,1.953c-0.3,0.716 -0.846,1.299 -1.359,1.89c-0.808,0.928 -1.787,1.681 -2.748,2.451c-1.784,1.433 -3.666,2.745 -5.56,4.033c-1.137,0.771 -2.262,1.566 -3.428,2.292c-0.824,0.512 -1.665,0.995 -2.5,1.49c-0.94,0.557 -1.883,1.115 -2.84,1.643c-0.415,0.229 -0.83,0.46 -1.266,0.649c-0.274,0.117 -0.552,0.22 -0.836,0.312c-0.234,0.667 -0.533,1.311 -0.893,1.921c-0.524,0.89 -1.179,1.694 -1.916,2.418c-0.622,0.611 -1.277,1.192 -2.038,1.612c-0.348,0.192 -0.708,0.366 -1.081,0.497c-0.364,0.125 -0.735,0.222 -1.113,0.279c0.07,0.401 0.05,0.816 -0.06,1.209c-0.142,0.504 -0.462,0.933 -0.835,1.304c-0.361,0.358 -0.79,0.636 -1.267,0.805c-0.435,0.153 -0.899,0.178 -1.359,0.186c-0.382,0.009 -0.763,-0.035 -1.141,-0.063c-0.249,-0.015 -0.495,-0.037 -0.743,-0.059c-0.839,0.72 -1.681,1.436 -2.532,2.139c-15.588,12.923 -31.194,25.822 -46.818,38.699c-0.535,1.124 -1.177,2.192 -1.916,3.192c-0.803,1.085 -1.68,2.119 -2.717,2.979c-1.157,0.96 -2.483,1.693 -3.861,2.294c-0.932,0.409 -1.883,0.768 -2.875,0.995c-0.862,0.196 -1.737,0.32 -2.622,0.337c-1.195,0.028 -2.38,-0.181 -3.551,-0.433c-1.705,-0.365 -3.325,-1.042 -4.941,-1.702c-1.426,-0.583 -2.851,-1.174 -4.23,-1.863c-1.446,-0.719 -2.862,-1.504 -4.17,-2.45c-1.121,-0.813 -2.213,-1.681 -3.117,-2.729c-0.706,-0.823 -1.388,-1.676 -1.823,-2.667c-0.36,-0.822 -0.633,-1.682 -0.679,-2.574c-0.044,-0.855 0.078,-1.709 0.371,-2.51c0.286,-0.79 0.75,-1.501 1.296,-2.14c0.508,-0.596 1.075,-1.141 1.761,-1.518c0.629,-0.347 1.329,-0.533 2.038,-0.653c0.584,-0.098 1.173,-0.164 1.761,-0.093c0.661,0.082 1.283,0.331 1.883,0.62c0.652,0.314 1.231,0.754 1.793,1.208c0.636,0.518 1.199,1.115 1.821,1.644c0.755,0.643 1.572,1.206 2.409,1.735c0.661,0.419 1.332,0.818 2.04,1.147c0.961,0.451 1.988,0.74 2.997,1.086c0.689,0.238 1.361,0.523 2.065,0.714c0.829,0.225 1.679,0.393 2.532,0.493c0.879,-0.412 1.789,-0.754 2.719,-1.022c0.97,-0.277 1.968,-0.435 2.964,-0.589l51.167,-43.354Z" style="fill:#fff;"/><path d="M92.801,159.202c-0.169,-0.573 -0.295,-1.157 -0.379,-1.75c-0.065,-0.455 -0.156,-0.918 -0.087,-1.371c0.093,-0.629 0.458,-1.18 0.755,-1.748c0.382,-0.727 0.757,-1.461 1.19,-2.156c0.306,-0.492 0.621,-0.981 0.988,-1.428c0.277,-0.336 0.56,-0.668 0.901,-0.934c0.557,-0.433 1.243,-0.655 1.916,-0.875c0.644,-0.211 1.319,-0.322 1.974,-0.495c0.564,-0.149 1.126,-0.306 1.687,-0.466c0.96,-0.746 1.917,-1.494 2.873,-2.247c1.02,-0.802 2.045,-1.6 3.049,-2.42c1.043,-0.855 2.091,-1.709 2.991,-2.712c0.759,-0.841 1.35,-1.822 2.091,-2.681c0.772,-0.897 1.645,-1.694 2.528,-2.48c0.684,-0.608 1.388,-1.192 2.117,-1.749c-0.065,-1.226 -0.161,-2.45 -0.289,-3.673c-0.131,-1.266 -0.326,-2.527 -0.495,-3.792c-0.149,-1.135 -0.28,-2.271 -0.406,-3.408c-0.131,-1.185 -0.251,-2.373 -0.349,-3.559c-0.055,-0.653 -0.107,-1.303 -0.145,-1.954l-0.03,-0.524l-0.376,-0.82c-0.464,-1.007 -0.835,-2.05 -1.221,-3.088c-0.349,-0.945 -0.677,-1.9 -0.988,-2.859c-0.248,-0.759 -0.508,-1.518 -0.639,-2.304c-0.109,-0.655 -0.158,-1.321 -0.144,-1.983c0.022,-0.977 0.232,-1.936 0.465,-2.886c0.22,-0.897 0.485,-1.786 0.813,-2.653c0.389,-1.036 0.886,-2.03 1.364,-3.03c0.508,-1.063 1.039,-2.113 1.596,-3.151l-0.87,-1.139c-0.529,0.366 -1.106,0.661 -1.713,0.877c-0.408,0.144 -0.819,0.285 -1.249,0.291c-0.431,0.009 -0.869,-0.034 -1.25,-0.234c-0.378,-0.198 -0.633,-0.564 -0.9,-0.903c-0.193,-0.244 -0.357,-0.508 -0.494,-0.785c-0.549,0.171 -1.144,0.12 -1.653,-0.146c-0.328,-0.17 -0.605,-0.422 -0.814,-0.728c-0.265,-0.387 -0.408,-0.844 -0.408,-1.314c-0.116,0.311 -0.394,0.536 -0.726,0.582c-0.197,0.028 -0.398,-0.025 -0.58,-0.114c-0.353,-0.173 -0.473,-0.595 -0.638,-0.964c-0.146,-0.323 -0.235,-0.668 -0.263,-1.021l-1.046,-0.699c-0.236,0.251 -0.509,0.468 -0.81,0.643c-0.232,0.136 -0.469,0.296 -0.729,0.261c-0.268,-0.037 -0.471,-0.245 -0.639,-0.468c-0.231,-0.301 -0.213,-0.72 -0.258,-1.108c-0.076,-0.665 -0.049,-1.338 -0.003,-2.01c0.025,-0.349 0.046,-0.698 0.059,-1.048c0.015,-0.331 0.022,-0.66 0.028,-0.991c-0.504,-0.475 -0.99,-0.969 -1.453,-1.487c-0.378,-0.424 -0.798,-0.817 -1.071,-1.314c-0.235,-0.425 -0.38,-0.895 -0.495,-1.37c-0.171,-0.701 -0.166,-1.432 -0.174,-2.156c-0.008,-0.689 0,-1.381 0,-2.07l0,-1.691c-0.21,0.18 -0.459,0.309 -0.726,0.381c-0.346,0.088 -0.721,0.207 -1.016,0.027c-0.193,-0.119 -0.327,-0.311 -0.406,-0.524c-0.125,-0.343 0.017,-0.714 0.172,-1.053c0.354,-0.769 0.977,-1.375 1.511,-2.037c0.552,-0.682 0.937,-1.493 1.54,-2.129c0.475,-0.5 1.026,-0.917 1.57,-1.343c0.819,-0.644 1.661,-1.255 2.524,-1.838c0.964,-0.649 1.947,-1.273 2.991,-1.775c0.971,-0.468 1.965,-0.895 3.018,-1.112c1.033,-0.213 2.089,-0.252 3.139,-0.175c0.999,0.075 1.991,0.246 2.932,0.584c0.947,0.343 1.837,0.829 2.642,1.431c0.915,0.685 1.626,1.594 2.352,2.478c0.714,0.871 1.445,1.736 1.947,2.74c0.406,0.813 0.695,1.679 0.901,2.565c0.187,0.823 0.275,1.665 0.318,2.51c0.033,0.667 0.033,1.339 0,2.008c-0.018,0.401 -0.028,0.805 -0.115,1.195c-0.065,0.292 -0.163,0.576 -0.291,0.847l0.755,1.544c0.796,0.028 1.589,0.088 2.38,0.175c1.628,0.18 3.246,0.453 4.82,0.903c1.311,0.375 2.581,0.871 3.836,1.4c1.628,0.688 3.215,1.477 4.763,2.333c1.387,0.768 2.759,1.571 4.036,2.51c1.139,0.835 2.216,1.752 3.225,2.74c1.23,1.208 2.309,2.56 3.424,3.878c0.948,1.118 1.936,2.205 2.847,3.354c1.192,1.503 2.303,3.068 3.368,4.664c1.165,1.745 2.255,3.542 3.515,5.219c0.688,0.915 1.436,1.784 2.148,2.683c1.035,1.302 2.014,2.647 2.989,3.996c1.317,1.825 2.601,3.673 3.864,5.537c2.168,3.197 4.222,6.466 6.447,9.622c0.72,1.02 1.465,2.025 2.12,3.089c0.551,0.891 1.089,1.798 1.391,2.8c0.154,0.508 0.37,1.037 0.175,1.514c-0.114,0.282 -0.302,0.528 -0.551,0.703c-0.18,0.127 -0.393,0.208 -0.608,0.261c-0.37,0.089 -0.762,0.089 -1.133,0c0.137,0.825 0.263,1.653 0.376,2.479c0.13,0.923 0.317,1.839 0.35,2.77c0.038,1.045 -0.043,2.088 -0.232,3.118c-0.18,0.973 -0.511,1.912 -0.812,2.856c-0.249,0.774 -0.52,1.545 -0.814,2.304c0.158,0.802 0.294,1.61 0.406,2.422c0.197,1.42 0.305,2.854 0.38,4.287c0.066,1.271 0.11,2.543 0.115,3.818c0.005,1.924 -0.047,3.849 -0.115,5.772c-0.036,1.009 -0.081,2.023 -0.031,3.033c0.028,0.547 0.086,1.089 0.146,1.633c0.044,0.388 0.088,0.78 0.144,1.168c0.573,-0.129 1.157,-0.208 1.744,-0.235c0.98,-0.048 1.96,0.082 2.932,0.235c1.84,0.285 3.601,0.908 5.345,1.572c1.293,0.492 2.575,1.02 3.831,1.604c1.148,0.532 2.282,1.097 3.396,1.693c1.84,0.978 3.631,2.052 5.403,3.149c1.087,0.673 2.174,1.351 3.253,2.042c2.005,1.282 3.985,2.61 5.923,3.992c0.917,0.653 1.828,1.315 2.731,1.985c1.286,0.95 2.55,1.926 3.804,2.915c1.085,0.851 2.189,1.68 3.194,2.622c0.762,0.715 1.43,1.533 2.265,2.16c0.246,0.182 0.502,0.346 0.753,0.523c0.779,0.547 1.494,1.176 2.178,1.836c0.851,0.817 1.606,1.718 2.353,2.625c0.633,0.774 1.261,1.551 1.799,2.392c0.341,0.533 0.74,1.046 0.871,1.659c0.103,0.481 0.08,0.975 0,1.461c-0.105,0.633 -0.363,1.228 -0.696,1.775c-0.304,0.503 -0.775,0.879 -1.134,1.344c-0.229,0.298 -0.392,0.658 -0.695,0.873c-0.287,0.202 -0.647,0.26 -0.987,0.35c-0.808,0.213 -1.627,0.385 -2.441,0.584c-0.752,0.183 -1.495,0.398 -2.209,0.698c-0.624,0.263 -1.26,0.524 -1.77,0.965c-0.359,0.311 -0.652,0.689 -0.928,1.077c-0.347,0.486 -0.6,1.037 -0.961,1.516c-0.397,0.529 -0.849,1.017 -1.364,1.429c-0.451,0.361 -0.909,0.723 -1.452,0.903c-0.426,0.142 -0.884,0.14 -1.335,0.178c-0.999,0.087 -1.992,0.232 -2.991,0.319c-1.055,0.092 -2.11,0.158 -3.166,0.206c-1.016,0.043 -2.034,0.056 -3.049,0.029c-0.789,-0.022 -1.582,-0.029 -2.353,-0.204c-0.468,-0.107 -0.93,-0.235 -1.364,-0.44c-0.404,-0.192 -0.854,-0.339 -1.103,-0.7c-0.254,-0.365 -0.289,-0.83 -0.261,-1.279c0.027,-0.431 0.215,-0.833 0.405,-1.226c0.288,-0.586 0.737,-1.071 1.19,-1.544c0.437,-0.458 0.92,-0.869 1.423,-1.252c0.35,-0.268 0.693,-0.544 1.076,-0.759c0.29,-0.162 0.616,-0.26 0.869,-0.468c0.197,-0.16 0.337,-0.378 0.495,-0.58c0.541,-0.689 1.065,-1.385 1.569,-2.1c0.42,-0.596 0.851,-1.19 1.19,-1.836c0.355,-0.68 0.63,-1.395 0.84,-2.131c0.18,-0.631 0.317,-1.273 0.381,-1.924c0.049,-0.495 0.072,-0.992 0.027,-1.485c-0.049,-0.541 -0.134,-1.08 -0.349,-1.576c-0.306,-0.704 -0.905,-1.23 -1.453,-1.779c-0.682,-0.683 -1.449,-1.274 -2.236,-1.836c-0.952,-0.681 -1.959,-1.287 -2.992,-1.838c-0.869,-0.467 -1.758,-0.908 -2.671,-1.283c-0.96,-0.393 -1.952,-0.709 -2.934,-1.048c-1.033,-0.356 -2.058,-0.742 -3.078,-1.136c-1.207,-0.463 -2.399,-0.951 -3.6,-1.429c-1.642,-0.652 -3.295,-1.278 -4.938,-1.924c-1.758,-0.694 -3.51,-1.397 -5.286,-2.039c-1.048,-0.379 -2.101,-0.75 -3.167,-1.08c-1.325,-0.413 -2.667,-0.771 -3.978,-1.225c-1.107,-0.387 -2.194,-0.828 -3.252,-1.342c-0.682,-0.329 -1.37,-0.654 -1.976,-1.107c-0.67,-0.503 -1.229,-1.137 -1.769,-1.781c-0.781,-0.924 -1.418,-1.959 -2.035,-3.001c-0.591,-0.999 -1.162,-2.011 -1.655,-3.063c-0.458,-0.982 -0.85,-1.992 -1.25,-3.002c-0.312,-0.794 -0.634,-1.589 -0.927,-2.391c-0.16,-0.444 -0.317,-0.891 -0.466,-1.338c-0.423,0.06 -0.851,0.081 -1.276,0.055c-0.362,-0.018 -0.741,0.005 -1.047,-0.175c-0.39,-0.228 -0.455,-0.769 -0.726,-1.136c-0.291,-0.399 -0.622,-0.774 -1.045,-1.022c-0.398,-0.232 -0.849,-0.352 -1.307,-0.407c-0.417,-0.049 -0.841,-0.046 -1.248,0.059c-0.276,0.071 -0.544,0.169 -0.784,0.318c-0.362,0.227 -0.586,0.615 -0.873,0.933c-0.541,0.604 -1.185,1.103 -1.797,1.636c-0.667,0.578 -1.338,1.149 -2.035,1.688c-0.529,0.41 -1.059,0.83 -1.654,1.14c-0.382,0.198 -0.777,0.381 -1.192,0.497c-0.341,0.093 -0.691,0.16 -1.045,0.173c-0.521,0.019 -1.034,-0.103 -1.54,-0.234c-0.727,-0.189 -1.397,-0.549 -2.091,-0.846c-0.862,-0.371 -1.756,-0.672 -2.585,-1.108c-0.656,-0.344 -1.285,-0.735 -1.889,-1.166c-1.572,0.677 -3.13,1.387 -4.674,2.127c-1.221,0.584 -2.429,1.186 -3.63,1.808c0.334,1.265 0.635,2.538 0.9,3.82c0.281,1.361 0.519,2.734 0.726,4.11c0.213,1.413 0.393,2.833 0.525,4.257c0.147,1.629 0.225,3.262 0.261,4.896c0.044,2.042 0.002,4.084 -0.087,6.122c-0.036,0.796 -0.044,1.597 -0.118,2.39c-0.056,0.611 -0.164,1.224 -0.144,1.838c0.013,0.432 0.089,0.854 0.144,1.283c0.131,1.023 0.186,2.058 0.205,3.09c0.019,0.973 0.002,1.95 -0.145,2.914c-0.095,0.625 -0.138,1.274 -0.464,1.809c-0.373,0.617 -1.037,0.982 -1.656,1.371c-0.677,0.424 -1.408,0.756 -2.177,0.96c-0.42,0.113 -0.851,0.173 -1.278,0.235c-1.087,0.162 -2.184,0.227 -3.284,0.235c-1.132,0.008 -2.266,-0.062 -3.395,-0.148c-0.865,-0.065 -1.727,-0.153 -2.588,-0.262c-0.813,0.562 -1.689,1.025 -2.611,1.374c-1.436,0.545 -2.967,0.775 -4.502,0.873c-1.115,0.071 -2.234,0.079 -3.34,-0.087c-1.512,-0.228 -2.976,-0.713 -4.329,-1.424c-0.895,-0.474 -1.758,-1.005 -2.496,-1.694c-0.626,-0.582 -1.205,-1.215 -1.627,-1.953c-0.322,-0.562 -0.638,-1.139 -0.726,-1.778c-0.082,-0.597 -0.027,-1.208 0.175,-1.779c0.22,-0.63 0.666,-1.148 1.131,-1.632c0.474,-0.487 1.036,-0.865 1.627,-1.196c0.808,-0.449 1.712,-0.684 2.613,-0.906c0.868,-0.213 1.752,-0.357 2.642,-0.465c1.241,-0.146 2.494,-0.195 3.746,-0.203c1.163,-0.01 2.326,-0.014 3.487,0.057c0.869,0.053 1.741,0.145 2.611,0.087c0.736,-0.049 1.495,-0.054 2.15,-0.378c0.595,-0.295 1.096,-0.742 1.483,-1.283c0.404,-0.566 0.613,-1.24 0.753,-1.925c0.139,-0.689 0.09,-1.394 0.057,-2.099c-0.035,-0.797 -0.109,-1.594 -0.175,-2.39c-0.103,-1.266 -0.165,-2.539 -0.376,-3.791c-0.197,-1.18 -0.514,-2.334 -0.783,-3.5c-0.293,-1.262 -0.533,-2.54 -0.757,-3.817c-0.165,-0.939 -0.313,-1.882 -0.436,-2.828c-0.095,-0.736 -0.191,-1.474 -0.231,-2.216c-0.055,-0.961 -0.038,-1.925 -0.032,-2.886c0.004,-0.449 0.02,-0.9 -0.056,-1.343c-0.069,-0.399 -0.238,-0.775 -0.349,-1.164c-0.211,-0.724 -0.331,-1.469 -0.408,-2.216c-0.094,-0.95 -0.092,-1.911 0.031,-2.859c0.104,-0.788 0.213,-1.585 0.551,-2.303c0.246,-0.519 0.592,-0.983 0.957,-1.427c0.524,-0.639 1.163,-1.168 1.802,-1.691c1.228,-1.005 2.609,-1.802 3.95,-2.654c1.132,-0.72 2.221,-1.505 3.34,-2.247c1.36,-0.9 2.738,-1.775 4.095,-2.68c1.692,-1.126 3.364,-2.289 5.078,-3.384c1.005,-0.641 2.02,-1.267 3.051,-1.864c1.194,-0.693 2.409,-1.34 3.629,-1.985c0.944,-0.497 1.891,-0.982 2.847,-1.458c-0.495,-0.994 -1.015,-1.976 -1.57,-2.943c-1.021,-1.783 -2.184,-3.475 -3.312,-5.193c-0.667,-1.018 -1.315,-2.049 -1.945,-3.09c-0.343,-0.569 -0.685,-1.142 -1.019,-1.719l-2.322,-0.148c0.127,0.732 0.137,1.48 0.029,2.217c-0.087,0.609 -0.235,1.21 -0.524,1.75c-0.42,0.781 -1.202,1.284 -1.885,1.867c-0.767,0.651 -1.495,1.35 -2.323,1.923c-0.376,0.26 -0.764,0.506 -1.163,0.73c0.01,0.56 -0.062,1.119 -0.203,1.663c-0.137,0.52 -0.327,1.028 -0.61,1.486c-0.447,0.727 -1.19,1.206 -1.858,1.75c-1.452,1.182 -2.989,2.255 -4.503,3.352c-1.074,0.777 -2.106,1.607 -3.193,2.364c-1.003,0.695 -2.045,1.332 -3.079,1.981c-1.572,0.985 -3.153,1.96 -4.82,2.77c-0.781,0.38 -1.576,0.729 -2.38,1.048c-0.156,0.713 -0.407,1.401 -0.753,2.042c-0.486,0.906 -1.163,1.691 -1.92,2.39c-0.586,0.54 -1.191,1.074 -1.916,1.401c-0.755,0.343 -1.577,0.521 -2.409,0.524c0.158,0.634 0.095,1.301 -0.175,1.896c-0.229,0.503 -0.562,0.964 -1.046,1.222c-0.547,0.295 -1.222,0.116 -1.857,0.119c-0.448,0.002 -0.894,-0.027 -1.336,-0.087l-50.761,41.984c-0.519,0.829 -0.768,1.81 -1.308,2.623c-0.579,0.873 -1.285,1.656 -2.06,2.363c-0.823,0.748 -1.719,1.408 -2.702,1.924c-0.899,0.473 -1.876,0.779 -2.848,1.079c-0.851,0.262 -1.699,0.559 -2.584,0.613c-1.105,0.072 -2.191,-0.252 -3.28,-0.497c-2.28,-0.504 -4.476,-1.317 -6.592,-2.302c-1.25,-0.581 -2.475,-1.218 -3.659,-1.924c-1.037,-0.621 -2.061,-1.27 -2.99,-2.041c-0.869,-0.727 -1.681,-1.528 -2.381,-2.418c-0.464,-0.59 -0.967,-1.167 -1.221,-1.867c-0.191,-0.525 -0.302,-1.077 -0.292,-1.633c0.012,-0.627 0.164,-1.244 0.437,-1.811c0.269,-0.558 0.657,-1.052 1.132,-1.457c0.47,-0.398 0.999,-0.727 1.597,-0.873c0.608,-0.147 1.247,-0.094 1.858,0.059c0.795,0.191 1.463,0.703 2.122,1.195c0.737,0.551 1.267,1.332 1.945,1.953c0.732,0.672 1.545,1.245 2.38,1.78c0.72,0.46 1.468,0.875 2.236,1.251c1.077,0.534 2.196,0.973 3.341,1.342c0.944,0.302 1.901,0.563 2.873,0.76c0.588,0.121 1.184,0.201 1.772,0.32c0.269,0.055 0.54,0.148 0.813,0.118c0.235,-0.028 0.45,-0.139 0.668,-0.236c0.598,-0.262 1.185,-0.546 1.802,-0.759c0.576,-0.196 1.167,-0.343 1.771,-0.436c0.384,-0.06 0.772,-0.093 1.164,-0.116c0.349,-0.022 0.694,-0.032 1.044,-0.028l52.959,-44.82Z" style="fill:#1e6734;"/></svg>