<svg width="147" height="147" viewBox="0 0 147 147" class="w-100 h-100 d-block" fill="none" xmlns="http://www.w3.org/2000/svg">
    <path d="M0 146.372H146.601V0H0V146.372Z" fill="#F70223"></path>
    <path fill-rule="evenodd" clip-rule="evenodd" d="M56.5164 87.8429L61.0596 88.0395V82.4101H42V71.7396H61.0596V67.6691H42V37H104.45V67.6691H85.3904V71.7396H104.45V82.4101H85.3904V88.0402L89.9329 87.8429V108.63H56.5164V87.8429Z" fill="#1D1D1B"></path>
    <path fill-rule="evenodd" clip-rule="evenodd" d="M47.0684 79.5635H49.2412C49.6401 79.5635 49.8364 79.511 50.0327 79.3662C50.2666 79.1917 50.3679 78.9519 50.3679 78.5446V77.5846C50.3679 76.9077 50.0327 76.6175 49.2638 76.6175H48.3022V75.7285H49.059V76.1351H50.222V74.7089H48.0995C47.293 74.7089 47.0159 75.0005 47.0159 75.8669V76.4849C47.0159 77.2852 47.3058 77.5832 48.0917 77.5832H49.059V78.5446H48.3022V78.0713H47.0684V79.5635ZM53.333 79.5635H55.3173V78.5304L54.9828 78.5446V75.7285H55.4789V76.4912H56.4093V74.7089H52.2424V76.4912H53.1721V75.7285H53.6739V78.5446L53.333 78.5304V79.5635ZM58.3851 79.5635H60.0349V77.5974H60.7981V78.9817C60.7981 79.4535 60.9073 79.5635 61.3863 79.5635H62.4408V78.5304L62.1063 78.5446V78.1522C62.1063 77.7372 62.0844 77.6279 61.9752 77.4683C61.859 77.2937 61.7208 77.2057 61.46 77.1327C61.9603 76.929 62.1063 76.7176 62.1063 76.2167V75.7292C62.1063 75.0154 61.7803 74.7096 61.0313 74.7096H58.383V75.7399L58.7239 75.7257V78.5418L58.383 78.5276L58.3851 79.5635ZM60.7946 76.7034H60.0349V75.7285H60.7981L60.7946 76.7034ZM60.7287 74.2804L61.2956 73.1884H60.6578L60.3673 73.7532L60.0838 73.1856H59.4531L59.9846 74.2775L60.7287 74.2804ZM64.3634 79.5635H67.9068V77.9266H66.7502V78.5446H66.0175V77.525H67.0287V76.653H66.0175V75.7306H66.7502V76.2621H67.8565V74.7089H64.367V75.7399L64.7093 75.7257V78.5418L64.367 78.5276L64.3634 79.5635ZM69.8301 79.5635H72.0029C72.4026 79.5635 72.6003 79.511 72.7959 79.3662C73.029 79.1917 73.1304 78.9519 73.1304 78.5446V77.5846C73.1304 76.9077 72.7959 76.6175 72.0249 76.6175H71.0682V75.7285H71.8229V76.1351H72.9886V74.7089H70.8669C70.059 74.7089 69.7826 75.0005 69.7826 75.8669V76.4849C69.7826 77.2852 70.0739 77.5832 70.8591 77.5832H71.825V78.5446H71.0682V78.0713H69.8336L69.8301 79.5635ZM71.9079 74.2804L72.4749 73.1884H71.8371L71.5451 73.756L71.2616 73.1884H70.6295L71.161 74.2804H71.9079ZM76.2485 74.7061C75.8488 74.7061 75.559 74.8224 75.3684 75.0481C75.2089 75.2375 75.1515 75.4631 75.1515 75.8924V78.3757C75.1515 78.805 75.2089 79.0306 75.3684 79.2186C75.559 79.4443 75.8488 79.5613 76.2485 79.5613H77.4036C77.8048 79.5613 78.0953 79.4443 78.2838 79.2186C78.4433 79.0306 78.5021 78.805 78.5021 78.3757V75.8924C78.5021 75.4631 78.4433 75.2375 78.2838 75.0481C78.0953 74.8224 77.8048 74.7061 77.4036 74.7061H76.2485ZM77.1932 78.5418H76.4632V75.7285H77.1967L77.1932 78.5418ZM81.6415 79.5606H83.5025L84.3387 75.7292L84.681 75.7434V74.7089H82.7222V75.7399L83.0624 75.7257L82.5975 78.1927L82.0015 74.7061H80.5275V75.7399L80.8676 75.7257L81.6415 79.5606ZM86.6142 79.5606H88.5623V78.5304L88.2633 78.5446V75.7285L88.5623 75.7427V74.7089H86.6178V75.7399L86.9593 75.7257V78.5418L86.6178 78.5276L86.6142 79.5606ZM93.8681 77.7698H92.6988V78.5418H91.9314V75.7285H92.7024V76.2599H93.8285V74.7089H91.7202C91.3495 74.7089 91.0951 74.7891 90.9059 74.9636C90.6933 75.1531 90.6224 75.3929 90.6224 75.874V78.5446C90.6224 78.915 90.6933 79.1335 90.8769 79.3088C91.0732 79.4968 91.3056 79.5635 91.7195 79.5635H93.871L93.8681 77.7698ZM95.8893 79.5606H99.4326V77.9266H98.2768V78.5446H97.5433V77.525H98.5532V76.653H97.5433V75.7306H98.2768V76.2621H99.3823V74.7089H95.8928V75.7399L96.2344 75.7257V78.5418L95.8928 78.5276L95.8893 79.5606ZM59.9697 105.097V91.3039L64.4343 91.4983V82.298H82.015V91.4983L86.4796 91.3039V105.097H59.9697ZM64.4343 71.6275V53.9107H57.8366V64.1087H45.4193V40.312H101.03V64.1087H88.6134V53.9107H82.015V71.6246L64.4343 71.6275Z" fill="white"></path>
</svg>