<svg width="107" height="100" viewBox="0 0 107 100" fill="none" xmlns="http://www.w3.org/2000/svg">
<path fill-rule="evenodd" clip-rule="evenodd" d="M42.9957 31.9728C42.9957 27.1531 39.434 23.8049 34.3291 23.8049C32.0262 23.8049 29.794 24.5411 28.3223 25.776C26.5412 27.2719 25.4969 29.5272 25.4969 31.8306C25.4969 36.6977 29.0344 40.1169 34.0681 40.1169C39.3152 40.1169 42.9957 36.7453 42.9957 31.9728ZM55.8593 33.8013V33.6585C57.0227 33.326 57.5925 32.994 58.0202 32.4478C58.5901 31.7118 58.9221 30.6667 58.9221 29.5033C58.9221 27.5093 58.0912 25.9897 56.3818 24.9446C55.3131 24.2801 54.2924 24.0428 52.5828 24.0428H45.436V39.8795H51.0395V34.7983L51.1344 34.751C51.1582 34.8102 51.176 34.8635 51.1909 34.908V34.9082L51.191 34.9083V34.9084L51.1911 34.9085C51.2059 34.9529 51.2178 34.9884 51.2296 35.012C51.2402 35.0228 51.2507 35.0476 51.2655 35.0824V35.0825C51.2839 35.1256 51.3086 35.1839 51.3479 35.2496L53.6274 39.8795H60.2518L56.6907 34.5373C56.5006 34.2521 56.3345 34.1101 55.8593 33.8013ZM72.832 31.6406V31.7591C73.9242 32.2341 74.4462 32.5664 74.85 33.1365C75.372 33.8249 75.6333 34.6322 75.6333 35.4633C75.6333 36.4842 75.2298 37.5291 74.5175 38.3126C73.6393 39.286 72.0004 39.8795 70.0771 39.8795H62.0282V24.0428H68.9373C71.3598 24.0428 73.0216 24.5885 73.9242 25.6572C74.5411 26.4405 74.8736 27.3666 74.8736 28.3875C74.8736 29.2662 74.6121 30.121 74.1374 30.7382C73.8524 31.1183 73.5436 31.3317 72.832 31.6406ZM93.7684 39.8795H87.6665L87.1444 37.9089H82.7753L82.3479 39.8795H76.2696L81.7541 24.0428H88.1176L93.7684 39.8795ZM105.944 34.7746V39.8795H95.3305V24.0428H101.1V34.7746H105.944ZM86.1469 34.1574H83.8438L84.6274 31.1183C84.7183 30.7304 84.7658 30.3428 84.8751 29.4499L84.8889 29.3377H85.1021C85.1494 29.7412 85.1977 30.0974 85.2214 30.2159L85.4109 31.1183L86.1469 34.1574ZM69.6499 28.9337C69.6499 29.6697 69.1276 30.121 68.2733 30.121H67.3468V27.8418H68.2494C69.2225 27.8418 69.6499 28.1738 69.6499 28.9337ZM68.5102 36.0568C69.626 36.0568 70.2673 35.5819 70.2673 34.7746C70.2673 33.9674 69.626 33.4688 68.6058 33.4688H67.3468V36.0568H68.5102ZM51.8231 31.0946C52.7492 31.0946 53.3427 30.5721 53.3427 29.7649C53.3427 28.9576 52.7965 28.3875 52.0366 28.3875H51.0395V31.0946H51.8231ZM34.2818 35.012C35.9914 35.012 37.1784 33.7776 37.1784 31.997C37.1784 30.2159 35.944 28.9098 34.2581 28.9098C32.5724 28.9098 31.3136 30.1923 31.3136 31.9255C31.3136 33.7537 32.5248 35.012 34.2818 35.012ZM13.7234 39.8795H24.3367V34.7746H19.4933V24.0428H13.7234V39.8795ZM11.3053 28.5536H6.50919V30.1686H10.7354V34.3236H6.50919V39.8795H0.739258V24.0428H11.3053V28.5536Z" fill="white"/>
<path fill-rule="evenodd" clip-rule="evenodd" d="M55.6526 81.7682H51.4735L47.4472 72.1363H32.9228L28.8454 81.7682H24.7173L40.3633 46.1443L55.6526 81.7682ZM68.6995 66.5808L79.5041 81.7682H74.8666L64.6225 66.8872H63.6542V81.7682H59.832V47.7751H65.3359C69.2097 47.7751 71.5533 48.2849 73.49 49.6098C75.8347 51.1901 77.2619 54.0946 77.2619 57.3056C77.2619 62.4528 73.8978 66.1222 68.6995 66.5808ZM101.957 47.7751H106.39L95.0763 67.1416V81.7682H91.2546V67.1416L80.1444 47.7751H84.5274L93.1913 62.963L101.957 47.7751ZM66.0495 63.5231H63.6542V51.292H65.8967C68.2917 51.292 69.8206 51.6484 71.0439 52.4129C72.6236 53.3815 73.5408 55.2162 73.5408 57.3056C73.5408 61.2808 70.84 63.5231 66.0495 63.5231ZM45.9696 68.6199H34.5025L40.3125 55.0123L45.9696 68.6199ZM27.5717 47.7751L13.7604 83.7557L0 47.7751H4.17938L13.8113 73.6652L23.4437 47.7751H27.5717Z" fill="white"/>
<path d="M74.3499 84.836C68.6867 90.8468 61.5019 96.0628 52.395 99.7815C52.138 99.8865 51.8763 99.9504 51.6145 99.9799V100C51.5609 100 51.507 99.9955 51.4534 99.9919L51.4242 99.9939C51.3803 99.997 51.3363 100 51.2931 100V99.9799C51.0313 99.9504 50.768 99.8865 50.5115 99.7815C41.8809 96.2568 34.973 91.389 29.452 85.7737H38.1114C41.9195 88.8627 46.3323 91.5884 51.4534 93.8215C57.0867 91.365 61.863 88.3124 65.9201 84.836H74.3499Z" fill="#B77E38"/>
<path d="M88.0693 16.4235C88.0335 16.0301 87.999 15.6664 87.9651 15.3329C82.7816 15.1179 70.4871 13.7222 51.4534 6.29373C32.4194 13.7222 20.1259 15.1179 14.9415 15.3329C14.907 15.6664 14.873 16.0301 14.8385 16.4235C14.748 17.43 14.6579 18.6337 14.5847 20H8.72565C8.96665 15.2774 9.40861 12.2959 9.45435 11.9873L9.458 11.9625L9.87558 9.30418L12.5502 9.49749L12.552 9.49673L12.5737 9.4985C12.5955 9.50021 12.6404 9.50193 12.7036 9.50434L12.7088 9.50454L12.7142 9.50471C12.849 9.50901 13.0646 9.51586 13.3612 9.51586C16.534 9.5141 29.0178 8.90673 50.3972 0.419347L51.2931 0.0634307V0.0624239L51.3806 0.0286948L51.4516 0L51.4534 0.00100684L51.4552 0L51.5271 0.0286948L51.6145 0.0624239V0.0634307L52.5103 0.419347C73.889 8.90673 86.372 9.5141 89.5448 9.51586C89.8449 9.51586 90.0628 9.50887 90.1963 9.50459L90.198 9.50454C90.2647 9.50202 90.3097 9.50026 90.3339 9.4985L90.3548 9.49673L90.3555 9.49749L93.031 9.30418L93.4495 11.9625L93.4532 11.9872C93.4994 12.2989 93.9411 15.2802 94.1819 20H88.3225C88.2496 18.6337 88.1598 17.43 88.0693 16.4235Z" fill="#B77E38"/>
</svg>
