<?xml version="1.0" encoding="utf-8"?>
<!-- Generator: Adobe Illustrator 26.3.1, SVG Export Plug-In . SVG Version: 6.00 Build 0)  -->
<svg version="1.1" id="Vrstva_1" xmlns="http://www.w3.org/2000/svg" xmlns:xlink="http://www.w3.org/1999/xlink" x="0px" y="0px"
	 viewBox="100 38 56 67" style="enable-background:new 0 0 255.1 141.7;" xml:space="preserve">
<style type="text/css">
	.st0{fill:#FFFFFF;}
	.st1{fill:#2A276D;}
</style>
<g>
	<path class="st0" d="M155.4,84l-0.1-15.4l0.1-21.7l-3.2,1l0.6-1.6c-3.8-4.5-8.6-5.9-10-6.3c-0.4-0.1-0.7-0.2-1.1-0.3
		c-11.6-3.3-21.5,0.3-21.5,0.3l-20.1,39.5l14.3,7.4l2.3-1.3l0.1,2.5l30.3,16.3L147,90.4L155.4,84z"/>
	<path class="st1" d="M152,68v14l-3.8,2.9V70.5l-12.6-4.8l-0.1,7.5l8.2,0.1l-0.1,25.5l-24.7-13.3l0.1-3.7l-3.2,2.1l-11.1-5.7
		l17.5-35c0,0,8.6-3.5,18.9-0.3c0,0,5.6,1.4,9,5.7l-1.1,2.2l3.4-1.1l-0.3,14.1l-4-1.8v-8.1l-4.4,1.5l1.7-3.6c0,0-6.3-7.1-20.1-3.8
		l-14.3,28.8l5.6,3l5.5-3.5l-0.2,6.3l17.1,9.4l0.2-15.1l-7.4-0.1l0-16.7L152,68z"/>
</g>
</svg>
